999
DXF from OpenSCAD
  0
SECTION
  2
HEADER
  9
$ACADVER
  1
AC1006
  9
$INSBASE
 10
0.0
 20
0.0
 30
0.0
  9
$EXTMIN
 10
0
 20
-0.00999989
  9
$EXTMAX
 10
60
 20
24.46
  9
$LINMIN
 10
0
 20
-0.00999989
  9
$LINMAX
 10
60
 20
24.46
  0
ENDSEC
  0
SECTION
  2
TABLES
  0
TABLE
  2
LTYPE
 70
1
  0
LTYPE
  2
CONTINUOUS
 70
64
  3
Solid line
 72
65
 73
0
 40
0.000000
  0
ENDTAB
  0
TABLE
  2
LAYER
 70
6
  0
LAYER
  2
0
 70
64
 62
7
  6
CONTINUOUS
  0
ENDTAB
  0
TABLE
  2
STYLE
 70
0
  0
ENDTAB
  0
ENDSEC
  0
SECTION
  2
BLOCKS
  0
ENDSEC
  0
SECTION
  2
ENTITIES
  0
LWPOLYLINE
100
AcDbEntity
  8
0
100
AcDbPolyline
 90
12
 70
1
 10
20
 20
1.61
 10
40
 20
1.61
 10
40
 20
-0.00999989
 10
60
 20
-0.00999989
 10
60
 20
24.46
 10
40
 20
24.46
 10
40
 20
21.61
 10
20
 20
21.61
 10
20
 20
24.46
 10
0
 20
24.46
 10
0
 20
-0.00999989
 10
20
 20
-0.00999989
  0
LWPOLYLINE
100
AcDbEntity
  8
0
100
AcDbPolyline
 90
4
 70
1
 10
11.75
 20
9.86
 10
11.75
 20
13.36
 10
18.25
 20
13.36
 10
18.25
 20
9.86
  0
LWPOLYLINE
100
AcDbEntity
  8
0
100
AcDbPolyline
 90
50
 70
1
 10
41.9995
 20
10.0132
 10
41.8002
 20
10.0383
 10
41.6056
 20
10.0883
 10
41.4188
 20
10.1623
 10
41.2427
 20
10.2591
 10
41.0801
 20
10.3772
 10
40.9337
 20
10.5147
 10
40.8056
 20
10.6695
 10
40.6979
 20
10.8392
 10
40.6124
 20
11.021
 10
40.5503
 20
11.2121
 10
40.5126
 20
11.4095
 10
40.5
 20
11.61
 10
40.5126
 20
11.8105
 10
40.5503
 20
12.0079
 10
40.6124
 20
12.199
 10
40.6979
 20
12.3808
 10
40.8056
 20
12.5505
 10
40.9337
 20
12.7053
 10
41.0801
 20
12.8428
 10
41.2427
 20
12.9609
 10
41.4188
 20
13.0577
 10
41.6056
 20
13.1317
 10
41.8002
 20
13.1817
 10
41.9995
 20
13.2068
 10
48.0005
 20
13.2068
 10
48.1998
 20
13.1817
 10
48.3944
 20
13.1317
 10
48.5812
 20
13.0577
 10
48.7573
 20
12.9609
 10
48.9199
 20
12.8428
 10
49.0663
 20
12.7053
 10
49.1944
 20
12.5505
 10
49.3021
 20
12.3808
 10
49.3876
 20
12.199
 10
49.4497
 20
12.0079
 10
49.4874
 20
11.8105
 10
49.5
 20
11.61
 10
49.4874
 20
11.4095
 10
49.4497
 20
11.2121
 10
49.3876
 20
11.021
 10
49.3021
 20
10.8392
 10
49.1944
 20
10.6695
 10
49.0663
 20
10.5147
 10
48.9199
 20
10.3772
 10
48.7573
 20
10.2591
 10
48.5812
 20
10.1623
 10
48.3944
 20
10.0883
 10
48.1998
 20
10.0383
 10
48.0005
 20
10.0132
  0
LWPOLYLINE
100
AcDbEntity
  8
0
100
AcDbPolyline
 90
50
 70
1
 10
36.7058
 20
10.113
 10
36.5189
 20
10.1366
 10
36.3365
 20
10.1834
 10
36.1613
 20
10.2528
 10
35.9963
 20
10.3435
 10
35.8439
 20
10.4542
 10
35.7065
 20
10.5832
 10
35.5865
 20
10.7283
 10
35.4855
 20
10.8874
 10
35.4053
 20
11.0578
 10
35.3471
 20
11.237
 10
35.3118
 20
11.422
 10
35.3
 20
11.61
 10
35.3118
 20
11.798
 10
35.3471
 20
11.983
 10
35.4053
 20
12.1622
 10
35.4855
 20
12.3326
 10
35.5865
 20
12.4917
 10
35.7065
 20
12.6368
 10
35.8439
 20
12.7658
 10
35.9963
 20
12.8765
 10
36.1613
 20
12.9672
 10
36.3365
 20
13.0366
 10
36.5189
 20
13.0834
 10
36.7058
 20
13.107
 10
36.8942
 20
13.107
 10
37.0811
 20
13.0834
 10
37.2635
 20
13.0366
 10
37.4387
 20
12.9672
 10
37.6037
 20
12.8765
 10
37.7561
 20
12.7658
 10
37.8935
 20
12.6368
 10
38.0135
 20
12.4917
 10
38.1145
 20
12.3326
 10
38.1947
 20
12.1622
 10
38.2529
 20
11.983
 10
38.2882
 20
11.798
 10
38.3
 20
11.61
 10
38.2882
 20
11.422
 10
38.2529
 20
11.237
 10
38.1947
 20
11.0578
 10
38.1145
 20
10.8874
 10
38.0135
 20
10.7283
 10
37.8935
 20
10.5832
 10
37.7561
 20
10.4542
 10
37.6037
 20
10.3435
 10
37.4387
 20
10.2528
 10
37.2635
 20
10.1834
 10
37.0811
 20
10.1366
 10
36.8942
 20
10.113
  0
LWPOLYLINE
100
AcDbEntity
  8
0
100
AcDbPolyline
 90
50
 70
1
 10
53.1058
 20
10.113
 10
52.9189
 20
10.1366
 10
52.7365
 20
10.1834
 10
52.5613
 20
10.2528
 10
52.3963
 20
10.3435
 10
52.2439
 20
10.4542
 10
52.1065
 20
10.5832
 10
51.9865
 20
10.7283
 10
51.8855
 20
10.8874
 10
51.8053
 20
11.0578
 10
51.7471
 20
11.237
 10
51.7118
 20
11.422
 10
51.7
 20
11.61
 10
51.7118
 20
11.798
 10
51.7471
 20
11.983
 10
51.8053
 20
12.1622
 10
51.8855
 20
12.3326
 10
51.9865
 20
12.4917
 10
52.1065
 20
12.6368
 10
52.2439
 20
12.7658
 10
52.3963
 20
12.8765
 10
52.5613
 20
12.9672
 10
52.7365
 20
13.0366
 10
52.9189
 20
13.0834
 10
53.1058
 20
13.107
 10
53.2942
 20
13.107
 10
53.4811
 20
13.0834
 10
53.6635
 20
13.0366
 10
53.8387
 20
12.9672
 10
54.0037
 20
12.8765
 10
54.1561
 20
12.7658
 10
54.2935
 20
12.6368
 10
54.4135
 20
12.4917
 10
54.5145
 20
12.3326
 10
54.5947
 20
12.1622
 10
54.6529
 20
11.983
 10
54.6882
 20
11.798
 10
54.7
 20
11.61
 10
54.6882
 20
11.422
 10
54.6529
 20
11.237
 10
54.5947
 20
11.0578
 10
54.5145
 20
10.8874
 10
54.4135
 20
10.7283
 10
54.2935
 20
10.5832
 10
54.1561
 20
10.4542
 10
54.0037
 20
10.3435
 10
53.8387
 20
10.2528
 10
53.6635
 20
10.1834
 10
53.4811
 20
10.1366
 10
53.2942
 20
10.113
  0
LWPOLYLINE
100
AcDbEntity
  8
0
100
AcDbPolyline
 90
50
 70
1
 10
7.32151
 20
10.3625
 10
7.16577
 20
10.3821
 10
7.01373
 20
10.4212
 10
6.86778
 20
10.479
 10
6.73022
 20
10.5546
 10
6.60322
 20
10.6469
 10
6.48879
 20
10.7543
 10
6.38873
 20
10.8753
 10
6.30462
 20
11.0078
 10
6.23778
 20
11.1498
 10
6.18927
 20
11.2991
 10
6.15986
 20
11.4533
 10
6.15
 20
11.61
 10
6.15986
 20
11.7667
 10
6.18927
 20
11.9209
 10
6.23778
 20
12.0702
 10
6.30462
 20
12.2122
 10
6.38873
 20
12.3447
 10
6.48879
 20
12.4657
 10
6.60322
 20
12.5731
 10
6.73022
 20
12.6654
 10
6.86778
 20
12.741
 10
7.01373
 20
12.7988
 10
7.16577
 20
12.8379
 10
7.32151
 20
12.8575
 10
7.47849
 20
12.8575
 10
7.63423
 20
12.8379
 10
7.78627
 20
12.7988
 10
7.93222
 20
12.741
 10
8.06978
 20
12.6654
 10
8.19678
 20
12.5731
 10
8.31121
 20
12.4657
 10
8.41127
 20
12.3447
 10
8.49538
 20
12.2122
 10
8.56222
 20
12.0702
 10
8.61073
 20
11.9209
 10
8.64014
 20
11.7667
 10
8.65
 20
11.61
 10
8.64014
 20
11.4533
 10
8.61073
 20
11.2991
 10
8.56222
 20
11.1498
 10
8.49538
 20
11.0078
 10
8.41127
 20
10.8753
 10
8.31121
 20
10.7543
 10
8.19678
 20
10.6469
 10
8.06978
 20
10.5546
 10
7.93222
 20
10.479
 10
7.78627
 20
10.4212
 10
7.63423
 20
10.3821
 10
7.47849
 20
10.3625
  0
LWPOLYLINE
100
AcDbEntity
  8
0
100
AcDbPolyline
 90
50
 70
1
 10
22.5215
 20
10.3625
 10
22.3658
 20
10.3821
 10
22.2137
 20
10.4212
 10
22.0678
 20
10.479
 10
21.9302
 20
10.5546
 10
21.8032
 20
10.6469
 10
21.6888
 20
10.7543
 10
21.5887
 20
10.8753
 10
21.5046
 20
11.0078
 10
21.4378
 20
11.1498
 10
21.3893
 20
11.2991
 10
21.3599
 20
11.4533
 10
21.35
 20
11.61
 10
21.3599
 20
11.7667
 10
21.3893
 20
11.9209
 10
21.4378
 20
12.0702
 10
21.5046
 20
12.2122
 10
21.5887
 20
12.3447
 10
21.6888
 20
12.4657
 10
21.8032
 20
12.5731
 10
21.9302
 20
12.6654
 10
22.0678
 20
12.741
 10
22.2137
 20
12.7988
 10
22.3658
 20
12.8379
 10
22.5215
 20
12.8575
 10
22.6785
 20
12.8575
 10
22.8342
 20
12.8379
 10
22.9863
 20
12.7988
 10
23.1322
 20
12.741
 10
23.2698
 20
12.6654
 10
23.3968
 20
12.5731
 10
23.5112
 20
12.4657
 10
23.6113
 20
12.3447
 10
23.6954
 20
12.2122
 10
23.7622
 20
12.0702
 10
23.8107
 20
11.9209
 10
23.8401
 20
11.7667
 10
23.85
 20
11.61
 10
23.8401
 20
11.4533
 10
23.8107
 20
11.2991
 10
23.7622
 20
11.1498
 10
23.6954
 20
11.0078
 10
23.6113
 20
10.8753
 10
23.5112
 20
10.7543
 10
23.3968
 20
10.6469
 10
23.2698
 20
10.5546
 10
23.1322
 20
10.479
 10
22.9863
 20
10.4212
 10
22.8342
 20
10.3821
 10
22.6785
 20
10.3625
  0
ENDSEC
  0
EOF
