999
DXF from OpenSCAD
  0
SECTION
  2
HEADER
  9
$ACADVER
  1
AC1006
  9
$INSBASE
 10
0.0
 20
0.0
 30
0.0
  9
$EXTMIN
 10
0.0947266
 20
0.395508
  9
$EXTMAX
 10
293.121
 20
106.796
  9
$LINMIN
 10
0.0947266
 20
0.395508
  9
$LINMAX
 10
293.121
 20
106.796
  0
ENDSEC
  0
SECTION
  2
TABLES
  0
TABLE
  2
LTYPE
 70
1
  0
LTYPE
  2
CONTINUOUS
 70
64
  3
Solid line
 72
65
 73
0
 40
0.000000
  0
ENDTAB
  0
TABLE
  2
LAYER
 70
6
  0
LAYER
  2
0
 70
64
 62
7
  6
CONTINUOUS
  0
ENDTAB
  0
TABLE
  2
STYLE
 70
0
  0
ENDTAB
  0
ENDSEC
  0
SECTION
  2
BLOCKS
  0
ENDSEC
  0
SECTION
  2
ENTITIES
  0
LWPOLYLINE
100
AcDbEntity
  8
0
100
AcDbPolyline
 90
84
 70
1
 10
291.277
 20
0.402344
 10
291.433
 20
0.419922
 10
291.587
 20
0.450195
 10
291.739
 20
0.493164
 10
291.887
 20
0.548828
 10
292.028
 20
0.613281
 10
292.166
 20
0.69043
 10
292.297
 20
0.777344
 10
292.42
 20
0.875
 10
292.535
 20
0.981445
 10
292.642
 20
1.09668
 10
292.74
 20
1.21973
 10
292.826
 20
1.35156
 10
292.903
 20
1.48828
 10
292.968
 20
1.62988
 10
293.023
 20
1.77734
 10
293.066
 20
1.92969
 10
293.096
 20
2.08398
 10
293.114
 20
2.23926
 10
293.121
 20
2.39551
 10
293.121
 20
104.796
 10
293.114
 20
104.953
 10
293.096
 20
105.11
 10
293.066
 20
105.263
 10
293.023
 20
105.416
 10
292.968
 20
105.562
 10
292.903
 20
105.704
 10
292.826
 20
105.841
 10
292.74
 20
105.973
 10
292.642
 20
106.095
 10
292.535
 20
106.211
 10
292.42
 20
106.317
 10
292.297
 20
106.415
 10
292.166
 20
106.502
 10
292.028
 20
106.579
 10
291.887
 20
106.644
 10
291.739
 20
106.699
 10
291.587
 20
106.741
 10
291.433
 20
106.772
 10
291.277
 20
106.79
 10
291.12
 20
106.796
 10
2.0957
 20
106.796
 10
1.93848
 20
106.79
 10
1.78223
 20
106.772
 10
1.62891
 20
106.741
 10
1.47559
 20
106.699
 10
1.33008
 20
106.644
 10
1.1875
 20
106.579
 10
1.0498
 20
106.502
 10
0.918945
 20
106.415
 10
0.796875
 20
106.317
 10
0.680664
 20
106.211
 10
0.574219
 20
106.095
 10
0.476562
 20
105.973
 10
0.389648
 20
105.841
 10
0.3125
 20
105.704
 10
0.248047
 20
105.562
 10
0.193359
 20
105.416
 10
0.150391
 20
105.263
 10
0.120117
 20
105.11
 10
0.101562
 20
104.953
 10
0.0947266
 20
104.796
 10
0.0947266
 20
2.39551
 10
0.101562
 20
2.23926
 10
0.120117
 20
2.08398
 10
0.150391
 20
1.92969
 10
0.193359
 20
1.77734
 10
0.248047
 20
1.62988
 10
0.3125
 20
1.48828
 10
0.389648
 20
1.35156
 10
0.476562
 20
1.21973
 10
0.574219
 20
1.09668
 10
0.680664
 20
0.981445
 10
0.796875
 20
0.875
 10
0.918945
 20
0.777344
 10
1.0498
 20
0.69043
 10
1.1875
 20
0.613281
 10
1.33008
 20
0.548828
 10
1.47559
 20
0.493164
 10
1.62891
 20
0.450195
 10
1.78223
 20
0.419922
 10
1.93848
 20
0.402344
 10
2.0957
 20
0.395508
 10
291.12
 20
0.395508
  0
LWPOLYLINE
100
AcDbEntity
  8
0
100
AcDbPolyline
 90
50
 70
1
 10
3.92151
 20
101.154
 10
3.76577
 20
101.174
 10
3.61373
 20
101.213
 10
3.46778
 20
101.271
 10
3.33022
 20
101.347
 10
3.20322
 20
101.439
 10
3.08879
 20
101.546
 10
2.98873
 20
101.667
 10
2.90462
 20
101.8
 10
2.83778
 20
101.942
 10
2.78927
 20
102.091
 10
2.75986
 20
102.245
 10
2.75
 20
102.402
 10
2.75986
 20
102.559
 10
2.78927
 20
102.713
 10
2.83778
 20
102.862
 10
2.90462
 20
103.004
 10
2.98873
 20
103.137
 10
3.08879
 20
103.258
 10
3.20322
 20
103.365
 10
3.33022
 20
103.457
 10
3.46778
 20
103.533
 10
3.61373
 20
103.591
 10
3.76577
 20
103.63
 10
3.92151
 20
103.65
 10
4.07849
 20
103.65
 10
4.23423
 20
103.63
 10
4.38627
 20
103.591
 10
4.53222
 20
103.533
 10
4.66978
 20
103.457
 10
4.79678
 20
103.365
 10
4.91121
 20
103.258
 10
5.01127
 20
103.137
 10
5.09538
 20
103.004
 10
5.16222
 20
102.862
 10
5.21073
 20
102.713
 10
5.24014
 20
102.559
 10
5.25
 20
102.402
 10
5.24014
 20
102.245
 10
5.21073
 20
102.091
 10
5.16222
 20
101.942
 10
5.09538
 20
101.8
 10
5.01127
 20
101.667
 10
4.91121
 20
101.546
 10
4.79678
 20
101.439
 10
4.66978
 20
101.347
 10
4.53222
 20
101.271
 10
4.38627
 20
101.213
 10
4.23423
 20
101.174
 10
4.07849
 20
101.154
  0
LWPOLYLINE
100
AcDbEntity
  8
0
100
AcDbPolyline
 90
50
 70
1
 10
146.435
 20
101.154
 10
146.279
 20
101.174
 10
146.127
 20
101.213
 10
145.981
 20
101.271
 10
145.844
 20
101.347
 10
145.717
 20
101.439
 10
145.602
 20
101.546
 10
145.502
 20
101.667
 10
145.418
 20
101.8
 10
145.351
 20
101.942
 10
145.303
 20
102.091
 10
145.273
 20
102.245
 10
145.263
 20
102.402
 10
145.273
 20
102.559
 10
145.303
 20
102.713
 10
145.351
 20
102.862
 10
145.418
 20
103.004
 10
145.502
 20
103.137
 10
145.602
 20
103.258
 10
145.717
 20
103.365
 10
145.844
 20
103.457
 10
145.981
 20
103.533
 10
146.127
 20
103.591
 10
146.279
 20
103.63
 10
146.435
 20
103.65
 10
146.592
 20
103.65
 10
146.748
 20
103.63
 10
146.9
 20
103.591
 10
147.046
 20
103.533
 10
147.183
 20
103.457
 10
147.31
 20
103.365
 10
147.425
 20
103.258
 10
147.525
 20
103.137
 10
147.609
 20
103.004
 10
147.676
 20
102.862
 10
147.724
 20
102.713
 10
147.754
 20
102.559
 10
147.763
 20
102.402
 10
147.754
 20
102.245
 10
147.724
 20
102.091
 10
147.676
 20
101.942
 10
147.609
 20
101.8
 10
147.525
 20
101.667
 10
147.425
 20
101.546
 10
147.31
 20
101.439
 10
147.183
 20
101.347
 10
147.046
 20
101.271
 10
146.9
 20
101.213
 10
146.748
 20
101.174
 10
146.592
 20
101.154
  0
LWPOLYLINE
100
AcDbEntity
  8
0
100
AcDbPolyline
 90
50
 70
1
 10
288.949
 20
101.154
 10
288.793
 20
101.174
 10
288.641
 20
101.213
 10
288.495
 20
101.271
 10
288.357
 20
101.347
 10
288.23
 20
101.439
 10
288.116
 20
101.546
 10
288.016
 20
101.667
 10
287.932
 20
101.8
 10
287.865
 20
101.942
 10
287.816
 20
102.091
 10
287.787
 20
102.245
 10
287.777
 20
102.402
 10
287.787
 20
102.559
 10
287.816
 20
102.713
 10
287.865
 20
102.862
 10
287.932
 20
103.004
 10
288.016
 20
103.137
 10
288.116
 20
103.258
 10
288.23
 20
103.365
 10
288.357
 20
103.457
 10
288.495
 20
103.533
 10
288.641
 20
103.591
 10
288.793
 20
103.63
 10
288.949
 20
103.65
 10
289.105
 20
103.65
 10
289.261
 20
103.63
 10
289.413
 20
103.591
 10
289.559
 20
103.533
 10
289.697
 20
103.457
 10
289.824
 20
103.365
 10
289.938
 20
103.258
 10
290.038
 20
103.137
 10
290.122
 20
103.004
 10
290.189
 20
102.862
 10
290.238
 20
102.713
 10
290.267
 20
102.559
 10
290.277
 20
102.402
 10
290.267
 20
102.245
 10
290.238
 20
102.091
 10
290.189
 20
101.942
 10
290.122
 20
101.8
 10
290.038
 20
101.667
 10
289.938
 20
101.546
 10
289.824
 20
101.439
 10
289.697
 20
101.347
 10
289.559
 20
101.271
 10
289.413
 20
101.213
 10
289.261
 20
101.174
 10
289.105
 20
101.154
  0
LWPOLYLINE
100
AcDbEntity
  8
0
100
AcDbPolyline
 90
4
 70
1
 10
10.1699
 20
78.2207
 10
10.1699
 20
96.7217
 10
250.672
 20
96.7217
 10
250.672
 20
78.2207
  0
LWPOLYLINE
100
AcDbEntity
  8
0
100
AcDbPolyline
 90
4
 70
1
 10
255.294
 20
78.2207
 10
255.294
 20
96.7217
 10
283.045
 20
96.7217
 10
283.045
 20
78.2207
  0
LWPOLYLINE
100
AcDbEntity
  8
0
100
AcDbPolyline
 90
4
 70
1
 10
10.1699
 20
50.4707
 10
10.1699
 20
68.9727
 10
65.6719
 20
68.9727
 10
65.6719
 20
50.4707
  0
LWPOLYLINE
100
AcDbEntity
  8
0
100
AcDbPolyline
 90
4
 70
1
 10
70.2949
 20
50.4707
 10
70.2949
 20
68.9727
 10
144.297
 20
68.9727
 10
144.297
 20
50.4707
  0
LWPOLYLINE
100
AcDbEntity
  8
0
100
AcDbPolyline
 90
4
 70
1
 10
148.919
 20
50.4707
 10
148.919
 20
68.9727
 10
185.922
 20
68.9727
 10
185.922
 20
50.4707
  0
LWPOLYLINE
100
AcDbEntity
  8
0
100
AcDbPolyline
 90
4
 70
1
 10
190.544
 20
50.4707
 10
190.544
 20
68.9727
 10
283.045
 20
68.9727
 10
283.045
 20
50.4707
  0
LWPOLYLINE
100
AcDbEntity
  8
0
100
AcDbPolyline
 90
50
 70
1
 10
3.92151
 20
2.75247
 10
3.76577
 20
2.77214
 10
3.61373
 20
2.81118
 10
3.46778
 20
2.86897
 10
3.33022
 20
2.94459
 10
3.20322
 20
3.03686
 10
3.08879
 20
3.14432
 10
2.98873
 20
3.26527
 10
2.90462
 20
3.39781
 10
2.83778
 20
3.53984
 10
2.78927
 20
3.68914
 10
2.75986
 20
3.84333
 10
2.75
 20
4
 10
2.75986
 20
4.15667
 10
2.78927
 20
4.31086
 10
2.83778
 20
4.46016
 10
2.90462
 20
4.60219
 10
2.98873
 20
4.73473
 10
3.08879
 20
4.85568
 10
3.20322
 20
4.96314
 10
3.33022
 20
5.05541
 10
3.46778
 20
5.13103
 10
3.61373
 20
5.18882
 10
3.76577
 20
5.22786
 10
3.92151
 20
5.24753
 10
4.07849
 20
5.24753
 10
4.23423
 20
5.22786
 10
4.38627
 20
5.18882
 10
4.53222
 20
5.13103
 10
4.66978
 20
5.05541
 10
4.79678
 20
4.96314
 10
4.91121
 20
4.85568
 10
5.01127
 20
4.73473
 10
5.09538
 20
4.60219
 10
5.16222
 20
4.46016
 10
5.21073
 20
4.31086
 10
5.24014
 20
4.15667
 10
5.25
 20
4
 10
5.24014
 20
3.84333
 10
5.21073
 20
3.68914
 10
5.16222
 20
3.53984
 10
5.09538
 20
3.39781
 10
5.01127
 20
3.26527
 10
4.91121
 20
3.14432
 10
4.79678
 20
3.03686
 10
4.66978
 20
2.94459
 10
4.53222
 20
2.86897
 10
4.38627
 20
2.81118
 10
4.23423
 20
2.77214
 10
4.07849
 20
2.75247
  0
LWPOLYLINE
100
AcDbEntity
  8
0
100
AcDbPolyline
 90
50
 70
1
 10
146.435
 20
2.75247
 10
146.279
 20
2.77214
 10
146.127
 20
2.81118
 10
145.981
 20
2.86897
 10
145.844
 20
2.94459
 10
145.717
 20
3.03686
 10
145.602
 20
3.14432
 10
145.502
 20
3.26527
 10
145.418
 20
3.39781
 10
145.351
 20
3.53984
 10
145.303
 20
3.68914
 10
145.273
 20
3.84333
 10
145.263
 20
4
 10
145.273
 20
4.15667
 10
145.303
 20
4.31086
 10
145.351
 20
4.46016
 10
145.418
 20
4.60219
 10
145.502
 20
4.73473
 10
145.602
 20
4.85568
 10
145.717
 20
4.96314
 10
145.844
 20
5.05541
 10
145.981
 20
5.13103
 10
146.127
 20
5.18882
 10
146.279
 20
5.22786
 10
146.435
 20
5.24753
 10
146.592
 20
5.24753
 10
146.748
 20
5.22786
 10
146.9
 20
5.18882
 10
147.046
 20
5.13103
 10
147.183
 20
5.05541
 10
147.31
 20
4.96314
 10
147.425
 20
4.85568
 10
147.525
 20
4.73473
 10
147.609
 20
4.60219
 10
147.676
 20
4.46016
 10
147.724
 20
4.31086
 10
147.754
 20
4.15667
 10
147.763
 20
4
 10
147.754
 20
3.84333
 10
147.724
 20
3.68914
 10
147.676
 20
3.53984
 10
147.609
 20
3.39781
 10
147.525
 20
3.26527
 10
147.425
 20
3.14432
 10
147.31
 20
3.03686
 10
147.183
 20
2.94459
 10
147.046
 20
2.86897
 10
146.9
 20
2.81118
 10
146.748
 20
2.77214
 10
146.592
 20
2.75247
  0
LWPOLYLINE
100
AcDbEntity
  8
0
100
AcDbPolyline
 90
50
 70
1
 10
288.949
 20
2.75247
 10
288.793
 20
2.77214
 10
288.641
 20
2.81118
 10
288.495
 20
2.86897
 10
288.357
 20
2.94459
 10
288.23
 20
3.03686
 10
288.116
 20
3.14432
 10
288.016
 20
3.26527
 10
287.932
 20
3.39781
 10
287.865
 20
3.53984
 10
287.816
 20
3.68914
 10
287.787
 20
3.84333
 10
287.777
 20
4
 10
287.787
 20
4.15667
 10
287.816
 20
4.31086
 10
287.865
 20
4.46016
 10
287.932
 20
4.60219
 10
288.016
 20
4.73473
 10
288.116
 20
4.85568
 10
288.23
 20
4.96314
 10
288.357
 20
5.05541
 10
288.495
 20
5.13103
 10
288.641
 20
5.18882
 10
288.793
 20
5.22786
 10
288.949
 20
5.24753
 10
289.105
 20
5.24753
 10
289.261
 20
5.22786
 10
289.413
 20
5.18882
 10
289.559
 20
5.13103
 10
289.697
 20
5.05541
 10
289.824
 20
4.96314
 10
289.938
 20
4.85568
 10
290.038
 20
4.73473
 10
290.122
 20
4.60219
 10
290.189
 20
4.46016
 10
290.238
 20
4.31086
 10
290.267
 20
4.15667
 10
290.277
 20
4
 10
290.267
 20
3.84333
 10
290.238
 20
3.68914
 10
290.189
 20
3.53984
 10
290.122
 20
3.39781
 10
290.038
 20
3.26527
 10
289.938
 20
3.14432
 10
289.824
 20
3.03686
 10
289.697
 20
2.94459
 10
289.559
 20
2.86897
 10
289.413
 20
2.81118
 10
289.261
 20
2.77214
 10
289.105
 20
2.75247
  0
ENDSEC
  0
EOF
