999
DXF from OpenSCAD
  0
SECTION
  2
HEADER
  9
$ACADVER
  1
AC1006
  9
$INSBASE
 10
0.0
 20
0.0
 30
0.0
  9
$EXTMIN
 10
0.0947266
 20
0.356445
  9
$EXTMAX
 10
293.121
 20
111.383
  9
$LINMIN
 10
0.0947266
 20
0.356445
  9
$LINMAX
 10
293.121
 20
111.383
  0
ENDSEC
  0
SECTION
  2
TABLES
  0
TABLE
  2
LTYPE
 70
1
  0
LTYPE
  2
CONTINUOUS
 70
64
  3
Solid line
 72
65
 73
0
 40
0.000000
  0
ENDTAB
  0
TABLE
  2
LAYER
 70
6
  0
LAYER
  2
0
 70
64
 62
7
  6
CONTINUOUS
  0
ENDTAB
  0
TABLE
  2
STYLE
 70
0
  0
ENDTAB
  0
ENDSEC
  0
SECTION
  2
BLOCKS
  0
ENDSEC
  0
SECTION
  2
ENTITIES
  0
LWPOLYLINE
100
AcDbEntity
  8
0
100
AcDbPolyline
 90
84
 70
1
 10
291.277
 20
0.364258
 10
291.433
 20
0.381836
 10
291.587
 20
0.412109
 10
291.739
 20
0.455078
 10
291.887
 20
0.509766
 10
292.028
 20
0.574219
 10
292.166
 20
0.651367
 10
292.297
 20
0.738281
 10
292.42
 20
0.836914
 10
292.535
 20
0.942383
 10
292.642
 20
1.05859
 10
292.74
 20
1.18066
 10
292.826
 20
1.31152
 10
292.903
 20
1.44922
 10
292.968
 20
1.5918
 10
293.023
 20
1.7373
 10
293.066
 20
1.89062
 10
293.096
 20
2.04395
 10
293.114
 20
2.20117
 10
293.121
 20
2.35645
 10
293.121
 20
109.382
 10
293.114
 20
109.539
 10
293.096
 20
109.696
 10
293.066
 20
109.849
 10
293.023
 20
110.002
 10
292.968
 20
110.148
 10
292.903
 20
110.29
 10
292.826
 20
110.428
 10
292.74
 20
110.559
 10
292.642
 20
110.681
 10
292.535
 20
110.797
 10
292.42
 20
110.903
 10
292.297
 20
111.001
 10
292.166
 20
111.088
 10
292.028
 20
111.165
 10
291.887
 20
111.23
 10
291.739
 20
111.285
 10
291.587
 20
111.327
 10
291.433
 20
111.358
 10
291.277
 20
111.376
 10
291.12
 20
111.383
 10
2.0957
 20
111.383
 10
1.93848
 20
111.376
 10
1.78223
 20
111.358
 10
1.62891
 20
111.327
 10
1.47559
 20
111.285
 10
1.33008
 20
111.23
 10
1.1875
 20
111.165
 10
1.0498
 20
111.088
 10
0.918945
 20
111.001
 10
0.796875
 20
110.903
 10
0.680664
 20
110.797
 10
0.574219
 20
110.681
 10
0.476562
 20
110.559
 10
0.389648
 20
110.428
 10
0.3125
 20
110.29
 10
0.248047
 20
110.148
 10
0.193359
 20
110.002
 10
0.150391
 20
109.849
 10
0.120117
 20
109.696
 10
0.101562
 20
109.539
 10
0.0947266
 20
109.382
 10
0.0947266
 20
2.35645
 10
0.101562
 20
2.20117
 10
0.120117
 20
2.04395
 10
0.150391
 20
1.89062
 10
0.193359
 20
1.7373
 10
0.248047
 20
1.5918
 10
0.3125
 20
1.44922
 10
0.389648
 20
1.31152
 10
0.476562
 20
1.18066
 10
0.574219
 20
1.05859
 10
0.680664
 20
0.942383
 10
0.796875
 20
0.836914
 10
0.918945
 20
0.738281
 10
1.0498
 20
0.651367
 10
1.1875
 20
0.574219
 10
1.33008
 20
0.509766
 10
1.47559
 20
0.455078
 10
1.62891
 20
0.412109
 10
1.78223
 20
0.381836
 10
1.93848
 20
0.364258
 10
2.0957
 20
0.356445
 10
291.12
 20
0.356445
  0
LWPOLYLINE
100
AcDbEntity
  8
0
100
AcDbPolyline
 90
50
 70
1
 10
3.92151
 20
105.779
 10
3.76577
 20
105.799
 10
3.61373
 20
105.838
 10
3.46778
 20
105.896
 10
3.33022
 20
105.972
 10
3.20322
 20
106.064
 10
3.08879
 20
106.171
 10
2.98873
 20
106.292
 10
2.90462
 20
106.425
 10
2.83778
 20
106.567
 10
2.78927
 20
106.716
 10
2.75986
 20
106.87
 10
2.75
 20
107.027
 10
2.75986
 20
107.184
 10
2.78927
 20
107.338
 10
2.83778
 20
107.487
 10
2.90462
 20
107.629
 10
2.98873
 20
107.762
 10
3.08879
 20
107.883
 10
3.20322
 20
107.99
 10
3.33022
 20
108.082
 10
3.46778
 20
108.158
 10
3.61373
 20
108.216
 10
3.76577
 20
108.255
 10
3.92151
 20
108.275
 10
4.07849
 20
108.275
 10
4.23423
 20
108.255
 10
4.38627
 20
108.216
 10
4.53222
 20
108.158
 10
4.66978
 20
108.082
 10
4.79678
 20
107.99
 10
4.91121
 20
107.883
 10
5.01127
 20
107.762
 10
5.09538
 20
107.629
 10
5.16222
 20
107.487
 10
5.21073
 20
107.338
 10
5.24014
 20
107.184
 10
5.25
 20
107.027
 10
5.24014
 20
106.87
 10
5.21073
 20
106.716
 10
5.16222
 20
106.567
 10
5.09538
 20
106.425
 10
5.01127
 20
106.292
 10
4.91121
 20
106.171
 10
4.79678
 20
106.064
 10
4.66978
 20
105.972
 10
4.53222
 20
105.896
 10
4.38627
 20
105.838
 10
4.23423
 20
105.799
 10
4.07849
 20
105.779
  0
LWPOLYLINE
100
AcDbEntity
  8
0
100
AcDbPolyline
 90
50
 70
1
 10
146.435
 20
105.779
 10
146.279
 20
105.799
 10
146.127
 20
105.838
 10
145.981
 20
105.896
 10
145.844
 20
105.972
 10
145.717
 20
106.064
 10
145.602
 20
106.171
 10
145.502
 20
106.292
 10
145.418
 20
106.425
 10
145.351
 20
106.567
 10
145.303
 20
106.716
 10
145.273
 20
106.87
 10
145.263
 20
107.027
 10
145.273
 20
107.184
 10
145.303
 20
107.338
 10
145.351
 20
107.487
 10
145.418
 20
107.629
 10
145.502
 20
107.762
 10
145.602
 20
107.883
 10
145.717
 20
107.99
 10
145.844
 20
108.082
 10
145.981
 20
108.158
 10
146.127
 20
108.216
 10
146.279
 20
108.255
 10
146.435
 20
108.275
 10
146.592
 20
108.275
 10
146.748
 20
108.255
 10
146.9
 20
108.216
 10
147.046
 20
108.158
 10
147.183
 20
108.082
 10
147.31
 20
107.99
 10
147.425
 20
107.883
 10
147.525
 20
107.762
 10
147.609
 20
107.629
 10
147.676
 20
107.487
 10
147.724
 20
107.338
 10
147.754
 20
107.184
 10
147.763
 20
107.027
 10
147.754
 20
106.87
 10
147.724
 20
106.716
 10
147.676
 20
106.567
 10
147.609
 20
106.425
 10
147.525
 20
106.292
 10
147.425
 20
106.171
 10
147.31
 20
106.064
 10
147.183
 20
105.972
 10
147.046
 20
105.896
 10
146.9
 20
105.838
 10
146.748
 20
105.799
 10
146.592
 20
105.779
  0
LWPOLYLINE
100
AcDbEntity
  8
0
100
AcDbPolyline
 90
50
 70
1
 10
288.949
 20
105.779
 10
288.793
 20
105.799
 10
288.641
 20
105.838
 10
288.495
 20
105.896
 10
288.357
 20
105.972
 10
288.23
 20
106.064
 10
288.116
 20
106.171
 10
288.016
 20
106.292
 10
287.932
 20
106.425
 10
287.865
 20
106.567
 10
287.816
 20
106.716
 10
287.787
 20
106.87
 10
287.777
 20
107.027
 10
287.787
 20
107.184
 10
287.816
 20
107.338
 10
287.865
 20
107.487
 10
287.932
 20
107.629
 10
288.016
 20
107.762
 10
288.116
 20
107.883
 10
288.23
 20
107.99
 10
288.357
 20
108.082
 10
288.495
 20
108.158
 10
288.641
 20
108.216
 10
288.793
 20
108.255
 10
288.949
 20
108.275
 10
289.105
 20
108.275
 10
289.261
 20
108.255
 10
289.413
 20
108.216
 10
289.559
 20
108.158
 10
289.697
 20
108.082
 10
289.824
 20
107.99
 10
289.938
 20
107.883
 10
290.038
 20
107.762
 10
290.122
 20
107.629
 10
290.189
 20
107.487
 10
290.238
 20
107.338
 10
290.267
 20
107.184
 10
290.277
 20
107.027
 10
290.267
 20
106.87
 10
290.238
 20
106.716
 10
290.189
 20
106.567
 10
290.122
 20
106.425
 10
290.038
 20
106.292
 10
289.938
 20
106.171
 10
289.824
 20
106.064
 10
289.697
 20
105.972
 10
289.559
 20
105.896
 10
289.413
 20
105.838
 10
289.261
 20
105.799
 10
289.105
 20
105.779
  0
LWPOLYLINE
100
AcDbEntity
  8
0
100
AcDbPolyline
 90
4
 70
1
 10
250.527
 20
106.027
 10
250.527
 20
107.627
 10
270.527
 20
107.627
 10
270.527
 20
106.027
  0
LWPOLYLINE
100
AcDbEntity
  8
0
100
AcDbPolyline
 90
4
 70
1
 10
210.527
 20
106.027
 10
210.527
 20
107.627
 10
230.527
 20
107.627
 10
230.527
 20
106.027
  0
LWPOLYLINE
100
AcDbEntity
  8
0
100
AcDbPolyline
 90
4
 70
1
 10
12.4961
 20
85.1318
 10
12.4961
 20
98.9814
 10
26.3457
 20
98.9814
 10
26.3457
 20
85.1318
  0
LWPOLYLINE
100
AcDbEntity
  8
0
100
AcDbPolyline
 90
4
 70
1
 10
30.9951
 20
85.1318
 10
30.9951
 20
98.9814
 10
44.8457
 20
98.9814
 10
44.8457
 20
85.1318
  0
LWPOLYLINE
100
AcDbEntity
  8
0
100
AcDbPolyline
 90
4
 70
1
 10
49.4951
 20
85.1318
 10
49.4951
 20
98.9814
 10
63.3457
 20
98.9814
 10
63.3457
 20
85.1318
  0
LWPOLYLINE
100
AcDbEntity
  8
0
100
AcDbPolyline
 90
4
 70
1
 10
67.9951
 20
85.1318
 10
67.9951
 20
98.9814
 10
81.8457
 20
98.9814
 10
81.8457
 20
85.1318
  0
LWPOLYLINE
100
AcDbEntity
  8
0
100
AcDbPolyline
 90
4
 70
1
 10
86.4951
 20
85.1318
 10
86.4951
 20
98.9814
 10
100.346
 20
98.9814
 10
100.346
 20
85.1318
  0
LWPOLYLINE
100
AcDbEntity
  8
0
100
AcDbPolyline
 90
4
 70
1
 10
104.995
 20
85.1318
 10
104.995
 20
98.9814
 10
118.846
 20
98.9814
 10
118.846
 20
85.1318
  0
LWPOLYLINE
100
AcDbEntity
  8
0
100
AcDbPolyline
 90
4
 70
1
 10
123.494
 20
85.1318
 10
123.494
 20
98.9814
 10
137.345
 20
98.9814
 10
137.345
 20
85.1318
  0
LWPOLYLINE
100
AcDbEntity
  8
0
100
AcDbPolyline
 90
4
 70
1
 10
141.994
 20
85.1318
 10
141.994
 20
98.9814
 10
155.845
 20
98.9814
 10
155.845
 20
85.1318
  0
LWPOLYLINE
100
AcDbEntity
  8
0
100
AcDbPolyline
 90
4
 70
1
 10
160.494
 20
85.1318
 10
160.494
 20
98.9814
 10
174.345
 20
98.9814
 10
174.345
 20
85.1318
  0
LWPOLYLINE
100
AcDbEntity
  8
0
100
AcDbPolyline
 90
4
 70
1
 10
178.995
 20
85.1318
 10
178.995
 20
98.9814
 10
192.845
 20
98.9814
 10
192.845
 20
85.1318
  0
LWPOLYLINE
100
AcDbEntity
  8
0
100
AcDbPolyline
 90
4
 70
1
 10
197.495
 20
85.1318
 10
197.495
 20
98.9814
 10
211.346
 20
98.9814
 10
211.346
 20
85.1318
  0
LWPOLYLINE
100
AcDbEntity
  8
0
100
AcDbPolyline
 90
4
 70
1
 10
215.995
 20
85.1318
 10
215.995
 20
98.9814
 10
229.846
 20
98.9814
 10
229.846
 20
85.1318
  0
LWPOLYLINE
100
AcDbEntity
  8
0
100
AcDbPolyline
 90
4
 70
1
 10
234.494
 20
85.1318
 10
234.494
 20
98.9814
 10
248.346
 20
98.9814
 10
248.346
 20
85.1318
  0
LWPOLYLINE
100
AcDbEntity
  8
0
100
AcDbPolyline
 90
4
 70
1
 10
262.246
 20
85.1318
 10
262.246
 20
98.9814
 10
276.096
 20
98.9814
 10
276.096
 20
85.1318
  0
LWPOLYLINE
100
AcDbEntity
  8
0
100
AcDbPolyline
 90
4
 70
1
 10
12.4961
 20
52.7568
 10
12.4961
 20
66.6074
 10
26.3457
 20
66.6074
 10
26.3457
 20
52.7568
  0
LWPOLYLINE
100
AcDbEntity
  8
0
100
AcDbPolyline
 90
4
 70
1
 10
30.9951
 20
52.7568
 10
30.9951
 20
66.6074
 10
44.8457
 20
66.6074
 10
44.8457
 20
52.7568
  0
LWPOLYLINE
100
AcDbEntity
  8
0
100
AcDbPolyline
 90
4
 70
1
 10
49.4951
 20
52.7568
 10
49.4951
 20
66.6074
 10
63.3457
 20
66.6074
 10
63.3457
 20
52.7568
  0
LWPOLYLINE
100
AcDbEntity
  8
0
100
AcDbPolyline
 90
4
 70
1
 10
72.6201
 20
52.7568
 10
72.6201
 20
66.6074
 10
86.4707
 20
66.6074
 10
86.4707
 20
52.7568
  0
LWPOLYLINE
100
AcDbEntity
  8
0
100
AcDbPolyline
 90
4
 70
1
 10
91.1201
 20
52.7568
 10
91.1201
 20
66.6074
 10
104.971
 20
66.6074
 10
104.971
 20
52.7568
  0
LWPOLYLINE
100
AcDbEntity
  8
0
100
AcDbPolyline
 90
4
 70
1
 10
109.62
 20
52.7568
 10
109.62
 20
66.6074
 10
123.471
 20
66.6074
 10
123.471
 20
52.7568
  0
LWPOLYLINE
100
AcDbEntity
  8
0
100
AcDbPolyline
 90
4
 70
1
 10
128.119
 20
52.7568
 10
128.119
 20
66.6074
 10
141.971
 20
66.6074
 10
141.971
 20
52.7568
  0
LWPOLYLINE
100
AcDbEntity
  8
0
100
AcDbPolyline
 90
4
 70
1
 10
151.244
 20
52.7568
 10
151.244
 20
66.6074
 10
165.096
 20
66.6074
 10
165.096
 20
52.7568
  0
LWPOLYLINE
100
AcDbEntity
  8
0
100
AcDbPolyline
 90
4
 70
1
 10
169.744
 20
52.7568
 10
169.744
 20
66.6074
 10
183.596
 20
66.6074
 10
183.596
 20
52.7568
  0
LWPOLYLINE
100
AcDbEntity
  8
0
100
AcDbPolyline
 90
4
 70
1
 10
192.869
 20
52.7568
 10
192.869
 20
66.6074
 10
206.721
 20
66.6074
 10
206.721
 20
52.7568
  0
LWPOLYLINE
100
AcDbEntity
  8
0
100
AcDbPolyline
 90
4
 70
1
 10
211.369
 20
52.7568
 10
211.369
 20
66.6074
 10
225.221
 20
66.6074
 10
225.221
 20
52.7568
  0
LWPOLYLINE
100
AcDbEntity
  8
0
100
AcDbPolyline
 90
4
 70
1
 10
229.869
 20
52.7568
 10
229.869
 20
66.6074
 10
243.72
 20
66.6074
 10
243.72
 20
52.7568
  0
LWPOLYLINE
100
AcDbEntity
  8
0
100
AcDbPolyline
 90
4
 70
1
 10
248.369
 20
52.7568
 10
248.369
 20
66.6074
 10
262.22
 20
66.6074
 10
262.22
 20
52.7568
  0
LWPOLYLINE
100
AcDbEntity
  8
0
100
AcDbPolyline
 90
4
 70
1
 10
266.871
 20
52.7568
 10
266.871
 20
66.6074
 10
280.72
 20
66.6074
 10
280.72
 20
52.7568
  0
LWPOLYLINE
100
AcDbEntity
  8
0
100
AcDbPolyline
 90
30
 70
1
 10
122.904
 20
32.4125
 10
122.689
 20
32.4581
 10
122.489
 20
32.5474
 10
122.311
 20
32.6764
 10
122.164
 20
32.8396
 10
122.054
 20
33.0297
 10
121.986
 20
33.2384
 10
121.964
 20
33.4567
 10
121.986
 20
33.6751
 10
122.054
 20
33.8838
 10
122.164
 20
34.0739
 10
122.311
 20
34.2371
 10
122.489
 20
34.3661
 10
122.689
 20
34.4554
 10
122.904
 20
34.501
 10
123.123
 20
34.501
 10
123.338
 20
34.4554
 10
123.538
 20
34.3661
 10
123.716
 20
34.2371
 10
123.863
 20
34.0739
 10
123.973
 20
33.8838
 10
124.041
 20
33.6751
 10
124.063
 20
33.4567
 10
124.041
 20
33.2384
 10
123.973
 20
33.0297
 10
123.863
 20
32.8396
 10
123.716
 20
32.6764
 10
123.538
 20
32.5474
 10
123.338
 20
32.4581
 10
123.123
 20
32.4125
  0
LWPOLYLINE
100
AcDbEntity
  8
0
100
AcDbPolyline
 90
30
 70
1
 10
169.904
 20
32.4125
 10
169.689
 20
32.4581
 10
169.488
 20
32.5474
 10
169.311
 20
32.6764
 10
169.164
 20
32.8396
 10
169.054
 20
33.0297
 10
168.986
 20
33.2384
 10
168.964
 20
33.4567
 10
168.986
 20
33.6751
 10
169.054
 20
33.8838
 10
169.164
 20
34.0739
 10
169.311
 20
34.2371
 10
169.488
 20
34.3661
 10
169.689
 20
34.4554
 10
169.904
 20
34.501
 10
170.123
 20
34.501
 10
170.338
 20
34.4554
 10
170.538
 20
34.3661
 10
170.716
 20
34.2371
 10
170.863
 20
34.0739
 10
170.973
 20
33.8838
 10
171.041
 20
33.6751
 10
171.063
 20
33.4567
 10
171.041
 20
33.2384
 10
170.973
 20
33.0297
 10
170.863
 20
32.8396
 10
170.716
 20
32.6764
 10
170.538
 20
32.5474
 10
170.338
 20
32.4581
 10
170.123
 20
32.4125
  0
LWPOLYLINE
100
AcDbEntity
  8
0
100
AcDbPolyline
 90
30
 70
1
 10
122.904
 20
21.0125
 10
122.689
 20
21.0581
 10
122.489
 20
21.1474
 10
122.311
 20
21.2764
 10
122.164
 20
21.4396
 10
122.054
 20
21.6297
 10
121.986
 20
21.8384
 10
121.964
 20
22.0567
 10
121.986
 20
22.2751
 10
122.054
 20
22.4838
 10
122.164
 20
22.6739
 10
122.311
 20
22.8371
 10
122.489
 20
22.9661
 10
122.689
 20
23.0554
 10
122.904
 20
23.101
 10
123.123
 20
23.101
 10
123.338
 20
23.0554
 10
123.538
 20
22.9661
 10
123.716
 20
22.8371
 10
123.863
 20
22.6739
 10
123.973
 20
22.4838
 10
124.041
 20
22.2751
 10
124.063
 20
22.0567
 10
124.041
 20
21.8384
 10
123.973
 20
21.6297
 10
123.863
 20
21.4396
 10
123.716
 20
21.2764
 10
123.538
 20
21.1474
 10
123.338
 20
21.0581
 10
123.123
 20
21.0125
  0
LWPOLYLINE
100
AcDbEntity
  8
0
100
AcDbPolyline
 90
30
 70
1
 10
169.904
 20
21.0125
 10
169.689
 20
21.0581
 10
169.488
 20
21.1474
 10
169.311
 20
21.2764
 10
169.164
 20
21.4396
 10
169.054
 20
21.6297
 10
168.986
 20
21.8384
 10
168.964
 20
22.0567
 10
168.986
 20
22.2751
 10
169.054
 20
22.4838
 10
169.164
 20
22.6739
 10
169.311
 20
22.8371
 10
169.488
 20
22.9661
 10
169.689
 20
23.0554
 10
169.904
 20
23.101
 10
170.123
 20
23.101
 10
170.338
 20
23.0554
 10
170.538
 20
22.9661
 10
170.716
 20
22.8371
 10
170.863
 20
22.6739
 10
170.973
 20
22.4838
 10
171.041
 20
22.2751
 10
171.063
 20
22.0567
 10
171.041
 20
21.8384
 10
170.973
 20
21.6297
 10
170.863
 20
21.4396
 10
170.716
 20
21.2764
 10
170.538
 20
21.1474
 10
170.338
 20
21.0581
 10
170.123
 20
21.0125
  0
LWPOLYLINE
100
AcDbEntity
  8
0
100
AcDbPolyline
 90
50
 70
1
 10
3.92151
 20
2.75247
 10
3.76577
 20
2.77214
 10
3.61373
 20
2.81118
 10
3.46778
 20
2.86897
 10
3.33022
 20
2.94459
 10
3.20322
 20
3.03686
 10
3.08879
 20
3.14432
 10
2.98873
 20
3.26527
 10
2.90462
 20
3.39781
 10
2.83778
 20
3.53984
 10
2.78927
 20
3.68914
 10
2.75986
 20
3.84333
 10
2.75
 20
4
 10
2.75986
 20
4.15667
 10
2.78927
 20
4.31086
 10
2.83778
 20
4.46016
 10
2.90462
 20
4.60219
 10
2.98873
 20
4.73473
 10
3.08879
 20
4.85568
 10
3.20322
 20
4.96314
 10
3.33022
 20
5.05541
 10
3.46778
 20
5.13103
 10
3.61373
 20
5.18882
 10
3.76577
 20
5.22786
 10
3.92151
 20
5.24753
 10
4.07849
 20
5.24753
 10
4.23423
 20
5.22786
 10
4.38627
 20
5.18882
 10
4.53222
 20
5.13103
 10
4.66978
 20
5.05541
 10
4.79678
 20
4.96314
 10
4.91121
 20
4.85568
 10
5.01127
 20
4.73473
 10
5.09538
 20
4.60219
 10
5.16222
 20
4.46016
 10
5.21073
 20
4.31086
 10
5.24014
 20
4.15667
 10
5.25
 20
4
 10
5.24014
 20
3.84333
 10
5.21073
 20
3.68914
 10
5.16222
 20
3.53984
 10
5.09538
 20
3.39781
 10
5.01127
 20
3.26527
 10
4.91121
 20
3.14432
 10
4.79678
 20
3.03686
 10
4.66978
 20
2.94459
 10
4.53222
 20
2.86897
 10
4.38627
 20
2.81118
 10
4.23423
 20
2.77214
 10
4.07849
 20
2.75247
  0
LWPOLYLINE
100
AcDbEntity
  8
0
100
AcDbPolyline
 90
50
 70
1
 10
146.435
 20
2.75247
 10
146.279
 20
2.77214
 10
146.127
 20
2.81118
 10
145.981
 20
2.86897
 10
145.844
 20
2.94459
 10
145.717
 20
3.03686
 10
145.602
 20
3.14432
 10
145.502
 20
3.26527
 10
145.418
 20
3.39781
 10
145.351
 20
3.53984
 10
145.303
 20
3.68914
 10
145.273
 20
3.84333
 10
145.263
 20
4
 10
145.273
 20
4.15667
 10
145.303
 20
4.31086
 10
145.351
 20
4.46016
 10
145.418
 20
4.60219
 10
145.502
 20
4.73473
 10
145.602
 20
4.85568
 10
145.717
 20
4.96314
 10
145.844
 20
5.05541
 10
145.981
 20
5.13103
 10
146.127
 20
5.18882
 10
146.279
 20
5.22786
 10
146.435
 20
5.24753
 10
146.592
 20
5.24753
 10
146.748
 20
5.22786
 10
146.9
 20
5.18882
 10
147.046
 20
5.13103
 10
147.183
 20
5.05541
 10
147.31
 20
4.96314
 10
147.425
 20
4.85568
 10
147.525
 20
4.73473
 10
147.609
 20
4.60219
 10
147.676
 20
4.46016
 10
147.724
 20
4.31086
 10
147.754
 20
4.15667
 10
147.763
 20
4
 10
147.754
 20
3.84333
 10
147.724
 20
3.68914
 10
147.676
 20
3.53984
 10
147.609
 20
3.39781
 10
147.525
 20
3.26527
 10
147.425
 20
3.14432
 10
147.31
 20
3.03686
 10
147.183
 20
2.94459
 10
147.046
 20
2.86897
 10
146.9
 20
2.81118
 10
146.748
 20
2.77214
 10
146.592
 20
2.75247
  0
LWPOLYLINE
100
AcDbEntity
  8
0
100
AcDbPolyline
 90
50
 70
1
 10
288.949
 20
2.75247
 10
288.793
 20
2.77214
 10
288.641
 20
2.81118
 10
288.495
 20
2.86897
 10
288.357
 20
2.94459
 10
288.23
 20
3.03686
 10
288.116
 20
3.14432
 10
288.016
 20
3.26527
 10
287.932
 20
3.39781
 10
287.865
 20
3.53984
 10
287.816
 20
3.68914
 10
287.787
 20
3.84333
 10
287.777
 20
4
 10
287.787
 20
4.15667
 10
287.816
 20
4.31086
 10
287.865
 20
4.46016
 10
287.932
 20
4.60219
 10
288.016
 20
4.73473
 10
288.116
 20
4.85568
 10
288.23
 20
4.96314
 10
288.357
 20
5.05541
 10
288.495
 20
5.13103
 10
288.641
 20
5.18882
 10
288.793
 20
5.22786
 10
288.949
 20
5.24753
 10
289.105
 20
5.24753
 10
289.261
 20
5.22786
 10
289.413
 20
5.18882
 10
289.559
 20
5.13103
 10
289.697
 20
5.05541
 10
289.824
 20
4.96314
 10
289.938
 20
4.85568
 10
290.038
 20
4.73473
 10
290.122
 20
4.60219
 10
290.189
 20
4.46016
 10
290.238
 20
4.31086
 10
290.267
 20
4.15667
 10
290.277
 20
4
 10
290.267
 20
3.84333
 10
290.238
 20
3.68914
 10
290.189
 20
3.53984
 10
290.122
 20
3.39781
 10
290.038
 20
3.26527
 10
289.938
 20
3.14432
 10
289.824
 20
3.03686
 10
289.697
 20
2.94459
 10
289.559
 20
2.86897
 10
289.413
 20
2.81118
 10
289.261
 20
2.77214
 10
289.105
 20
2.75247
  0
ENDSEC
  0
EOF
