999
DXF from OpenSCAD
  0
SECTION
  2
HEADER
  9
$ACADVER
  1
AC1006
  9
$INSBASE
 10
0.0
 20
0.0
 30
0.0
  9
$EXTMIN
 10
0.0947266
 20
0.317383
  9
$EXTMAX
 10
293.121
 20
115.969
  9
$LINMIN
 10
0.0947266
 20
0.317383
  9
$LINMAX
 10
293.121
 20
115.969
  0
ENDSEC
  0
SECTION
  2
TABLES
  0
TABLE
  2
LTYPE
 70
1
  0
LTYPE
  2
CONTINUOUS
 70
64
  3
Solid line
 72
65
 73
0
 40
0.000000
  0
ENDTAB
  0
TABLE
  2
LAYER
 70
6
  0
LAYER
  2
0
 70
64
 62
7
  6
CONTINUOUS
  0
ENDTAB
  0
TABLE
  2
STYLE
 70
0
  0
ENDTAB
  0
ENDSEC
  0
SECTION
  2
BLOCKS
  0
ENDSEC
  0
SECTION
  2
ENTITIES
  0
LWPOLYLINE
100
AcDbEntity
  8
0
100
AcDbPolyline
 90
84
 70
1
 10
291.12
 20
0.318359
 10
291.277
 20
0.324219
 10
291.433
 20
0.341797
 10
291.587
 20
0.373047
 10
291.739
 20
0.415039
 10
291.887
 20
0.469727
 10
292.028
 20
0.536133
 10
292.166
 20
0.612305
 10
292.297
 20
0.700195
 10
292.42
 20
0.797852
 10
292.535
 20
0.904297
 10
292.642
 20
1.01953
 10
292.74
 20
1.14258
 10
292.826
 20
1.27344
 10
292.903
 20
1.41016
 10
292.968
 20
1.55273
 10
293.023
 20
1.69922
 10
293.066
 20
1.85254
 10
293.096
 20
2.00488
 10
293.114
 20
2.16113
 10
293.121
 20
2.31738
 10
293.121
 20
113.968
 10
293.114
 20
114.125
 10
293.096
 20
114.282
 10
293.066
 20
114.435
 10
293.023
 20
114.588
 10
292.968
 20
114.734
 10
292.903
 20
114.876
 10
292.826
 20
115.014
 10
292.74
 20
115.145
 10
292.642
 20
115.267
 10
292.535
 20
115.383
 10
292.42
 20
115.489
 10
292.297
 20
115.587
 10
292.166
 20
115.674
 10
292.028
 20
115.751
 10
291.887
 20
115.816
 10
291.739
 20
115.871
 10
291.587
 20
115.914
 10
291.433
 20
115.944
 10
291.277
 20
115.962
 10
291.12
 20
115.969
 10
2.0957
 20
115.969
 10
1.93848
 20
115.962
 10
1.78223
 20
115.944
 10
1.62891
 20
115.914
 10
1.47559
 20
115.871
 10
1.33008
 20
115.816
 10
1.1875
 20
115.751
 10
1.0498
 20
115.674
 10
0.918945
 20
115.587
 10
0.796875
 20
115.489
 10
0.680664
 20
115.383
 10
0.574219
 20
115.267
 10
0.476562
 20
115.145
 10
0.389648
 20
115.014
 10
0.3125
 20
114.876
 10
0.248047
 20
114.734
 10
0.193359
 20
114.588
 10
0.150391
 20
114.435
 10
0.120117
 20
114.282
 10
0.101562
 20
114.125
 10
0.0947266
 20
113.968
 10
0.0947266
 20
2.31738
 10
0.101562
 20
2.16113
 10
0.120117
 20
2.00488
 10
0.150391
 20
1.85254
 10
0.193359
 20
1.69922
 10
0.248047
 20
1.55273
 10
0.3125
 20
1.41016
 10
0.389648
 20
1.27344
 10
0.476562
 20
1.14258
 10
0.574219
 20
1.01953
 10
0.680664
 20
0.904297
 10
0.796875
 20
0.797852
 10
0.918945
 20
0.700195
 10
1.0498
 20
0.612305
 10
1.1875
 20
0.536133
 10
1.33008
 20
0.469727
 10
1.47559
 20
0.415039
 10
1.62891
 20
0.373047
 10
1.78223
 20
0.341797
 10
1.93848
 20
0.324219
 10
2.0957
 20
0.317383
  0
LWPOLYLINE
100
AcDbEntity
  8
0
100
AcDbPolyline
 90
50
 70
1
 10
3.92151
 20
110.404
 10
3.76577
 20
110.424
 10
3.61373
 20
110.463
 10
3.46778
 20
110.521
 10
3.33022
 20
110.597
 10
3.20322
 20
110.689
 10
3.08879
 20
110.796
 10
2.98873
 20
110.917
 10
2.90462
 20
111.05
 10
2.83778
 20
111.192
 10
2.78927
 20
111.341
 10
2.75986
 20
111.495
 10
2.75
 20
111.652
 10
2.75986
 20
111.809
 10
2.78927
 20
111.963
 10
2.83778
 20
112.112
 10
2.90462
 20
112.254
 10
2.98873
 20
112.387
 10
3.08879
 20
112.508
 10
3.20322
 20
112.615
 10
3.33022
 20
112.707
 10
3.46778
 20
112.783
 10
3.61373
 20
112.841
 10
3.76577
 20
112.88
 10
3.92151
 20
112.9
 10
4.07849
 20
112.9
 10
4.23423
 20
112.88
 10
4.38627
 20
112.841
 10
4.53222
 20
112.783
 10
4.66978
 20
112.707
 10
4.79678
 20
112.615
 10
4.91121
 20
112.508
 10
5.01127
 20
112.387
 10
5.09538
 20
112.254
 10
5.16222
 20
112.112
 10
5.21073
 20
111.963
 10
5.24014
 20
111.809
 10
5.25
 20
111.652
 10
5.24014
 20
111.495
 10
5.21073
 20
111.341
 10
5.16222
 20
111.192
 10
5.09538
 20
111.05
 10
5.01127
 20
110.917
 10
4.91121
 20
110.796
 10
4.79678
 20
110.689
 10
4.66978
 20
110.597
 10
4.53222
 20
110.521
 10
4.38627
 20
110.463
 10
4.23423
 20
110.424
 10
4.07849
 20
110.404
  0
LWPOLYLINE
100
AcDbEntity
  8
0
100
AcDbPolyline
 90
50
 70
1
 10
146.435
 20
110.404
 10
146.279
 20
110.424
 10
146.127
 20
110.463
 10
145.981
 20
110.521
 10
145.844
 20
110.597
 10
145.717
 20
110.689
 10
145.602
 20
110.796
 10
145.502
 20
110.917
 10
145.418
 20
111.05
 10
145.351
 20
111.192
 10
145.303
 20
111.341
 10
145.273
 20
111.495
 10
145.263
 20
111.652
 10
145.273
 20
111.809
 10
145.303
 20
111.963
 10
145.351
 20
112.112
 10
145.418
 20
112.254
 10
145.502
 20
112.387
 10
145.602
 20
112.508
 10
145.717
 20
112.615
 10
145.844
 20
112.707
 10
145.981
 20
112.783
 10
146.127
 20
112.841
 10
146.279
 20
112.88
 10
146.435
 20
112.9
 10
146.592
 20
112.9
 10
146.748
 20
112.88
 10
146.9
 20
112.841
 10
147.046
 20
112.783
 10
147.183
 20
112.707
 10
147.31
 20
112.615
 10
147.425
 20
112.508
 10
147.525
 20
112.387
 10
147.609
 20
112.254
 10
147.676
 20
112.112
 10
147.724
 20
111.963
 10
147.754
 20
111.809
 10
147.763
 20
111.652
 10
147.754
 20
111.495
 10
147.724
 20
111.341
 10
147.676
 20
111.192
 10
147.609
 20
111.05
 10
147.525
 20
110.917
 10
147.425
 20
110.796
 10
147.31
 20
110.689
 10
147.183
 20
110.597
 10
147.046
 20
110.521
 10
146.9
 20
110.463
 10
146.748
 20
110.424
 10
146.592
 20
110.404
  0
LWPOLYLINE
100
AcDbEntity
  8
0
100
AcDbPolyline
 90
50
 70
1
 10
288.949
 20
110.404
 10
288.793
 20
110.424
 10
288.641
 20
110.463
 10
288.495
 20
110.521
 10
288.357
 20
110.597
 10
288.23
 20
110.689
 10
288.116
 20
110.796
 10
288.016
 20
110.917
 10
287.932
 20
111.05
 10
287.865
 20
111.192
 10
287.816
 20
111.341
 10
287.787
 20
111.495
 10
287.777
 20
111.652
 10
287.787
 20
111.809
 10
287.816
 20
111.963
 10
287.865
 20
112.112
 10
287.932
 20
112.254
 10
288.016
 20
112.387
 10
288.116
 20
112.508
 10
288.23
 20
112.615
 10
288.357
 20
112.707
 10
288.495
 20
112.783
 10
288.641
 20
112.841
 10
288.793
 20
112.88
 10
288.949
 20
112.9
 10
289.105
 20
112.9
 10
289.261
 20
112.88
 10
289.413
 20
112.841
 10
289.559
 20
112.783
 10
289.697
 20
112.707
 10
289.824
 20
112.615
 10
289.938
 20
112.508
 10
290.038
 20
112.387
 10
290.122
 20
112.254
 10
290.189
 20
112.112
 10
290.238
 20
111.963
 10
290.267
 20
111.809
 10
290.277
 20
111.652
 10
290.267
 20
111.495
 10
290.238
 20
111.341
 10
290.189
 20
111.192
 10
290.122
 20
111.05
 10
290.038
 20
110.917
 10
289.938
 20
110.796
 10
289.824
 20
110.689
 10
289.697
 20
110.597
 10
289.559
 20
110.521
 10
289.413
 20
110.463
 10
289.261
 20
110.424
 10
289.105
 20
110.404
  0
LWPOLYLINE
100
AcDbEntity
  8
0
100
AcDbPolyline
 90
4
 70
1
 10
250.527
 20
110.652
 10
250.527
 20
112.252
 10
270.527
 20
112.252
 10
270.527
 20
110.652
  0
LWPOLYLINE
100
AcDbEntity
  8
0
100
AcDbPolyline
 90
4
 70
1
 10
210.527
 20
110.652
 10
210.527
 20
112.252
 10
230.527
 20
112.252
 10
230.527
 20
110.652
  0
LWPOLYLINE
100
AcDbEntity
  8
0
100
AcDbPolyline
 90
4
 70
1
 10
12.4961
 20
89.7188
 10
12.4961
 20
103.568
 10
26.3457
 20
103.568
 10
26.3457
 20
89.7188
  0
LWPOLYLINE
100
AcDbEntity
  8
0
100
AcDbPolyline
 90
4
 70
1
 10
30.9951
 20
89.7188
 10
30.9951
 20
103.568
 10
44.8457
 20
103.568
 10
44.8457
 20
89.7188
  0
LWPOLYLINE
100
AcDbEntity
  8
0
100
AcDbPolyline
 90
4
 70
1
 10
49.4951
 20
89.7188
 10
49.4951
 20
103.568
 10
63.3457
 20
103.568
 10
63.3457
 20
89.7188
  0
LWPOLYLINE
100
AcDbEntity
  8
0
100
AcDbPolyline
 90
4
 70
1
 10
67.9951
 20
89.7188
 10
67.9951
 20
103.568
 10
81.8457
 20
103.568
 10
81.8457
 20
89.7188
  0
LWPOLYLINE
100
AcDbEntity
  8
0
100
AcDbPolyline
 90
4
 70
1
 10
86.4951
 20
89.7188
 10
86.4951
 20
103.568
 10
100.346
 20
103.568
 10
100.346
 20
89.7188
  0
LWPOLYLINE
100
AcDbEntity
  8
0
100
AcDbPolyline
 90
4
 70
1
 10
104.995
 20
89.7188
 10
104.995
 20
103.568
 10
118.846
 20
103.568
 10
118.846
 20
89.7188
  0
LWPOLYLINE
100
AcDbEntity
  8
0
100
AcDbPolyline
 90
4
 70
1
 10
123.494
 20
89.7188
 10
123.494
 20
103.568
 10
137.345
 20
103.568
 10
137.345
 20
89.7188
  0
LWPOLYLINE
100
AcDbEntity
  8
0
100
AcDbPolyline
 90
4
 70
1
 10
141.994
 20
89.7188
 10
141.994
 20
103.568
 10
155.845
 20
103.568
 10
155.845
 20
89.7188
  0
LWPOLYLINE
100
AcDbEntity
  8
0
100
AcDbPolyline
 90
4
 70
1
 10
160.494
 20
89.7188
 10
160.494
 20
103.568
 10
174.345
 20
103.568
 10
174.345
 20
89.7188
  0
LWPOLYLINE
100
AcDbEntity
  8
0
100
AcDbPolyline
 90
4
 70
1
 10
178.995
 20
89.7188
 10
178.995
 20
103.568
 10
192.845
 20
103.568
 10
192.845
 20
89.7188
  0
LWPOLYLINE
100
AcDbEntity
  8
0
100
AcDbPolyline
 90
4
 70
1
 10
197.495
 20
89.7188
 10
197.495
 20
103.568
 10
211.346
 20
103.568
 10
211.346
 20
89.7188
  0
LWPOLYLINE
100
AcDbEntity
  8
0
100
AcDbPolyline
 90
4
 70
1
 10
215.995
 20
89.7188
 10
215.995
 20
103.568
 10
229.846
 20
103.568
 10
229.846
 20
89.7188
  0
LWPOLYLINE
100
AcDbEntity
  8
0
100
AcDbPolyline
 90
4
 70
1
 10
234.494
 20
89.7188
 10
234.494
 20
103.568
 10
248.346
 20
103.568
 10
248.346
 20
89.7188
  0
LWPOLYLINE
100
AcDbEntity
  8
0
100
AcDbPolyline
 90
4
 70
1
 10
262.246
 20
89.7188
 10
262.246
 20
103.568
 10
276.096
 20
103.568
 10
276.096
 20
89.7188
  0
LWPOLYLINE
100
AcDbEntity
  8
0
100
AcDbPolyline
 90
4
 70
1
 10
12.4961
 20
52.7188
 10
12.4961
 20
66.5684
 10
26.3457
 20
66.5684
 10
26.3457
 20
52.7188
  0
LWPOLYLINE
100
AcDbEntity
  8
0
100
AcDbPolyline
 90
4
 70
1
 10
30.9951
 20
52.7188
 10
30.9951
 20
66.5684
 10
44.8457
 20
66.5684
 10
44.8457
 20
52.7188
  0
LWPOLYLINE
100
AcDbEntity
  8
0
100
AcDbPolyline
 90
4
 70
1
 10
49.4951
 20
52.7188
 10
49.4951
 20
66.5684
 10
63.3457
 20
66.5684
 10
63.3457
 20
52.7188
  0
LWPOLYLINE
100
AcDbEntity
  8
0
100
AcDbPolyline
 90
4
 70
1
 10
72.6201
 20
52.7188
 10
72.6201
 20
66.5684
 10
86.4707
 20
66.5684
 10
86.4707
 20
52.7188
  0
LWPOLYLINE
100
AcDbEntity
  8
0
100
AcDbPolyline
 90
4
 70
1
 10
91.1201
 20
52.7188
 10
91.1201
 20
66.5684
 10
104.971
 20
66.5684
 10
104.971
 20
52.7188
  0
LWPOLYLINE
100
AcDbEntity
  8
0
100
AcDbPolyline
 90
4
 70
1
 10
109.62
 20
52.7188
 10
109.62
 20
66.5684
 10
123.471
 20
66.5684
 10
123.471
 20
52.7188
  0
LWPOLYLINE
100
AcDbEntity
  8
0
100
AcDbPolyline
 90
4
 70
1
 10
128.119
 20
52.7188
 10
128.119
 20
66.5684
 10
141.971
 20
66.5684
 10
141.971
 20
52.7188
  0
LWPOLYLINE
100
AcDbEntity
  8
0
100
AcDbPolyline
 90
4
 70
1
 10
151.244
 20
52.7188
 10
151.244
 20
66.5684
 10
165.096
 20
66.5684
 10
165.096
 20
52.7188
  0
LWPOLYLINE
100
AcDbEntity
  8
0
100
AcDbPolyline
 90
4
 70
1
 10
169.744
 20
52.7188
 10
169.744
 20
66.5684
 10
183.596
 20
66.5684
 10
183.596
 20
52.7188
  0
LWPOLYLINE
100
AcDbEntity
  8
0
100
AcDbPolyline
 90
4
 70
1
 10
192.869
 20
52.7188
 10
192.869
 20
66.5684
 10
206.721
 20
66.5684
 10
206.721
 20
52.7188
  0
LWPOLYLINE
100
AcDbEntity
  8
0
100
AcDbPolyline
 90
4
 70
1
 10
211.369
 20
52.7188
 10
211.369
 20
66.5684
 10
225.221
 20
66.5684
 10
225.221
 20
52.7188
  0
LWPOLYLINE
100
AcDbEntity
  8
0
100
AcDbPolyline
 90
4
 70
1
 10
229.869
 20
52.7188
 10
229.869
 20
66.5684
 10
243.72
 20
66.5684
 10
243.72
 20
52.7188
  0
LWPOLYLINE
100
AcDbEntity
  8
0
100
AcDbPolyline
 90
4
 70
1
 10
248.369
 20
52.7188
 10
248.369
 20
66.5684
 10
262.22
 20
66.5684
 10
262.22
 20
52.7188
  0
LWPOLYLINE
100
AcDbEntity
  8
0
100
AcDbPolyline
 90
4
 70
1
 10
266.871
 20
52.7188
 10
266.871
 20
66.5684
 10
280.72
 20
66.5684
 10
280.72
 20
52.7188
  0
LWPOLYLINE
100
AcDbEntity
  8
0
100
AcDbPolyline
 90
30
 70
1
 10
122.904
 20
33.5688
 10
122.689
 20
33.6144
 10
122.489
 20
33.7037
 10
122.311
 20
33.8327
 10
122.164
 20
33.9958
 10
122.054
 20
34.1859
 10
121.986
 20
34.3947
 10
121.964
 20
34.613
 10
121.986
 20
34.8313
 10
122.054
 20
35.0401
 10
122.164
 20
35.2302
 10
122.311
 20
35.3933
 10
122.489
 20
35.5223
 10
122.689
 20
35.6116
 10
122.904
 20
35.6572
 10
123.123
 20
35.6572
 10
123.338
 20
35.6116
 10
123.538
 20
35.5223
 10
123.716
 20
35.3933
 10
123.863
 20
35.2302
 10
123.973
 20
35.0401
 10
124.041
 20
34.8313
 10
124.063
 20
34.613
 10
124.041
 20
34.3947
 10
123.973
 20
34.1859
 10
123.863
 20
33.9958
 10
123.716
 20
33.8327
 10
123.538
 20
33.7037
 10
123.338
 20
33.6144
 10
123.123
 20
33.5688
  0
LWPOLYLINE
100
AcDbEntity
  8
0
100
AcDbPolyline
 90
30
 70
1
 10
169.904
 20
33.5688
 10
169.689
 20
33.6144
 10
169.488
 20
33.7037
 10
169.311
 20
33.8327
 10
169.164
 20
33.9958
 10
169.054
 20
34.1859
 10
168.986
 20
34.3947
 10
168.964
 20
34.613
 10
168.986
 20
34.8313
 10
169.054
 20
35.0401
 10
169.164
 20
35.2302
 10
169.311
 20
35.3933
 10
169.488
 20
35.5223
 10
169.689
 20
35.6116
 10
169.904
 20
35.6572
 10
170.123
 20
35.6572
 10
170.338
 20
35.6116
 10
170.538
 20
35.5223
 10
170.716
 20
35.3933
 10
170.863
 20
35.2302
 10
170.973
 20
35.0401
 10
171.041
 20
34.8313
 10
171.063
 20
34.613
 10
171.041
 20
34.3947
 10
170.973
 20
34.1859
 10
170.863
 20
33.9958
 10
170.716
 20
33.8327
 10
170.538
 20
33.7037
 10
170.338
 20
33.6144
 10
170.123
 20
33.5688
  0
LWPOLYLINE
100
AcDbEntity
  8
0
100
AcDbPolyline
 90
30
 70
1
 10
122.904
 20
22.1688
 10
122.689
 20
22.2144
 10
122.489
 20
22.3037
 10
122.311
 20
22.4327
 10
122.164
 20
22.5958
 10
122.054
 20
22.7859
 10
121.986
 20
22.9947
 10
121.964
 20
23.213
 10
121.986
 20
23.4313
 10
122.054
 20
23.6401
 10
122.164
 20
23.8302
 10
122.311
 20
23.9933
 10
122.489
 20
24.1223
 10
122.689
 20
24.2116
 10
122.904
 20
24.2572
 10
123.123
 20
24.2572
 10
123.338
 20
24.2116
 10
123.538
 20
24.1223
 10
123.716
 20
23.9933
 10
123.863
 20
23.8302
 10
123.973
 20
23.6401
 10
124.041
 20
23.4313
 10
124.063
 20
23.213
 10
124.041
 20
22.9947
 10
123.973
 20
22.7859
 10
123.863
 20
22.5958
 10
123.716
 20
22.4327
 10
123.538
 20
22.3037
 10
123.338
 20
22.2144
 10
123.123
 20
22.1688
  0
LWPOLYLINE
100
AcDbEntity
  8
0
100
AcDbPolyline
 90
30
 70
1
 10
169.904
 20
22.1688
 10
169.689
 20
22.2144
 10
169.488
 20
22.3037
 10
169.311
 20
22.4327
 10
169.164
 20
22.5958
 10
169.054
 20
22.7859
 10
168.986
 20
22.9947
 10
168.964
 20
23.213
 10
168.986
 20
23.4313
 10
169.054
 20
23.6401
 10
169.164
 20
23.8302
 10
169.311
 20
23.9933
 10
169.488
 20
24.1223
 10
169.689
 20
24.2116
 10
169.904
 20
24.2572
 10
170.123
 20
24.2572
 10
170.338
 20
24.2116
 10
170.538
 20
24.1223
 10
170.716
 20
23.9933
 10
170.863
 20
23.8302
 10
170.973
 20
23.6401
 10
171.041
 20
23.4313
 10
171.063
 20
23.213
 10
171.041
 20
22.9947
 10
170.973
 20
22.7859
 10
170.863
 20
22.5958
 10
170.716
 20
22.4327
 10
170.538
 20
22.3037
 10
170.338
 20
22.2144
 10
170.123
 20
22.1688
  0
LWPOLYLINE
100
AcDbEntity
  8
0
100
AcDbPolyline
 90
49
 70
1
 10
3.92151
 20
2.75247
 10
3.76577
 20
2.77214
 10
3.61373
 20
2.81118
 10
3.46778
 20
2.86897
 10
3.33022
 20
2.94459
 10
3.20322
 20
3.03686
 10
3.08879
 20
3.14432
 10
2.98873
 20
3.26527
 10
2.90462
 20
3.39781
 10
2.83778
 20
3.53984
 10
2.78927
 20
3.68914
 10
2.75986
 20
3.84333
 10
2.75
 20
4
 10
2.75986
 20
4.15667
 10
2.78927
 20
4.31086
 10
2.83778
 20
4.46016
 10
2.90462
 20
4.60219
 10
2.98873
 20
4.73473
 10
3.08879
 20
4.85568
 10
3.20322
 20
4.96314
 10
3.33022
 20
5.05541
 10
3.46778
 20
5.13103
 10
3.61373
 20
5.18882
 10
3.76577
 20
5.22786
 10
3.80721
 20
5.23309
 10
3.88477
 20
5.27246
 10
4.16992
 20
5.31738
 10
4.45508
 20
5.27246
 10
4.71289
 20
5.1416
 10
4.91797
 20
4.93652
 10
5.04883
 20
4.67871
 10
5.0495
 20
4.67449
 10
5.09538
 20
4.60219
 10
5.16222
 20
4.46016
 10
5.21073
 20
4.31086
 10
5.24014
 20
4.15667
 10
5.25
 20
4
 10
5.24014
 20
3.84333
 10
5.21073
 20
3.68914
 10
5.16222
 20
3.53984
 10
5.09538
 20
3.39781
 10
5.01127
 20
3.26527
 10
4.91121
 20
3.14432
 10
4.79678
 20
3.03686
 10
4.66978
 20
2.94459
 10
4.53222
 20
2.86897
 10
4.38627
 20
2.81118
 10
4.23423
 20
2.77214
 10
4.07849
 20
2.75247
  0
LWPOLYLINE
100
AcDbEntity
  8
0
100
AcDbPolyline
 90
49
 70
1
 10
288.949
 20
2.75247
 10
288.793
 20
2.77214
 10
288.641
 20
2.81118
 10
288.495
 20
2.86897
 10
288.357
 20
2.94459
 10
288.23
 20
3.03686
 10
288.116
 20
3.14432
 10
288.016
 20
3.26527
 10
287.932
 20
3.39781
 10
287.865
 20
3.53984
 10
287.816
 20
3.68914
 10
287.787
 20
3.84333
 10
287.777
 20
4
 10
287.787
 20
4.15667
 10
287.816
 20
4.31086
 10
287.865
 20
4.46016
 10
287.932
 20
4.60219
 10
288.016
 20
4.73473
 10
288.116
 20
4.85568
 10
288.23
 20
4.96314
 10
288.357
 20
5.05541
 10
288.487
 20
5.12698
 10
288.502
 20
5.1416
 10
288.761
 20
5.27246
 10
289.045
 20
5.31738
 10
289.331
 20
5.27246
 10
289.589
 20
5.1416
 10
289.649
 20
5.08159
 10
289.697
 20
5.05541
 10
289.824
 20
4.96314
 10
289.938
 20
4.85568
 10
290.038
 20
4.73473
 10
290.122
 20
4.60219
 10
290.189
 20
4.46016
 10
290.238
 20
4.31086
 10
290.267
 20
4.15667
 10
290.277
 20
4
 10
290.267
 20
3.84333
 10
290.238
 20
3.68914
 10
290.189
 20
3.53984
 10
290.122
 20
3.39781
 10
290.038
 20
3.26527
 10
289.938
 20
3.14432
 10
289.824
 20
3.03686
 10
289.697
 20
2.94459
 10
289.559
 20
2.86897
 10
289.413
 20
2.81118
 10
289.261
 20
2.77214
 10
289.105
 20
2.75247
  0
LWPOLYLINE
100
AcDbEntity
  8
0
100
AcDbPolyline
 90
50
 70
1
 10
146.435
 20
2.75247
 10
146.279
 20
2.77214
 10
146.127
 20
2.81118
 10
145.981
 20
2.86897
 10
145.844
 20
2.94459
 10
145.717
 20
3.03686
 10
145.602
 20
3.14432
 10
145.502
 20
3.26527
 10
145.418
 20
3.39781
 10
145.351
 20
3.53984
 10
145.303
 20
3.68914
 10
145.273
 20
3.84333
 10
145.263
 20
4
 10
145.273
 20
4.15667
 10
145.303
 20
4.31086
 10
145.351
 20
4.46016
 10
145.418
 20
4.60219
 10
145.502
 20
4.73473
 10
145.602
 20
4.85568
 10
145.717
 20
4.96314
 10
145.844
 20
5.05541
 10
145.981
 20
5.13103
 10
146.127
 20
5.18882
 10
146.279
 20
5.22786
 10
146.435
 20
5.24753
 10
146.592
 20
5.24753
 10
146.748
 20
5.22786
 10
146.9
 20
5.18882
 10
147.046
 20
5.13103
 10
147.183
 20
5.05541
 10
147.31
 20
4.96314
 10
147.425
 20
4.85568
 10
147.525
 20
4.73473
 10
147.609
 20
4.60219
 10
147.676
 20
4.46016
 10
147.724
 20
4.31086
 10
147.754
 20
4.15667
 10
147.763
 20
4
 10
147.754
 20
3.84333
 10
147.724
 20
3.68914
 10
147.676
 20
3.53984
 10
147.609
 20
3.39781
 10
147.525
 20
3.26527
 10
147.425
 20
3.14432
 10
147.31
 20
3.03686
 10
147.183
 20
2.94459
 10
147.046
 20
2.86897
 10
146.9
 20
2.81118
 10
146.748
 20
2.77214
 10
146.592
 20
2.75247
  0
ENDSEC
  0
EOF
