  0
SECTION
  2
HEADER
  9
$ACADVER
  1
AC1009
  9
$FILLMODE
 70
 0
  9
$SPLFRAME
 70
 1
  9
$EXTMIN
 10
0
 20
0
 30
0.0
  9
$EXTMAX
 10
1058.33
 20
1058.33
 30
0.0
  0
ENDSEC
  0
SECTION
  2
TABLES
  0
TABLE
  2
LAYER
 70
1
  0
LAYER
  2
0
 70
     0
 62
     7
  6
CONTINUOUS
  0
ENDTAB
  0
ENDSEC
  0
SECTION
  2
ENTITIES
  0
LINE
  8
0
 62
     0
 10
291.12
 20
115.969
 30
0.0
 11
291.277
 21
115.962
 31
0.0
  0
LINE
  8
0
 62
     0
 10
291.277
 20
115.962
 30
0.0
 11
291.433
 21
115.944
 31
0.0
  0
LINE
  8
0
 62
     0
 10
291.433
 20
115.944
 30
0.0
 11
291.587
 21
115.914
 31
0.0
  0
LINE
  8
0
 62
     0
 10
291.587
 20
115.914
 30
0.0
 11
291.739
 21
115.871
 31
0.0
  0
LINE
  8
0
 62
     0
 10
291.739
 20
115.871
 30
0.0
 11
291.887
 21
115.816
 31
0.0
  0
LINE
  8
0
 62
     0
 10
291.887
 20
115.816
 30
0.0
 11
292.028
 21
115.751
 31
0.0
  0
LINE
  8
0
 62
     0
 10
292.028
 20
115.751
 30
0.0
 11
292.166
 21
115.674
 31
0.0
  0
LINE
  8
0
 62
     0
 10
292.166
 20
115.674
 30
0.0
 11
292.297
 21
115.587
 31
0.0
  0
LINE
  8
0
 62
     0
 10
292.297
 20
115.587
 30
0.0
 11
292.42
 21
115.489
 31
0.0
  0
LINE
  8
0
 62
     0
 10
292.42
 20
115.489
 30
0.0
 11
292.535
 21
115.383
 31
0.0
  0
LINE
  8
0
 62
     0
 10
292.535
 20
115.383
 30
0.0
 11
292.642
 21
115.267
 31
0.0
  0
LINE
  8
0
 62
     0
 10
292.642
 20
115.267
 30
0.0
 11
292.74
 21
115.145
 31
0.0
  0
LINE
  8
0
 62
     0
 10
292.74
 20
115.145
 30
0.0
 11
292.826
 21
115.014
 31
0.0
  0
LINE
  8
0
 62
     0
 10
292.826
 20
115.014
 30
0.0
 11
292.903
 21
114.876
 31
0.0
  0
LINE
  8
0
 62
     0
 10
292.903
 20
114.876
 30
0.0
 11
292.968
 21
114.734
 31
0.0
  0
LINE
  8
0
 62
     0
 10
292.968
 20
114.734
 30
0.0
 11
293.023
 21
114.588
 31
0.0
  0
LINE
  8
0
 62
     0
 10
293.023
 20
114.588
 30
0.0
 11
293.066
 21
114.435
 31
0.0
  0
LINE
  8
0
 62
     0
 10
293.066
 20
114.435
 30
0.0
 11
293.096
 21
114.282
 31
0.0
  0
LINE
  8
0
 62
     0
 10
293.096
 20
114.282
 30
0.0
 11
293.114
 21
114.125
 31
0.0
  0
LINE
  8
0
 62
     0
 10
293.114
 20
114.125
 30
0.0
 11
293.121
 21
113.968
 31
0.0
  0
LINE
  8
0
 62
     0
 10
293.121
 20
113.968
 30
0.0
 11
293.121
 21
2.31786
 31
0.0
  0
LINE
  8
0
 62
     0
 10
293.121
 20
2.31786
 30
0.0
 11
293.114
 21
2.16076
 31
0.0
  0
LINE
  8
0
 62
     0
 10
293.114
 20
2.16076
 30
0.0
 11
293.096
 21
2.00504
 31
0.0
  0
LINE
  8
0
 62
     0
 10
293.096
 20
2.00504
 30
0.0
 11
293.066
 21
1.85208
 31
0.0
  0
LINE
  8
0
 62
     0
 10
293.066
 20
1.85208
 30
0.0
 11
293.023
 21
1.69912
 31
0.0
  0
LINE
  8
0
 62
     0
 10
293.023
 20
1.69912
 30
0.0
 11
292.968
 21
1.55305
 31
0.0
  0
LINE
  8
0
 62
     0
 10
292.968
 20
1.55305
 30
0.0
 11
292.903
 21
1.40973
 31
0.0
  0
LINE
  8
0
 62
     0
 10
292.903
 20
1.40973
 30
0.0
 11
292.826
 21
1.27331
 31
0.0
  0
LINE
  8
0
 62
     0
 10
292.826
 20
1.27331
 30
0.0
 11
292.74
 21
1.14239
 31
0.0
  0
LINE
  8
0
 62
     0
 10
292.74
 20
1.14239
 30
0.0
 11
292.642
 21
1.01975
 31
0.0
  0
LINE
  8
0
 62
     0
 10
292.642
 20
1.01975
 30
0.0
 11
292.535
 21
0.903993
 31
0.0
  0
LINE
  8
0
 62
     0
 10
292.535
 20
0.903993
 30
0.0
 11
292.42
 21
0.797885
 31
0.0
  0
LINE
  8
0
 62
     0
 10
292.42
 20
0.797885
 30
0.0
 11
292.297
 21
0.700045
 31
0.0
  0
LINE
  8
0
 62
     0
 10
292.297
 20
0.700045
 30
0.0
 11
292.166
 21
0.611851
 31
0.0
  0
LINE
  8
0
 62
     0
 10
292.166
 20
0.611851
 30
0.0
 11
292.028
 21
0.536056
 31
0.0
  0
LINE
  8
0
 62
     0
 10
292.028
 20
0.536056
 30
0.0
 11
291.887
 21
0.469911
 31
0.0
  0
LINE
  8
0
 62
     0
 10
291.887
 20
0.469911
 30
0.0
 11
291.739
 21
0.414789
 31
0.0
  0
LINE
  8
0
 62
     0
 10
291.739
 20
0.414789
 30
0.0
 11
291.587
 21
0.373447
 31
0.0
  0
LINE
  8
0
 62
     0
 10
291.587
 20
0.373447
 30
0.0
 11
291.433
 21
0.341753
 31
0.0
  0
LINE
  8
0
 62
     0
 10
291.433
 20
0.341753
 30
0.0
 11
291.277
 21
0.323839
 31
0.0
  0
LINE
  8
0
 62
     0
 10
291.277
 20
0.323839
 30
0.0
 11
291.12
 21
0.318327
 31
0.0
  0
LINE
  8
0
 62
     0
 10
291.12
 20
0.318327
 30
0.0
 11
2.096
 21
0.316949
 31
0.0
  0
LINE
  8
0
 62
     0
 10
2.096
 20
0.316949
 30
0.0
 11
1.9389
 21
0.323839
 31
0.0
  0
LINE
  8
0
 62
     0
 10
1.9389
 20
0.323839
 30
0.0
 11
1.7818
 21
0.341753
 31
0.0
  0
LINE
  8
0
 62
     0
 10
1.7818
 20
0.341753
 30
0.0
 11
1.62884
 21
0.373447
 31
0.0
  0
LINE
  8
0
 62
     0
 10
1.62884
 20
0.373447
 30
0.0
 11
1.47588
 21
0.414789
 31
0.0
  0
LINE
  8
0
 62
     0
 10
1.47588
 20
0.414789
 30
0.0
 11
1.32981
 21
0.469911
 31
0.0
  0
LINE
  8
0
 62
     0
 10
1.32981
 20
0.469911
 30
0.0
 11
1.18787
 21
0.536056
 31
0.0
  0
LINE
  8
0
 62
     0
 10
1.18787
 20
0.536056
 30
0.0
 11
1.05006
 21
0.611851
 31
0.0
  0
LINE
  8
0
 62
     0
 10
1.05006
 20
0.611851
 30
0.0
 11
0.919152
 21
0.700045
 31
0.0
  0
LINE
  8
0
 62
     0
 10
0.919152
 20
0.700045
 30
0.0
 11
0.796505
 21
0.797885
 31
0.0
  0
LINE
  8
0
 62
     0
 10
0.796505
 20
0.797885
 30
0.0
 11
0.680752
 21
0.903993
 31
0.0
  0
LINE
  8
0
 62
     0
 10
0.680752
 20
0.903993
 30
0.0
 11
0.574643
 21
1.01975
 31
0.0
  0
LINE
  8
0
 62
     0
 10
0.574643
 20
1.01975
 30
0.0
 11
0.4768
 21
1.14239
 31
0.0
  0
LINE
  8
0
 62
     0
 10
0.4768
 20
1.14239
 30
0.0
 11
0.389985
 21
1.27331
 31
0.0
  0
LINE
  8
0
 62
     0
 10
0.389985
 20
1.27331
 30
0.0
 11
0.312815
 21
1.40973
 31
0.0
  0
LINE
  8
0
 62
     0
 10
0.312815
 20
1.40973
 30
0.0
 11
0.248047
 21
1.55305
 31
0.0
  0
LINE
  8
0
 62
     0
 10
0.248047
 20
1.55305
 30
0.0
 11
0.192925
 21
1.69912
 31
0.0
  0
LINE
  8
0
 62
     0
 10
0.192925
 20
1.69912
 30
0.0
 11
0.150206
 21
1.85208
 31
0.0
  0
LINE
  8
0
 62
     0
 10
0.150206
 20
1.85208
 30
0.0
 11
0.119889
 21
2.00504
 31
0.0
  0
LINE
  8
0
 62
     0
 10
0.119889
 20
2.00504
 30
0.0
 11
0.101975
 21
2.16076
 31
0.0
  0
LINE
  8
0
 62
     0
 10
0.101975
 20
2.16076
 30
0.0
 11
0.0950846
 21
2.31786
 31
0.0
  0
LINE
  8
0
 62
     0
 10
0.0950846
 20
2.31786
 30
0.0
 11
0.0950846
 21
113.968
 31
0.0
  0
LINE
  8
0
 62
     0
 10
0.0950846
 20
113.968
 30
0.0
 11
0.101975
 21
114.125
 31
0.0
  0
LINE
  8
0
 62
     0
 10
0.101975
 20
114.125
 30
0.0
 11
0.119889
 21
114.282
 31
0.0
  0
LINE
  8
0
 62
     0
 10
0.119889
 20
114.282
 30
0.0
 11
0.150206
 21
114.435
 31
0.0
  0
LINE
  8
0
 62
     0
 10
0.150206
 20
114.435
 30
0.0
 11
0.192925
 21
114.588
 31
0.0
  0
LINE
  8
0
 62
     0
 10
0.192925
 20
114.588
 30
0.0
 11
0.248047
 21
114.734
 31
0.0
  0
LINE
  8
0
 62
     0
 10
0.248047
 20
114.734
 30
0.0
 11
0.312815
 21
114.876
 31
0.0
  0
LINE
  8
0
 62
     0
 10
0.312815
 20
114.876
 30
0.0
 11
0.389985
 21
115.014
 31
0.0
  0
LINE
  8
0
 62
     0
 10
0.389985
 20
115.014
 30
0.0
 11
0.4768
 21
115.145
 31
0.0
  0
LINE
  8
0
 62
     0
 10
0.4768
 20
115.145
 30
0.0
 11
0.574643
 21
115.267
 31
0.0
  0
LINE
  8
0
 62
     0
 10
0.574643
 20
115.267
 30
0.0
 11
0.680752
 21
115.383
 31
0.0
  0
LINE
  8
0
 62
     0
 10
0.680752
 20
115.383
 30
0.0
 11
0.796505
 21
115.489
 31
0.0
  0
LINE
  8
0
 62
     0
 10
0.796505
 20
115.489
 30
0.0
 11
0.919152
 21
115.587
 31
0.0
  0
LINE
  8
0
 62
     0
 10
0.919152
 20
115.587
 30
0.0
 11
1.05006
 21
115.674
 31
0.0
  0
LINE
  8
0
 62
     0
 10
1.05006
 20
115.674
 30
0.0
 11
1.18787
 21
115.751
 31
0.0
  0
LINE
  8
0
 62
     0
 10
1.18787
 20
115.751
 30
0.0
 11
1.32981
 21
115.816
 31
0.0
  0
LINE
  8
0
 62
     0
 10
1.32981
 20
115.816
 30
0.0
 11
1.47588
 21
115.871
 31
0.0
  0
LINE
  8
0
 62
     0
 10
1.47588
 20
115.871
 30
0.0
 11
1.62884
 21
115.914
 31
0.0
  0
LINE
  8
0
 62
     0
 10
1.62884
 20
115.914
 30
0.0
 11
1.7818
 21
115.944
 31
0.0
  0
LINE
  8
0
 62
     0
 10
1.7818
 20
115.944
 30
0.0
 11
1.9389
 21
115.962
 31
0.0
  0
LINE
  8
0
 62
     0
 10
1.9389
 20
115.962
 30
0.0
 11
2.096
 21
115.969
 31
0.0
  0
LINE
  8
0
 62
     0
 10
2.096
 20
115.969
 30
0.0
 11
291.12
 21
115.969
 31
0.0
  0
LINE
  8
0
 62
     0
 10
288.761
 20
5.27237
 30
0.0
 11
288.502
 21
5.14145
 31
0.0
  0
LINE
  8
0
 62
     0
 10
288.502
 20
5.14145
 30
0.0
 11
288.298
 21
4.93614
 31
0.0
  0
LINE
  8
0
 62
     0
 10
288.298
 20
4.93614
 30
0.0
 11
288.167
 21
4.67843
 31
0.0
  0
LINE
  8
0
 62
     0
 10
288.167
 20
4.67843
 30
0.0
 11
288.12
 21
4.3918
 31
0.0
  0
LINE
  8
0
 62
     0
 10
288.12
 20
4.3918
 30
0.0
 11
288.167
 21
4.10792
 31
0.0
  0
LINE
  8
0
 62
     0
 10
288.167
 20
4.10792
 30
0.0
 11
288.298
 21
3.84888
 31
0.0
  0
LINE
  8
0
 62
     0
 10
288.298
 20
3.84888
 30
0.0
 11
288.502
 21
3.6449
 31
0.0
  0
LINE
  8
0
 62
     0
 10
288.502
 20
3.6449
 30
0.0
 11
288.761
 21
3.514
 31
0.0
  0
LINE
  8
0
 62
     0
 10
288.761
 20
3.514
 30
0.0
 11
289.045
 21
3.46715
 31
0.0
  0
LINE
  8
0
 62
     0
 10
289.045
 20
3.46715
 30
0.0
 11
289.331
 21
3.514
 31
0.0
  0
LINE
  8
0
 62
     0
 10
289.331
 20
3.514
 30
0.0
 11
289.589
 21
3.6449
 31
0.0
  0
LINE
  8
0
 62
     0
 10
289.589
 20
3.6449
 30
0.0
 11
289.795
 21
3.84888
 31
0.0
  0
LINE
  8
0
 62
     0
 10
289.795
 20
3.84888
 30
0.0
 11
289.925
 21
4.10792
 31
0.0
  0
LINE
  8
0
 62
     0
 10
289.925
 20
4.10792
 30
0.0
 11
289.971
 21
4.3918
 31
0.0
  0
LINE
  8
0
 62
     0
 10
289.971
 20
4.3918
 30
0.0
 11
289.925
 21
4.67843
 31
0.0
  0
LINE
  8
0
 62
     0
 10
289.925
 20
4.67843
 30
0.0
 11
289.795
 21
4.93614
 31
0.0
  0
LINE
  8
0
 62
     0
 10
289.795
 20
4.93614
 30
0.0
 11
289.589
 21
5.14145
 31
0.0
  0
LINE
  8
0
 62
     0
 10
289.589
 20
5.14145
 30
0.0
 11
289.331
 21
5.27237
 31
0.0
  0
LINE
  8
0
 62
     0
 10
289.331
 20
5.27237
 30
0.0
 11
289.045
 21
5.31784
 31
0.0
  0
LINE
  8
0
 62
     0
 10
289.045
 20
5.31784
 30
0.0
 11
288.761
 21
5.27237
 31
0.0
  0
LINE
  8
0
 62
     0
 10
3.88468
 20
5.27237
 30
0.0
 11
3.62701
 21
5.14145
 31
0.0
  0
LINE
  8
0
 62
     0
 10
3.62701
 20
5.14145
 30
0.0
 11
3.42167
 21
4.93614
 31
0.0
  0
LINE
  8
0
 62
     0
 10
3.42167
 20
4.93614
 30
0.0
 11
3.29076
 21
4.67843
 31
0.0
  0
LINE
  8
0
 62
     0
 10
3.29076
 20
4.67843
 30
0.0
 11
3.2439
 21
4.3918
 31
0.0
  0
LINE
  8
0
 62
     0
 10
3.2439
 20
4.3918
 30
0.0
 11
3.29076
 21
4.10792
 31
0.0
  0
LINE
  8
0
 62
     0
 10
3.29076
 20
4.10792
 30
0.0
 11
3.42167
 21
3.84888
 31
0.0
  0
LINE
  8
0
 62
     0
 10
3.42167
 20
3.84888
 30
0.0
 11
3.62701
 21
3.6449
 31
0.0
  0
LINE
  8
0
 62
     0
 10
3.62701
 20
3.6449
 30
0.0
 11
3.88468
 21
3.514
 31
0.0
  0
LINE
  8
0
 62
     0
 10
3.88468
 20
3.514
 30
0.0
 11
4.16994
 21
3.46715
 31
0.0
  0
LINE
  8
0
 62
     0
 10
4.16994
 20
3.46715
 30
0.0
 11
4.4552
 21
3.514
 31
0.0
  0
LINE
  8
0
 62
     0
 10
4.4552
 20
3.514
 30
0.0
 11
4.7129
 21
3.6449
 31
0.0
  0
LINE
  8
0
 62
     0
 10
4.7129
 20
3.6449
 30
0.0
 11
4.91822
 21
3.84888
 31
0.0
  0
LINE
  8
0
 62
     0
 10
4.91822
 20
3.84888
 30
0.0
 11
5.04913
 21
4.10792
 31
0.0
  0
LINE
  8
0
 62
     0
 10
5.04913
 20
4.10792
 30
0.0
 11
5.0946
 21
4.3918
 31
0.0
  0
LINE
  8
0
 62
     0
 10
5.0946
 20
4.3918
 30
0.0
 11
5.04913
 21
4.67843
 31
0.0
  0
LINE
  8
0
 62
     0
 10
5.04913
 20
4.67843
 30
0.0
 11
4.91822
 21
4.93614
 31
0.0
  0
LINE
  8
0
 62
     0
 10
4.91822
 20
4.93614
 30
0.0
 11
4.7129
 21
5.14145
 31
0.0
  0
LINE
  8
0
 62
     0
 10
4.7129
 20
5.14145
 30
0.0
 11
4.4552
 21
5.27237
 31
0.0
  0
LINE
  8
0
 62
     0
 10
4.4552
 20
5.27237
 30
0.0
 11
4.16994
 21
5.31784
 31
0.0
  0
LINE
  8
0
 62
     0
 10
4.16994
 20
5.31784
 30
0.0
 11
3.88468
 21
5.27237
 31
0.0
  0
LINE
  8
0
 62
     0
 10
10.1699
 20
68.895
 30
0.0
 11
65.6717
 21
68.895
 31
0.0
  0
LINE
  8
0
 62
     0
 10
65.6717
 20
68.895
 30
0.0
 11
65.6717
 21
50.3922
 31
0.0
  0
LINE
  8
0
 62
     0
 10
65.6717
 20
50.3922
 30
0.0
 11
10.1699
 21
50.3922
 31
0.0
  0
LINE
  8
0
 62
     0
 10
10.1699
 20
50.3922
 30
0.0
 11
10.1699
 21
68.895
 31
0.0
  0
LINE
  8
0
 62
     0
 10
70.2952
 20
68.895
 30
0.0
 11
144.297
 21
68.895
 31
0.0
  0
LINE
  8
0
 62
     0
 10
144.297
 20
68.895
 30
0.0
 11
144.297
 21
50.3922
 31
0.0
  0
LINE
  8
0
 62
     0
 10
144.297
 20
50.3922
 30
0.0
 11
70.2952
 21
50.3922
 31
0.0
  0
LINE
  8
0
 62
     0
 10
70.2952
 20
50.3922
 30
0.0
 11
70.2952
 21
68.895
 31
0.0
  0
LINE
  8
0
 62
     0
 10
148.919
 20
68.895
 30
0.0
 11
185.922
 21
68.895
 31
0.0
  0
LINE
  8
0
 62
     0
 10
185.922
 20
68.895
 30
0.0
 11
185.922
 21
50.3922
 31
0.0
  0
LINE
  8
0
 62
     0
 10
185.922
 20
50.3922
 30
0.0
 11
148.919
 21
50.3922
 31
0.0
  0
LINE
  8
0
 62
     0
 10
148.919
 20
50.3922
 30
0.0
 11
148.919
 21
68.895
 31
0.0
  0
LINE
  8
0
 62
     0
 10
190.544
 20
68.895
 30
0.0
 11
283.045
 21
68.895
 31
0.0
  0
LINE
  8
0
 62
     0
 10
283.045
 20
68.895
 30
0.0
 11
283.045
 21
50.3922
 31
0.0
  0
LINE
  8
0
 62
     0
 10
283.045
 20
50.3922
 30
0.0
 11
190.544
 21
50.3922
 31
0.0
  0
LINE
  8
0
 62
     0
 10
190.544
 20
50.3922
 30
0.0
 11
190.544
 21
68.895
 31
0.0
  0
LINE
  8
0
 62
     0
 10
10.1699
 20
105.894
 30
0.0
 11
250.672
 21
105.894
 31
0.0
  0
LINE
  8
0
 62
     0
 10
250.672
 20
105.894
 30
0.0
 11
250.672
 21
87.3926
 31
0.0
  0
LINE
  8
0
 62
     0
 10
250.672
 20
87.3926
 30
0.0
 11
10.1699
 21
87.3926
 31
0.0
  0
LINE
  8
0
 62
     0
 10
10.1699
 20
87.3926
 30
0.0
 11
10.1699
 21
105.894
 31
0.0
  0
LINE
  8
0
 62
     0
 10
255.294
 20
105.894
 30
0.0
 11
283.045
 21
105.894
 31
0.0
  0
LINE
  8
0
 62
     0
 10
283.045
 20
105.894
 30
0.0
 11
283.045
 21
87.3926
 31
0.0
  0
LINE
  8
0
 62
     0
 10
283.045
 20
87.3926
 30
0.0
 11
255.294
 21
87.3926
 31
0.0
  0
LINE
  8
0
 62
     0
 10
255.294
 20
87.3926
 30
0.0
 11
255.294
 21
105.894
 31
0.0
  0
LINE
  8
0
 62
     0
 10
288.761
 20
112.773
 30
0.0
 11
288.502
 21
112.642
 31
0.0
  0
LINE
  8
0
 62
     0
 10
288.502
 20
112.642
 30
0.0
 11
288.298
 21
112.437
 31
0.0
  0
LINE
  8
0
 62
     0
 10
288.298
 20
112.437
 30
0.0
 11
288.167
 21
112.179
 31
0.0
  0
LINE
  8
0
 62
     0
 10
288.167
 20
112.179
 30
0.0
 11
288.12
 21
111.894
 31
0.0
  0
LINE
  8
0
 62
     0
 10
288.12
 20
111.894
 30
0.0
 11
288.167
 21
111.609
 31
0.0
  0
LINE
  8
0
 62
     0
 10
288.167
 20
111.609
 30
0.0
 11
288.298
 21
111.351
 31
0.0
  0
LINE
  8
0
 62
     0
 10
288.298
 20
111.351
 30
0.0
 11
288.502
 21
111.146
 31
0.0
  0
LINE
  8
0
 62
     0
 10
288.502
 20
111.146
 30
0.0
 11
288.761
 21
111.015
 31
0.0
  0
LINE
  8
0
 62
     0
 10
288.761
 20
111.015
 30
0.0
 11
289.045
 21
110.968
 31
0.0
  0
LINE
  8
0
 62
     0
 10
289.045
 20
110.968
 30
0.0
 11
289.331
 21
111.015
 31
0.0
  0
LINE
  8
0
 62
     0
 10
289.331
 20
111.015
 30
0.0
 11
289.589
 21
111.146
 31
0.0
  0
LINE
  8
0
 62
     0
 10
289.589
 20
111.146
 30
0.0
 11
289.795
 21
111.351
 31
0.0
  0
LINE
  8
0
 62
     0
 10
289.795
 20
111.351
 30
0.0
 11
289.925
 21
111.609
 31
0.0
  0
LINE
  8
0
 62
     0
 10
289.925
 20
111.609
 30
0.0
 11
289.971
 21
111.894
 31
0.0
  0
LINE
  8
0
 62
     0
 10
289.971
 20
111.894
 30
0.0
 11
289.925
 21
112.179
 31
0.0
  0
LINE
  8
0
 62
     0
 10
289.925
 20
112.179
 30
0.0
 11
289.795
 21
112.437
 31
0.0
  0
LINE
  8
0
 62
     0
 10
289.795
 20
112.437
 30
0.0
 11
289.589
 21
112.642
 31
0.0
  0
LINE
  8
0
 62
     0
 10
289.589
 20
112.642
 30
0.0
 11
289.331
 21
112.773
 31
0.0
  0
LINE
  8
0
 62
     0
 10
289.331
 20
112.773
 30
0.0
 11
289.045
 21
112.82
 31
0.0
  0
LINE
  8
0
 62
     0
 10
289.045
 20
112.82
 30
0.0
 11
288.761
 21
112.773
 31
0.0
  0
LINE
  8
0
 62
     0
 10
3.88468
 20
112.773
 30
0.0
 11
3.62701
 21
112.642
 31
0.0
  0
LINE
  8
0
 62
     0
 10
3.62701
 20
112.642
 30
0.0
 11
3.42167
 21
112.437
 31
0.0
  0
LINE
  8
0
 62
     0
 10
3.42167
 20
112.437
 30
0.0
 11
3.29076
 21
112.179
 31
0.0
  0
LINE
  8
0
 62
     0
 10
3.29076
 20
112.179
 30
0.0
 11
3.2439
 21
111.894
 31
0.0
  0
LINE
  8
0
 62
     0
 10
3.2439
 20
111.894
 30
0.0
 11
3.29076
 21
111.609
 31
0.0
  0
LINE
  8
0
 62
     0
 10
3.29076
 20
111.609
 30
0.0
 11
3.42167
 21
111.351
 31
0.0
  0
LINE
  8
0
 62
     0
 10
3.42167
 20
111.351
 30
0.0
 11
3.62701
 21
111.146
 31
0.0
  0
LINE
  8
0
 62
     0
 10
3.62701
 20
111.146
 30
0.0
 11
3.88468
 21
111.015
 31
0.0
  0
LINE
  8
0
 62
     0
 10
3.88468
 20
111.015
 30
0.0
 11
4.16994
 21
110.968
 31
0.0
  0
LINE
  8
0
 62
     0
 10
4.16994
 20
110.968
 30
0.0
 11
4.4552
 21
111.015
 31
0.0
  0
LINE
  8
0
 62
     0
 10
4.4552
 20
111.015
 30
0.0
 11
4.7129
 21
111.146
 31
0.0
  0
LINE
  8
0
 62
     0
 10
4.7129
 20
111.146
 30
0.0
 11
4.91822
 21
111.351
 31
0.0
  0
LINE
  8
0
 62
     0
 10
4.91822
 20
111.351
 30
0.0
 11
5.04913
 21
111.609
 31
0.0
  0
LINE
  8
0
 62
     0
 10
5.04913
 20
111.609
 30
0.0
 11
5.0946
 21
111.894
 31
0.0
  0
LINE
  8
0
 62
     0
 10
5.0946
 20
111.894
 30
0.0
 11
5.04913
 21
112.179
 31
0.0
  0
LINE
  8
0
 62
     0
 10
5.04913
 20
112.179
 30
0.0
 11
4.91822
 21
112.437
 31
0.0
  0
LINE
  8
0
 62
     0
 10
4.91822
 20
112.437
 30
0.0
 11
4.7129
 21
112.642
 31
0.0
  0
LINE
  8
0
 62
     0
 10
4.7129
 20
112.642
 30
0.0
 11
4.4552
 21
112.773
 31
0.0
  0
LINE
  8
0
 62
     0
 10
4.4552
 20
112.773
 30
0.0
 11
4.16994
 21
112.819
 31
0.0
  0
LINE
  8
0
 62
     0
 10
4.16994
 20
112.819
 30
0.0
 11
3.88468
 21
112.773
 31
0.0
  0
ENDSEC
  0
EOF
