<?xml version="1.0" encoding="UTF-8"?>
<!-- Generated by SVGo -->
<svg width="303.027mm" height="125.652mm" viewBox="0.000 0.000 303.027 125.652" xmlns="http://www.w3.org/2000/svg" xmlns:xlink="http://www.w3.org/1999/xlink">
<polygon points="296.026,5.001 296.183,5.007 296.339,5.025 296.493,5.056 296.645,5.098 296.792,5.153 296.934,5.218 297.071,5.295 297.202,5.382 297.325,5.480 297.441,5.586 297.547,5.702 297.645,5.825 297.732,5.956 297.809,6.093 297.874,6.235 297.929,6.382 297.971,6.534 298.002,6.688 298.020,6.844 298.027,7.001 298.026,118.652 298.020,118.808 298.002,118.964 297.971,119.118 297.929,119.270 297.874,119.417 297.809,119.559 297.732,119.696 297.645,119.827 297.547,119.950 297.441,120.066 297.325,120.172 297.202,120.270 297.071,120.357 296.934,120.434 296.792,120.499 296.645,120.554 296.493,120.596 296.339,120.627 296.183,120.645 296.026,120.651 7.001,120.652 6.844,120.645 6.688,120.627 6.534,120.596 6.382,120.554 6.235,120.499 6.093,120.434 5.956,120.357 5.825,120.270 5.702,120.172 5.586,120.066 5.480,119.950 5.382,119.827 5.295,119.696 5.218,119.559 5.153,119.417 5.098,119.270 5.056,119.118 5.025,118.964 5.007,118.808 5.000,118.652 5.001,7.001 5.007,6.844 5.025,6.688 5.056,6.534 5.098,6.382 5.153,6.235 5.218,6.093 5.295,5.956 5.382,5.825 5.480,5.702 5.586,5.586 5.702,5.480 5.825,5.382 5.956,5.295 6.093,5.218 6.235,5.153 6.382,5.098 6.534,5.056 6.688,5.025 6.844,5.007 7.001,5.000" style="fill:none;stroke-width:0.050000mm;stroke:black"/>
<polygon points="293.666,115.697 293.408,115.828 293.203,116.033 293.072,116.291 293.026,116.577 293.072,116.862 293.203,117.120 293.408,117.325 293.666,117.456 293.951,117.502 294.237,117.456 294.495,117.325 294.700,117.120 294.831,116.862 294.877,116.577 294.831,116.291 294.700,116.033 294.495,115.828 294.237,115.697 293.951,115.652" style="fill:none;stroke-width:0.050000mm;stroke:black"/>
<polygon points="8.790,115.697 8.532,115.828 8.327,116.033 8.196,116.291 8.149,116.577 8.196,116.862 8.327,117.120 8.532,117.325 8.790,117.456 9.075,117.502 9.361,117.456 9.619,117.325 9.824,117.120 9.955,116.862 10.000,116.577 9.955,116.291 9.824,116.033 9.619,115.828 9.361,115.697 9.075,115.652" style="fill:none;stroke-width:0.050000mm;stroke:black"/>
<polygon points="17.401,54.401 17.401,68.251 31.251,68.251 31.251,54.401" style="fill:none;stroke-width:0.050000mm;stroke:black"/>
<polygon points="35.901,54.401 35.901,68.251 49.751,68.251 49.751,54.401" style="fill:none;stroke-width:0.050000mm;stroke:black"/>
<polygon points="54.401,54.401 54.401,68.251 68.251,68.251 68.251,54.401" style="fill:none;stroke-width:0.050000mm;stroke:black"/>
<polygon points="77.526,54.401 77.526,68.251 91.376,68.251 91.376,54.401" style="fill:none;stroke-width:0.050000mm;stroke:black"/>
<polygon points="96.026,54.401 96.026,68.251 109.876,68.251 109.876,54.401" style="fill:none;stroke-width:0.050000mm;stroke:black"/>
<polygon points="114.526,54.401 114.526,68.251 128.376,68.251 128.376,54.401" style="fill:none;stroke-width:0.050000mm;stroke:black"/>
<polygon points="133.025,54.401 133.025,68.251 146.876,68.251 146.876,54.401" style="fill:none;stroke-width:0.050000mm;stroke:black"/>
<polygon points="156.150,54.401 156.150,68.251 170.001,68.251 170.001,54.401" style="fill:none;stroke-width:0.050000mm;stroke:black"/>
<polygon points="174.650,54.401 174.650,68.251 188.501,68.251 188.501,54.401" style="fill:none;stroke-width:0.050000mm;stroke:black"/>
<polygon points="197.775,54.401 197.775,68.251 211.626,68.251 211.626,54.401" style="fill:none;stroke-width:0.050000mm;stroke:black"/>
<polygon points="216.275,54.401 216.275,68.251 230.126,68.251 230.126,54.401" style="fill:none;stroke-width:0.050000mm;stroke:black"/>
<polygon points="234.775,54.401 234.775,68.251 248.626,68.251 248.626,54.401" style="fill:none;stroke-width:0.050000mm;stroke:black"/>
<polygon points="253.275,54.401 253.275,68.251 267.126,68.251 267.126,54.401" style="fill:none;stroke-width:0.050000mm;stroke:black"/>
<polygon points="271.776,54.401 271.776,68.251 285.626,68.251 285.626,54.401" style="fill:none;stroke-width:0.050000mm;stroke:black"/>
<polygon points="17.401,17.401 17.401,31.251 31.251,31.251 31.251,17.401" style="fill:none;stroke-width:0.050000mm;stroke:black"/>
<polygon points="35.901,17.401 35.901,31.251 49.751,31.251 49.751,17.401" style="fill:none;stroke-width:0.050000mm;stroke:black"/>
<polygon points="54.401,17.401 54.401,31.251 68.251,31.251 68.251,17.401" style="fill:none;stroke-width:0.050000mm;stroke:black"/>
<polygon points="72.901,17.401 72.901,31.251 86.751,31.251 86.751,17.401" style="fill:none;stroke-width:0.050000mm;stroke:black"/>
<polygon points="91.401,17.401 91.401,31.251 105.251,31.251 105.251,17.401" style="fill:none;stroke-width:0.050000mm;stroke:black"/>
<polygon points="109.901,17.401 109.901,31.251 123.751,31.251 123.751,17.401" style="fill:none;stroke-width:0.050000mm;stroke:black"/>
<polygon points="128.400,17.401 128.400,31.251 142.251,31.251 142.251,17.401" style="fill:none;stroke-width:0.050000mm;stroke:black"/>
<polygon points="146.900,17.401 146.900,31.251 160.751,31.251 160.751,17.401" style="fill:none;stroke-width:0.050000mm;stroke:black"/>
<polygon points="165.400,17.401 165.400,31.251 179.251,31.251 179.251,17.401" style="fill:none;stroke-width:0.050000mm;stroke:black"/>
<polygon points="183.900,17.401 183.900,31.251 197.751,31.251 197.751,17.401" style="fill:none;stroke-width:0.050000mm;stroke:black"/>
<polygon points="202.400,17.401 202.400,31.251 216.251,31.251 216.251,17.401" style="fill:none;stroke-width:0.050000mm;stroke:black"/>
<polygon points="220.900,17.401 220.900,31.251 234.751,31.251 234.751,17.401" style="fill:none;stroke-width:0.050000mm;stroke:black"/>
<polygon points="239.400,17.401 239.400,31.251 253.251,31.251 253.251,17.401" style="fill:none;stroke-width:0.050000mm;stroke:black"/>
<polygon points="267.151,17.401 267.151,31.251 281.001,31.251 281.001,17.401" style="fill:none;stroke-width:0.050000mm;stroke:black"/>
<polygon points="293.666,8.196 293.408,8.327 293.203,8.532 293.072,8.790 293.026,9.076 293.072,9.361 293.203,9.619 293.408,9.824 293.666,9.955 293.951,10.001 294.237,9.955 294.495,9.824 294.700,9.619 294.831,9.361 294.877,9.076 294.831,8.790 294.700,8.532 294.495,8.327 294.237,8.196 293.951,8.149" style="fill:none;stroke-width:0.050000mm;stroke:black"/>
<polygon points="8.790,8.196 8.532,8.327 8.327,8.532 8.196,8.790 8.149,9.076 8.196,9.361 8.327,9.619 8.532,9.824 8.790,9.955 9.075,10.001 9.361,9.955 9.619,9.824 9.824,9.619 9.955,9.361 10.000,9.076 9.955,8.790 9.824,8.532 9.619,8.327 9.361,8.196 9.075,8.151" style="fill:none;stroke-width:0.050000mm;stroke:black"/>
</svg>