  0
SECTION
  2
HEADER
  9
$ACADVER
  1
AC1009
  9
$FILLMODE
 70
 0
  9
$SPLFRAME
 70
 1
  9
$EXTMIN
 10
0
 20
0
 30
0.0
  9
$EXTMAX
 10
1058.33
 20
1058.33
 30
0.0
  0
ENDSEC
  0
SECTION
  2
TABLES
  0
TABLE
  2
LAYER
 70
1
  0
LAYER
  2
0
 70
     0
 62
     7
  6
CONTINUOUS
  0
ENDTAB
  0
ENDSEC
  0
SECTION
  2
ENTITIES
  0
LINE
  8
0
 62
     0
 10
291.12
 20
111.383
 30
0.0
 11
291.277
 21
111.376
 31
0.0
  0
LINE
  8
0
 62
     0
 10
291.277
 20
111.376
 30
0.0
 11
291.433
 21
111.358
 31
0.0
  0
LINE
  8
0
 62
     0
 10
291.433
 20
111.358
 30
0.0
 11
291.587
 21
111.327
 31
0.0
  0
LINE
  8
0
 62
     0
 10
291.587
 20
111.327
 30
0.0
 11
291.739
 21
111.285
 31
0.0
  0
LINE
  8
0
 62
     0
 10
291.739
 20
111.285
 30
0.0
 11
291.887
 21
111.23
 31
0.0
  0
LINE
  8
0
 62
     0
 10
291.887
 20
111.23
 30
0.0
 11
292.028
 21
111.165
 31
0.0
  0
LINE
  8
0
 62
     0
 10
292.028
 20
111.165
 30
0.0
 11
292.166
 21
111.088
 31
0.0
  0
LINE
  8
0
 62
     0
 10
292.166
 20
111.088
 30
0.0
 11
292.297
 21
111.001
 31
0.0
  0
LINE
  8
0
 62
     0
 10
292.297
 20
111.001
 30
0.0
 11
292.42
 21
110.903
 31
0.0
  0
LINE
  8
0
 62
     0
 10
292.42
 20
110.903
 30
0.0
 11
292.535
 21
110.797
 31
0.0
  0
LINE
  8
0
 62
     0
 10
292.535
 20
110.797
 30
0.0
 11
292.642
 21
110.681
 31
0.0
  0
LINE
  8
0
 62
     0
 10
292.642
 20
110.681
 30
0.0
 11
292.74
 21
110.559
 31
0.0
  0
LINE
  8
0
 62
     0
 10
292.74
 20
110.559
 30
0.0
 11
292.826
 21
110.428
 31
0.0
  0
LINE
  8
0
 62
     0
 10
292.826
 20
110.428
 30
0.0
 11
292.903
 21
110.29
 31
0.0
  0
LINE
  8
0
 62
     0
 10
292.903
 20
110.29
 30
0.0
 11
292.968
 21
110.148
 31
0.0
  0
LINE
  8
0
 62
     0
 10
292.968
 20
110.148
 30
0.0
 11
293.023
 21
110.002
 31
0.0
  0
LINE
  8
0
 62
     0
 10
293.023
 20
110.002
 30
0.0
 11
293.066
 21
109.849
 31
0.0
  0
LINE
  8
0
 62
     0
 10
293.066
 20
109.849
 30
0.0
 11
293.096
 21
109.696
 31
0.0
  0
LINE
  8
0
 62
     0
 10
293.096
 20
109.696
 30
0.0
 11
293.114
 21
109.539
 31
0.0
  0
LINE
  8
0
 62
     0
 10
293.114
 20
109.539
 30
0.0
 11
293.121
 21
109.382
 31
0.0
  0
LINE
  8
0
 62
     0
 10
293.121
 20
109.382
 30
0.0
 11
293.121
 21
2.35645
 31
0.0
  0
LINE
  8
0
 62
     0
 10
293.121
 20
2.35645
 30
0.0
 11
293.114
 21
2.20073
 31
0.0
  0
LINE
  8
0
 62
     0
 10
293.114
 20
2.20073
 30
0.0
 11
293.096
 21
2.04363
 31
0.0
  0
LINE
  8
0
 62
     0
 10
293.096
 20
2.04363
 30
0.0
 11
293.066
 21
1.89067
 31
0.0
  0
LINE
  8
0
 62
     0
 10
293.066
 20
1.89067
 30
0.0
 11
293.023
 21
1.73771
 31
0.0
  0
LINE
  8
0
 62
     0
 10
293.023
 20
1.73771
 30
0.0
 11
292.968
 21
1.59163
 31
0.0
  0
LINE
  8
0
 62
     0
 10
292.968
 20
1.59163
 30
0.0
 11
292.903
 21
1.4497
 31
0.0
  0
LINE
  8
0
 62
     0
 10
292.903
 20
1.4497
 30
0.0
 11
292.826
 21
1.31189
 31
0.0
  0
LINE
  8
0
 62
     0
 10
292.826
 20
1.31189
 30
0.0
 11
292.74
 21
1.18098
 31
0.0
  0
LINE
  8
0
 62
     0
 10
292.74
 20
1.18098
 30
0.0
 11
292.642
 21
1.05833
 31
0.0
  0
LINE
  8
0
 62
     0
 10
292.642
 20
1.05833
 30
0.0
 11
292.535
 21
0.94258
 31
0.0
  0
LINE
  8
0
 62
     0
 10
292.535
 20
0.94258
 30
0.0
 11
292.42
 21
0.836468
 31
0.0
  0
LINE
  8
0
 62
     0
 10
292.42
 20
0.836468
 30
0.0
 11
292.297
 21
0.738628
 31
0.0
  0
LINE
  8
0
 62
     0
 10
292.297
 20
0.738628
 30
0.0
 11
292.166
 21
0.651813
 31
0.0
  0
LINE
  8
0
 62
     0
 10
292.166
 20
0.651813
 30
0.0
 11
292.028
 21
0.574643
 31
0.0
  0
LINE
  8
0
 62
     0
 10
292.028
 20
0.574643
 30
0.0
 11
291.887
 21
0.509873
 31
0.0
  0
LINE
  8
0
 62
     0
 10
291.887
 20
0.509873
 30
0.0
 11
291.739
 21
0.454752
 31
0.0
  0
LINE
  8
0
 62
     0
 10
291.739
 20
0.454752
 30
0.0
 11
291.587
 21
0.412034
 31
0.0
  0
LINE
  8
0
 62
     0
 10
291.587
 20
0.412034
 30
0.0
 11
291.433
 21
0.381716
 31
0.0
  0
LINE
  8
0
 62
     0
 10
291.433
 20
0.381716
 30
0.0
 11
291.277
 21
0.363802
 31
0.0
  0
LINE
  8
0
 62
     0
 10
291.277
 20
0.363802
 30
0.0
 11
291.12
 21
0.356912
 31
0.0
  0
LINE
  8
0
 62
     0
 10
291.12
 20
0.356912
 30
0.0
 11
2.096
 21
0.356912
 31
0.0
  0
LINE
  8
0
 62
     0
 10
2.096
 20
0.356912
 30
0.0
 11
1.9389
 21
0.363802
 31
0.0
  0
LINE
  8
0
 62
     0
 10
1.9389
 20
0.363802
 30
0.0
 11
1.7818
 21
0.381716
 31
0.0
  0
LINE
  8
0
 62
     0
 10
1.7818
 20
0.381716
 30
0.0
 11
1.62884
 21
0.412034
 31
0.0
  0
LINE
  8
0
 62
     0
 10
1.62884
 20
0.412034
 30
0.0
 11
1.47588
 21
0.454752
 31
0.0
  0
LINE
  8
0
 62
     0
 10
1.47588
 20
0.454752
 30
0.0
 11
1.32981
 21
0.509873
 31
0.0
  0
LINE
  8
0
 62
     0
 10
1.32981
 20
0.509873
 30
0.0
 11
1.18787
 21
0.574643
 31
0.0
  0
LINE
  8
0
 62
     0
 10
1.18787
 20
0.574643
 30
0.0
 11
1.05006
 21
0.651813
 31
0.0
  0
LINE
  8
0
 62
     0
 10
1.05006
 20
0.651813
 30
0.0
 11
0.919152
 21
0.738628
 31
0.0
  0
LINE
  8
0
 62
     0
 10
0.919152
 20
0.738628
 30
0.0
 11
0.796505
 21
0.836468
 31
0.0
  0
LINE
  8
0
 62
     0
 10
0.796505
 20
0.836468
 30
0.0
 11
0.680752
 21
0.94258
 31
0.0
  0
LINE
  8
0
 62
     0
 10
0.680752
 20
0.94258
 30
0.0
 11
0.574643
 21
1.05833
 31
0.0
  0
LINE
  8
0
 62
     0
 10
0.574643
 20
1.05833
 30
0.0
 11
0.4768
 21
1.18098
 31
0.0
  0
LINE
  8
0
 62
     0
 10
0.4768
 20
1.18098
 30
0.0
 11
0.389985
 21
1.31189
 31
0.0
  0
LINE
  8
0
 62
     0
 10
0.389985
 20
1.31189
 30
0.0
 11
0.312815
 21
1.4497
 31
0.0
  0
LINE
  8
0
 62
     0
 10
0.312815
 20
1.4497
 30
0.0
 11
0.248047
 21
1.59163
 31
0.0
  0
LINE
  8
0
 62
     0
 10
0.248047
 20
1.59163
 30
0.0
 11
0.192925
 21
1.73771
 31
0.0
  0
LINE
  8
0
 62
     0
 10
0.192925
 20
1.73771
 30
0.0
 11
0.150206
 21
1.89067
 31
0.0
  0
LINE
  8
0
 62
     0
 10
0.150206
 20
1.89067
 30
0.0
 11
0.119889
 21
2.04363
 31
0.0
  0
LINE
  8
0
 62
     0
 10
0.119889
 20
2.04363
 30
0.0
 11
0.101975
 21
2.20073
 31
0.0
  0
LINE
  8
0
 62
     0
 10
0.101975
 20
2.20073
 30
0.0
 11
0.0950846
 21
2.35645
 31
0.0
  0
LINE
  8
0
 62
     0
 10
0.0950846
 20
2.35645
 30
0.0
 11
0.0950846
 21
109.382
 31
0.0
  0
LINE
  8
0
 62
     0
 10
0.0950846
 20
109.382
 30
0.0
 11
0.101975
 21
109.539
 31
0.0
  0
LINE
  8
0
 62
     0
 10
0.101975
 20
109.539
 30
0.0
 11
0.119889
 21
109.696
 31
0.0
  0
LINE
  8
0
 62
     0
 10
0.119889
 20
109.696
 30
0.0
 11
0.150206
 21
109.849
 31
0.0
  0
LINE
  8
0
 62
     0
 10
0.150206
 20
109.849
 30
0.0
 11
0.192925
 21
110.002
 31
0.0
  0
LINE
  8
0
 62
     0
 10
0.192925
 20
110.002
 30
0.0
 11
0.248047
 21
110.148
 31
0.0
  0
LINE
  8
0
 62
     0
 10
0.248047
 20
110.148
 30
0.0
 11
0.312815
 21
110.29
 31
0.0
  0
LINE
  8
0
 62
     0
 10
0.312815
 20
110.29
 30
0.0
 11
0.389985
 21
110.428
 31
0.0
  0
LINE
  8
0
 62
     0
 10
0.389985
 20
110.428
 30
0.0
 11
0.4768
 21
110.559
 31
0.0
  0
LINE
  8
0
 62
     0
 10
0.4768
 20
110.559
 30
0.0
 11
0.574643
 21
110.681
 31
0.0
  0
LINE
  8
0
 62
     0
 10
0.574643
 20
110.681
 30
0.0
 11
0.680752
 21
110.797
 31
0.0
  0
LINE
  8
0
 62
     0
 10
0.680752
 20
110.797
 30
0.0
 11
0.796505
 21
110.903
 31
0.0
  0
LINE
  8
0
 62
     0
 10
0.796505
 20
110.903
 30
0.0
 11
0.919152
 21
111.001
 31
0.0
  0
LINE
  8
0
 62
     0
 10
0.919152
 20
111.001
 30
0.0
 11
1.05006
 21
111.088
 31
0.0
  0
LINE
  8
0
 62
     0
 10
1.05006
 20
111.088
 30
0.0
 11
1.18787
 21
111.165
 31
0.0
  0
LINE
  8
0
 62
     0
 10
1.18787
 20
111.165
 30
0.0
 11
1.32981
 21
111.23
 31
0.0
  0
LINE
  8
0
 62
     0
 10
1.32981
 20
111.23
 30
0.0
 11
1.47588
 21
111.285
 31
0.0
  0
LINE
  8
0
 62
     0
 10
1.47588
 20
111.285
 30
0.0
 11
1.62884
 21
111.327
 31
0.0
  0
LINE
  8
0
 62
     0
 10
1.62884
 20
111.327
 30
0.0
 11
1.7818
 21
111.358
 31
0.0
  0
LINE
  8
0
 62
     0
 10
1.7818
 20
111.358
 30
0.0
 11
1.9389
 21
111.376
 31
0.0
  0
LINE
  8
0
 62
     0
 10
1.9389
 20
111.376
 30
0.0
 11
2.096
 21
111.383
 31
0.0
  0
LINE
  8
0
 62
     0
 10
2.096
 20
111.383
 30
0.0
 11
291.12
 21
111.383
 31
0.0
  0
ENDSEC
  0
EOF
