  0
SECTION
  2
HEADER
  9
$ACADVER
  1
AC1009
  9
$FILLMODE
 70
 0
  9
$SPLFRAME
 70
 1
  9
$EXTMIN
 10
0
 20
0
 30
0.0
  9
$EXTMAX
 10
1058.33
 20
1058.33
 30
0.0
  0
ENDSEC
  0
SECTION
  2
TABLES
  0
TABLE
  2
LAYER
 70
1
  0
LAYER
  2
0
 70
     0
 62
     7
  6
CONTINUOUS
  0
ENDTAB
  0
ENDSEC
  0
SECTION
  2
ENTITIES
  0
LINE
  8
0
 62
     0
 10
291.12
 20
115.969
 30
0.0
 11
291.277
 21
115.962
 31
0.0
  0
LINE
  8
0
 62
     0
 10
291.277
 20
115.962
 30
0.0
 11
291.433
 21
115.944
 31
0.0
  0
LINE
  8
0
 62
     0
 10
291.433
 20
115.944
 30
0.0
 11
291.587
 21
115.914
 31
0.0
  0
LINE
  8
0
 62
     0
 10
291.587
 20
115.914
 30
0.0
 11
291.739
 21
115.871
 31
0.0
  0
LINE
  8
0
 62
     0
 10
291.739
 20
115.871
 30
0.0
 11
291.887
 21
115.816
 31
0.0
  0
LINE
  8
0
 62
     0
 10
291.887
 20
115.816
 30
0.0
 11
292.028
 21
115.751
 31
0.0
  0
LINE
  8
0
 62
     0
 10
292.028
 20
115.751
 30
0.0
 11
292.166
 21
115.674
 31
0.0
  0
LINE
  8
0
 62
     0
 10
292.166
 20
115.674
 30
0.0
 11
292.297
 21
115.587
 31
0.0
  0
LINE
  8
0
 62
     0
 10
292.297
 20
115.587
 30
0.0
 11
292.42
 21
115.489
 31
0.0
  0
LINE
  8
0
 62
     0
 10
292.42
 20
115.489
 30
0.0
 11
292.535
 21
115.383
 31
0.0
  0
LINE
  8
0
 62
     0
 10
292.535
 20
115.383
 30
0.0
 11
292.642
 21
115.267
 31
0.0
  0
LINE
  8
0
 62
     0
 10
292.642
 20
115.267
 30
0.0
 11
292.74
 21
115.145
 31
0.0
  0
LINE
  8
0
 62
     0
 10
292.74
 20
115.145
 30
0.0
 11
292.826
 21
115.014
 31
0.0
  0
LINE
  8
0
 62
     0
 10
292.826
 20
115.014
 30
0.0
 11
292.903
 21
114.876
 31
0.0
  0
LINE
  8
0
 62
     0
 10
292.903
 20
114.876
 30
0.0
 11
292.968
 21
114.734
 31
0.0
  0
LINE
  8
0
 62
     0
 10
292.968
 20
114.734
 30
0.0
 11
293.023
 21
114.588
 31
0.0
  0
LINE
  8
0
 62
     0
 10
293.023
 20
114.588
 30
0.0
 11
293.066
 21
114.435
 31
0.0
  0
LINE
  8
0
 62
     0
 10
293.066
 20
114.435
 30
0.0
 11
293.096
 21
114.282
 31
0.0
  0
LINE
  8
0
 62
     0
 10
293.096
 20
114.282
 30
0.0
 11
293.114
 21
114.125
 31
0.0
  0
LINE
  8
0
 62
     0
 10
293.114
 20
114.125
 30
0.0
 11
293.121
 21
113.968
 31
0.0
  0
LINE
  8
0
 62
     0
 10
293.121
 20
113.968
 30
0.0
 11
293.121
 21
2.31786
 31
0.0
  0
LINE
  8
0
 62
     0
 10
293.121
 20
2.31786
 30
0.0
 11
293.114
 21
2.16076
 31
0.0
  0
LINE
  8
0
 62
     0
 10
293.114
 20
2.16076
 30
0.0
 11
293.096
 21
2.00504
 31
0.0
  0
LINE
  8
0
 62
     0
 10
293.096
 20
2.00504
 30
0.0
 11
293.066
 21
1.85208
 31
0.0
  0
LINE
  8
0
 62
     0
 10
293.066
 20
1.85208
 30
0.0
 11
293.023
 21
1.69912
 31
0.0
  0
LINE
  8
0
 62
     0
 10
293.023
 20
1.69912
 30
0.0
 11
292.968
 21
1.55305
 31
0.0
  0
LINE
  8
0
 62
     0
 10
292.968
 20
1.55305
 30
0.0
 11
292.903
 21
1.40973
 31
0.0
  0
LINE
  8
0
 62
     0
 10
292.903
 20
1.40973
 30
0.0
 11
292.826
 21
1.27331
 31
0.0
  0
LINE
  8
0
 62
     0
 10
292.826
 20
1.27331
 30
0.0
 11
292.74
 21
1.14239
 31
0.0
  0
LINE
  8
0
 62
     0
 10
292.74
 20
1.14239
 30
0.0
 11
292.642
 21
1.01975
 31
0.0
  0
LINE
  8
0
 62
     0
 10
292.642
 20
1.01975
 30
0.0
 11
292.535
 21
0.903993
 31
0.0
  0
LINE
  8
0
 62
     0
 10
292.535
 20
0.903993
 30
0.0
 11
292.42
 21
0.797885
 31
0.0
  0
LINE
  8
0
 62
     0
 10
292.42
 20
0.797885
 30
0.0
 11
292.297
 21
0.700045
 31
0.0
  0
LINE
  8
0
 62
     0
 10
292.297
 20
0.700045
 30
0.0
 11
292.166
 21
0.611851
 31
0.0
  0
LINE
  8
0
 62
     0
 10
292.166
 20
0.611851
 30
0.0
 11
292.028
 21
0.536056
 31
0.0
  0
LINE
  8
0
 62
     0
 10
292.028
 20
0.536056
 30
0.0
 11
291.887
 21
0.469911
 31
0.0
  0
LINE
  8
0
 62
     0
 10
291.887
 20
0.469911
 30
0.0
 11
291.739
 21
0.414789
 31
0.0
  0
LINE
  8
0
 62
     0
 10
291.739
 20
0.414789
 30
0.0
 11
291.587
 21
0.373447
 31
0.0
  0
LINE
  8
0
 62
     0
 10
291.587
 20
0.373447
 30
0.0
 11
291.433
 21
0.341753
 31
0.0
  0
LINE
  8
0
 62
     0
 10
291.433
 20
0.341753
 30
0.0
 11
291.277
 21
0.323839
 31
0.0
  0
LINE
  8
0
 62
     0
 10
291.277
 20
0.323839
 30
0.0
 11
291.12
 21
0.318327
 31
0.0
  0
LINE
  8
0
 62
     0
 10
291.12
 20
0.318327
 30
0.0
 11
2.096
 21
0.316949
 31
0.0
  0
LINE
  8
0
 62
     0
 10
2.096
 20
0.316949
 30
0.0
 11
1.9389
 21
0.323839
 31
0.0
  0
LINE
  8
0
 62
     0
 10
1.9389
 20
0.323839
 30
0.0
 11
1.7818
 21
0.341753
 31
0.0
  0
LINE
  8
0
 62
     0
 10
1.7818
 20
0.341753
 30
0.0
 11
1.62884
 21
0.373447
 31
0.0
  0
LINE
  8
0
 62
     0
 10
1.62884
 20
0.373447
 30
0.0
 11
1.47588
 21
0.414789
 31
0.0
  0
LINE
  8
0
 62
     0
 10
1.47588
 20
0.414789
 30
0.0
 11
1.32981
 21
0.469911
 31
0.0
  0
LINE
  8
0
 62
     0
 10
1.32981
 20
0.469911
 30
0.0
 11
1.18787
 21
0.536056
 31
0.0
  0
LINE
  8
0
 62
     0
 10
1.18787
 20
0.536056
 30
0.0
 11
1.05006
 21
0.611851
 31
0.0
  0
LINE
  8
0
 62
     0
 10
1.05006
 20
0.611851
 30
0.0
 11
0.919152
 21
0.700045
 31
0.0
  0
LINE
  8
0
 62
     0
 10
0.919152
 20
0.700045
 30
0.0
 11
0.796505
 21
0.797885
 31
0.0
  0
LINE
  8
0
 62
     0
 10
0.796505
 20
0.797885
 30
0.0
 11
0.680752
 21
0.903993
 31
0.0
  0
LINE
  8
0
 62
     0
 10
0.680752
 20
0.903993
 30
0.0
 11
0.574643
 21
1.01975
 31
0.0
  0
LINE
  8
0
 62
     0
 10
0.574643
 20
1.01975
 30
0.0
 11
0.4768
 21
1.14239
 31
0.0
  0
LINE
  8
0
 62
     0
 10
0.4768
 20
1.14239
 30
0.0
 11
0.389985
 21
1.27331
 31
0.0
  0
LINE
  8
0
 62
     0
 10
0.389985
 20
1.27331
 30
0.0
 11
0.312815
 21
1.40973
 31
0.0
  0
LINE
  8
0
 62
     0
 10
0.312815
 20
1.40973
 30
0.0
 11
0.248047
 21
1.55305
 31
0.0
  0
LINE
  8
0
 62
     0
 10
0.248047
 20
1.55305
 30
0.0
 11
0.192925
 21
1.69912
 31
0.0
  0
LINE
  8
0
 62
     0
 10
0.192925
 20
1.69912
 30
0.0
 11
0.150206
 21
1.85208
 31
0.0
  0
LINE
  8
0
 62
     0
 10
0.150206
 20
1.85208
 30
0.0
 11
0.119889
 21
2.00504
 31
0.0
  0
LINE
  8
0
 62
     0
 10
0.119889
 20
2.00504
 30
0.0
 11
0.101975
 21
2.16076
 31
0.0
  0
LINE
  8
0
 62
     0
 10
0.101975
 20
2.16076
 30
0.0
 11
0.0950846
 21
2.31786
 31
0.0
  0
LINE
  8
0
 62
     0
 10
0.0950846
 20
2.31786
 30
0.0
 11
0.0950846
 21
113.968
 31
0.0
  0
LINE
  8
0
 62
     0
 10
0.0950846
 20
113.968
 30
0.0
 11
0.101975
 21
114.125
 31
0.0
  0
LINE
  8
0
 62
     0
 10
0.101975
 20
114.125
 30
0.0
 11
0.119889
 21
114.282
 31
0.0
  0
LINE
  8
0
 62
     0
 10
0.119889
 20
114.282
 30
0.0
 11
0.150206
 21
114.435
 31
0.0
  0
LINE
  8
0
 62
     0
 10
0.150206
 20
114.435
 30
0.0
 11
0.192925
 21
114.588
 31
0.0
  0
LINE
  8
0
 62
     0
 10
0.192925
 20
114.588
 30
0.0
 11
0.248047
 21
114.734
 31
0.0
  0
LINE
  8
0
 62
     0
 10
0.248047
 20
114.734
 30
0.0
 11
0.312815
 21
114.876
 31
0.0
  0
LINE
  8
0
 62
     0
 10
0.312815
 20
114.876
 30
0.0
 11
0.389985
 21
115.014
 31
0.0
  0
LINE
  8
0
 62
     0
 10
0.389985
 20
115.014
 30
0.0
 11
0.4768
 21
115.145
 31
0.0
  0
LINE
  8
0
 62
     0
 10
0.4768
 20
115.145
 30
0.0
 11
0.574643
 21
115.267
 31
0.0
  0
LINE
  8
0
 62
     0
 10
0.574643
 20
115.267
 30
0.0
 11
0.680752
 21
115.383
 31
0.0
  0
LINE
  8
0
 62
     0
 10
0.680752
 20
115.383
 30
0.0
 11
0.796505
 21
115.489
 31
0.0
  0
LINE
  8
0
 62
     0
 10
0.796505
 20
115.489
 30
0.0
 11
0.919152
 21
115.587
 31
0.0
  0
LINE
  8
0
 62
     0
 10
0.919152
 20
115.587
 30
0.0
 11
1.05006
 21
115.674
 31
0.0
  0
LINE
  8
0
 62
     0
 10
1.05006
 20
115.674
 30
0.0
 11
1.18787
 21
115.751
 31
0.0
  0
LINE
  8
0
 62
     0
 10
1.18787
 20
115.751
 30
0.0
 11
1.32981
 21
115.816
 31
0.0
  0
LINE
  8
0
 62
     0
 10
1.32981
 20
115.816
 30
0.0
 11
1.47588
 21
115.871
 31
0.0
  0
LINE
  8
0
 62
     0
 10
1.47588
 20
115.871
 30
0.0
 11
1.62884
 21
115.914
 31
0.0
  0
LINE
  8
0
 62
     0
 10
1.62884
 20
115.914
 30
0.0
 11
1.7818
 21
115.944
 31
0.0
  0
LINE
  8
0
 62
     0
 10
1.7818
 20
115.944
 30
0.0
 11
1.9389
 21
115.962
 31
0.0
  0
LINE
  8
0
 62
     0
 10
1.9389
 20
115.962
 30
0.0
 11
2.096
 21
115.969
 31
0.0
  0
LINE
  8
0
 62
     0
 10
2.096
 20
115.969
 30
0.0
 11
291.12
 21
115.969
 31
0.0
  0
LINE
  8
0
 62
     0
 10
288.761
 20
5.27237
 30
0.0
 11
288.502
 21
5.14145
 31
0.0
  0
LINE
  8
0
 62
     0
 10
288.502
 20
5.14145
 30
0.0
 11
288.298
 21
4.93614
 31
0.0
  0
LINE
  8
0
 62
     0
 10
288.298
 20
4.93614
 30
0.0
 11
288.167
 21
4.67843
 31
0.0
  0
LINE
  8
0
 62
     0
 10
288.167
 20
4.67843
 30
0.0
 11
288.12
 21
4.3918
 31
0.0
  0
LINE
  8
0
 62
     0
 10
288.12
 20
4.3918
 30
0.0
 11
288.167
 21
4.10792
 31
0.0
  0
LINE
  8
0
 62
     0
 10
288.167
 20
4.10792
 30
0.0
 11
288.298
 21
3.84888
 31
0.0
  0
LINE
  8
0
 62
     0
 10
288.298
 20
3.84888
 30
0.0
 11
288.502
 21
3.6449
 31
0.0
  0
LINE
  8
0
 62
     0
 10
288.502
 20
3.6449
 30
0.0
 11
288.761
 21
3.514
 31
0.0
  0
LINE
  8
0
 62
     0
 10
288.761
 20
3.514
 30
0.0
 11
289.045
 21
3.46715
 31
0.0
  0
LINE
  8
0
 62
     0
 10
289.045
 20
3.46715
 30
0.0
 11
289.331
 21
3.514
 31
0.0
  0
LINE
  8
0
 62
     0
 10
289.331
 20
3.514
 30
0.0
 11
289.589
 21
3.6449
 31
0.0
  0
LINE
  8
0
 62
     0
 10
289.589
 20
3.6449
 30
0.0
 11
289.795
 21
3.84888
 31
0.0
  0
LINE
  8
0
 62
     0
 10
289.795
 20
3.84888
 30
0.0
 11
289.925
 21
4.10792
 31
0.0
  0
LINE
  8
0
 62
     0
 10
289.925
 20
4.10792
 30
0.0
 11
289.971
 21
4.3918
 31
0.0
  0
LINE
  8
0
 62
     0
 10
289.971
 20
4.3918
 30
0.0
 11
289.925
 21
4.67843
 31
0.0
  0
LINE
  8
0
 62
     0
 10
289.925
 20
4.67843
 30
0.0
 11
289.795
 21
4.93614
 31
0.0
  0
LINE
  8
0
 62
     0
 10
289.795
 20
4.93614
 30
0.0
 11
289.589
 21
5.14145
 31
0.0
  0
LINE
  8
0
 62
     0
 10
289.589
 20
5.14145
 30
0.0
 11
289.331
 21
5.27237
 31
0.0
  0
LINE
  8
0
 62
     0
 10
289.331
 20
5.27237
 30
0.0
 11
289.045
 21
5.31784
 31
0.0
  0
LINE
  8
0
 62
     0
 10
289.045
 20
5.31784
 30
0.0
 11
288.761
 21
5.27237
 31
0.0
  0
LINE
  8
0
 62
     0
 10
3.88468
 20
5.27237
 30
0.0
 11
3.62701
 21
5.14145
 31
0.0
  0
LINE
  8
0
 62
     0
 10
3.62701
 20
5.14145
 30
0.0
 11
3.42167
 21
4.93614
 31
0.0
  0
LINE
  8
0
 62
     0
 10
3.42167
 20
4.93614
 30
0.0
 11
3.29076
 21
4.67843
 31
0.0
  0
LINE
  8
0
 62
     0
 10
3.29076
 20
4.67843
 30
0.0
 11
3.2439
 21
4.3918
 31
0.0
  0
LINE
  8
0
 62
     0
 10
3.2439
 20
4.3918
 30
0.0
 11
3.29076
 21
4.10792
 31
0.0
  0
LINE
  8
0
 62
     0
 10
3.29076
 20
4.10792
 30
0.0
 11
3.42167
 21
3.84888
 31
0.0
  0
LINE
  8
0
 62
     0
 10
3.42167
 20
3.84888
 30
0.0
 11
3.62701
 21
3.6449
 31
0.0
  0
LINE
  8
0
 62
     0
 10
3.62701
 20
3.6449
 30
0.0
 11
3.88468
 21
3.514
 31
0.0
  0
LINE
  8
0
 62
     0
 10
3.88468
 20
3.514
 30
0.0
 11
4.16994
 21
3.46715
 31
0.0
  0
LINE
  8
0
 62
     0
 10
4.16994
 20
3.46715
 30
0.0
 11
4.4552
 21
3.514
 31
0.0
  0
LINE
  8
0
 62
     0
 10
4.4552
 20
3.514
 30
0.0
 11
4.7129
 21
3.6449
 31
0.0
  0
LINE
  8
0
 62
     0
 10
4.7129
 20
3.6449
 30
0.0
 11
4.91822
 21
3.84888
 31
0.0
  0
LINE
  8
0
 62
     0
 10
4.91822
 20
3.84888
 30
0.0
 11
5.04913
 21
4.10792
 31
0.0
  0
LINE
  8
0
 62
     0
 10
5.04913
 20
4.10792
 30
0.0
 11
5.0946
 21
4.3918
 31
0.0
  0
LINE
  8
0
 62
     0
 10
5.0946
 20
4.3918
 30
0.0
 11
5.04913
 21
4.67843
 31
0.0
  0
LINE
  8
0
 62
     0
 10
5.04913
 20
4.67843
 30
0.0
 11
4.91822
 21
4.93614
 31
0.0
  0
LINE
  8
0
 62
     0
 10
4.91822
 20
4.93614
 30
0.0
 11
4.7129
 21
5.14145
 31
0.0
  0
LINE
  8
0
 62
     0
 10
4.7129
 20
5.14145
 30
0.0
 11
4.4552
 21
5.27237
 31
0.0
  0
LINE
  8
0
 62
     0
 10
4.4552
 20
5.27237
 30
0.0
 11
4.16994
 21
5.31784
 31
0.0
  0
LINE
  8
0
 62
     0
 10
4.16994
 20
5.31784
 30
0.0
 11
3.88468
 21
5.27237
 31
0.0
  0
LINE
  8
0
 62
     0
 10
12.4961
 20
66.5688
 30
0.0
 11
26.3453
 21
66.5688
 31
0.0
  0
LINE
  8
0
 62
     0
 10
26.3453
 20
66.5688
 30
0.0
 11
26.3453
 21
52.7184
 31
0.0
  0
LINE
  8
0
 62
     0
 10
26.3453
 20
52.7184
 30
0.0
 11
12.4961
 21
52.7184
 31
0.0
  0
LINE
  8
0
 62
     0
 10
12.4961
 20
52.7184
 30
0.0
 11
12.4961
 21
66.5688
 31
0.0
  0
LINE
  8
0
 62
     0
 10
30.9948
 20
66.5688
 30
0.0
 11
44.8455
 21
66.5688
 31
0.0
  0
LINE
  8
0
 62
     0
 10
44.8455
 20
66.5688
 30
0.0
 11
44.8455
 21
52.7184
 31
0.0
  0
LINE
  8
0
 62
     0
 10
44.8455
 20
52.7184
 30
0.0
 11
30.9948
 21
52.7184
 31
0.0
  0
LINE
  8
0
 62
     0
 10
30.9948
 20
52.7184
 30
0.0
 11
30.9948
 21
66.5688
 31
0.0
  0
LINE
  8
0
 62
     0
 10
49.4951
 20
66.5688
 30
0.0
 11
63.3458
 21
66.5688
 31
0.0
  0
LINE
  8
0
 62
     0
 10
63.3458
 20
66.5688
 30
0.0
 11
63.3458
 21
52.7184
 31
0.0
  0
LINE
  8
0
 62
     0
 10
63.3458
 20
52.7184
 30
0.0
 11
49.4951
 21
52.7184
 31
0.0
  0
LINE
  8
0
 62
     0
 10
49.4951
 20
52.7184
 30
0.0
 11
49.4951
 21
66.5688
 31
0.0
  0
LINE
  8
0
 62
     0
 10
72.62
 20
66.5688
 30
0.0
 11
86.4704
 21
66.5688
 31
0.0
  0
LINE
  8
0
 62
     0
 10
86.4704
 20
66.5688
 30
0.0
 11
86.4704
 21
52.7184
 31
0.0
  0
LINE
  8
0
 62
     0
 10
86.4704
 20
52.7184
 30
0.0
 11
72.62
 21
52.7184
 31
0.0
  0
LINE
  8
0
 62
     0
 10
72.62
 20
52.7184
 30
0.0
 11
72.62
 21
66.5688
 31
0.0
  0
LINE
  8
0
 62
     0
 10
91.12
 20
66.5688
 30
0.0
 11
104.971
 21
66.5688
 31
0.0
  0
LINE
  8
0
 62
     0
 10
104.971
 20
66.5688
 30
0.0
 11
104.971
 21
52.7184
 31
0.0
  0
LINE
  8
0
 62
     0
 10
104.971
 20
52.7184
 30
0.0
 11
91.12
 21
52.7184
 31
0.0
  0
LINE
  8
0
 62
     0
 10
91.12
 20
52.7184
 30
0.0
 11
91.12
 21
66.5688
 31
0.0
  0
LINE
  8
0
 62
     0
 10
109.62
 20
66.5688
 30
0.0
 11
123.471
 21
66.5688
 31
0.0
  0
LINE
  8
0
 62
     0
 10
123.471
 20
66.5688
 30
0.0
 11
123.471
 21
52.7184
 31
0.0
  0
LINE
  8
0
 62
     0
 10
123.471
 20
52.7184
 30
0.0
 11
109.62
 21
52.7184
 31
0.0
  0
LINE
  8
0
 62
     0
 10
109.62
 20
52.7184
 30
0.0
 11
109.62
 21
66.5688
 31
0.0
  0
LINE
  8
0
 62
     0
 10
128.119
 20
66.5688
 30
0.0
 11
141.971
 21
66.5688
 31
0.0
  0
LINE
  8
0
 62
     0
 10
141.971
 20
66.5688
 30
0.0
 11
141.971
 21
52.7184
 31
0.0
  0
LINE
  8
0
 62
     0
 10
141.971
 20
52.7184
 30
0.0
 11
128.119
 21
52.7184
 31
0.0
  0
LINE
  8
0
 62
     0
 10
128.119
 20
52.7184
 30
0.0
 11
128.119
 21
66.5688
 31
0.0
  0
LINE
  8
0
 62
     0
 10
151.244
 20
66.5688
 30
0.0
 11
165.096
 21
66.5688
 31
0.0
  0
LINE
  8
0
 62
     0
 10
165.096
 20
66.5688
 30
0.0
 11
165.096
 21
52.7184
 31
0.0
  0
LINE
  8
0
 62
     0
 10
165.096
 20
52.7184
 30
0.0
 11
151.244
 21
52.7184
 31
0.0
  0
LINE
  8
0
 62
     0
 10
151.244
 20
52.7184
 30
0.0
 11
151.244
 21
66.5688
 31
0.0
  0
LINE
  8
0
 62
     0
 10
169.744
 20
66.5688
 30
0.0
 11
183.596
 21
66.5688
 31
0.0
  0
LINE
  8
0
 62
     0
 10
183.596
 20
66.5688
 30
0.0
 11
183.596
 21
52.7184
 31
0.0
  0
LINE
  8
0
 62
     0
 10
183.596
 20
52.7184
 30
0.0
 11
169.744
 21
52.7184
 31
0.0
  0
LINE
  8
0
 62
     0
 10
169.744
 20
52.7184
 30
0.0
 11
169.744
 21
66.5688
 31
0.0
  0
LINE
  8
0
 62
     0
 10
192.869
 20
66.5688
 30
0.0
 11
206.721
 21
66.5688
 31
0.0
  0
LINE
  8
0
 62
     0
 10
206.721
 20
66.5688
 30
0.0
 11
206.721
 21
52.7184
 31
0.0
  0
LINE
  8
0
 62
     0
 10
206.721
 20
52.7184
 30
0.0
 11
192.869
 21
52.7184
 31
0.0
  0
LINE
  8
0
 62
     0
 10
192.869
 20
52.7184
 30
0.0
 11
192.869
 21
66.5688
 31
0.0
  0
LINE
  8
0
 62
     0
 10
211.369
 20
66.5688
 30
0.0
 11
225.221
 21
66.5688
 31
0.0
  0
LINE
  8
0
 62
     0
 10
225.221
 20
66.5688
 30
0.0
 11
225.221
 21
52.7184
 31
0.0
  0
LINE
  8
0
 62
     0
 10
225.221
 20
52.7184
 30
0.0
 11
211.369
 21
52.7184
 31
0.0
  0
LINE
  8
0
 62
     0
 10
211.369
 20
52.7184
 30
0.0
 11
211.369
 21
66.5688
 31
0.0
  0
LINE
  8
0
 62
     0
 10
229.869
 20
66.5688
 30
0.0
 11
243.72
 21
66.5688
 31
0.0
  0
LINE
  8
0
 62
     0
 10
243.72
 20
66.5688
 30
0.0
 11
243.72
 21
52.7184
 31
0.0
  0
LINE
  8
0
 62
     0
 10
243.72
 20
52.7184
 30
0.0
 11
229.869
 21
52.7184
 31
0.0
  0
LINE
  8
0
 62
     0
 10
229.869
 20
52.7184
 30
0.0
 11
229.869
 21
66.5688
 31
0.0
  0
LINE
  8
0
 62
     0
 10
248.369
 20
66.5688
 30
0.0
 11
262.22
 21
66.5688
 31
0.0
  0
LINE
  8
0
 62
     0
 10
262.22
 20
66.5688
 30
0.0
 11
262.22
 21
52.7184
 31
0.0
  0
LINE
  8
0
 62
     0
 10
262.22
 20
52.7184
 30
0.0
 11
248.369
 21
52.7184
 31
0.0
  0
LINE
  8
0
 62
     0
 10
248.369
 20
52.7184
 30
0.0
 11
248.369
 21
66.5688
 31
0.0
  0
LINE
  8
0
 62
     0
 10
266.871
 20
66.5688
 30
0.0
 11
280.72
 21
66.5688
 31
0.0
  0
LINE
  8
0
 62
     0
 10
280.72
 20
66.5688
 30
0.0
 11
280.72
 21
52.7184
 31
0.0
  0
LINE
  8
0
 62
     0
 10
280.72
 20
52.7184
 30
0.0
 11
266.871
 21
52.7184
 31
0.0
  0
LINE
  8
0
 62
     0
 10
266.871
 20
52.7184
 30
0.0
 11
266.871
 21
66.5688
 31
0.0
  0
LINE
  8
0
 62
     0
 10
12.4961
 20
103.568
 30
0.0
 11
26.3453
 21
103.568
 31
0.0
  0
LINE
  8
0
 62
     0
 10
26.3453
 20
103.568
 30
0.0
 11
26.3453
 21
89.7184
 31
0.0
  0
LINE
  8
0
 62
     0
 10
26.3453
 20
89.7184
 30
0.0
 11
12.4961
 21
89.7184
 31
0.0
  0
LINE
  8
0
 62
     0
 10
12.4961
 20
89.7184
 30
0.0
 11
12.4961
 21
103.568
 31
0.0
  0
LINE
  8
0
 62
     0
 10
30.9948
 20
103.568
 30
0.0
 11
44.8455
 21
103.568
 31
0.0
  0
LINE
  8
0
 62
     0
 10
44.8455
 20
103.568
 30
0.0
 11
44.8455
 21
89.7184
 31
0.0
  0
LINE
  8
0
 62
     0
 10
44.8455
 20
89.7184
 30
0.0
 11
30.9948
 21
89.7184
 31
0.0
  0
LINE
  8
0
 62
     0
 10
30.9948
 20
89.7184
 30
0.0
 11
30.9948
 21
103.568
 31
0.0
  0
LINE
  8
0
 62
     0
 10
49.4951
 20
103.568
 30
0.0
 11
63.3458
 21
103.568
 31
0.0
  0
LINE
  8
0
 62
     0
 10
63.3458
 20
103.568
 30
0.0
 11
63.3458
 21
89.7184
 31
0.0
  0
LINE
  8
0
 62
     0
 10
63.3458
 20
89.7184
 30
0.0
 11
49.4951
 21
89.7184
 31
0.0
  0
LINE
  8
0
 62
     0
 10
49.4951
 20
89.7184
 30
0.0
 11
49.4951
 21
103.568
 31
0.0
  0
LINE
  8
0
 62
     0
 10
67.9951
 20
103.568
 30
0.0
 11
81.8459
 21
103.568
 31
0.0
  0
LINE
  8
0
 62
     0
 10
81.8459
 20
103.568
 30
0.0
 11
81.8459
 21
89.7184
 31
0.0
  0
LINE
  8
0
 62
     0
 10
81.8459
 20
89.7184
 30
0.0
 11
67.9951
 21
89.7184
 31
0.0
  0
LINE
  8
0
 62
     0
 10
67.9951
 20
89.7184
 30
0.0
 11
67.9951
 21
103.568
 31
0.0
  0
LINE
  8
0
 62
     0
 10
86.4955
 20
103.568
 30
0.0
 11
100.346
 21
103.568
 31
0.0
  0
LINE
  8
0
 62
     0
 10
100.346
 20
103.568
 30
0.0
 11
100.346
 21
89.7184
 31
0.0
  0
LINE
  8
0
 62
     0
 10
100.346
 20
89.7184
 30
0.0
 11
86.4955
 21
89.7184
 31
0.0
  0
LINE
  8
0
 62
     0
 10
86.4955
 20
89.7184
 30
0.0
 11
86.4955
 21
103.568
 31
0.0
  0
LINE
  8
0
 62
     0
 10
104.995
 20
103.568
 30
0.0
 11
118.846
 21
103.568
 31
0.0
  0
LINE
  8
0
 62
     0
 10
118.846
 20
103.568
 30
0.0
 11
118.846
 21
89.7184
 31
0.0
  0
LINE
  8
0
 62
     0
 10
118.846
 20
89.7184
 30
0.0
 11
104.995
 21
89.7184
 31
0.0
  0
LINE
  8
0
 62
     0
 10
104.995
 20
89.7184
 30
0.0
 11
104.995
 21
103.568
 31
0.0
  0
LINE
  8
0
 62
     0
 10
123.494
 20
103.568
 30
0.0
 11
137.345
 21
103.568
 31
0.0
  0
LINE
  8
0
 62
     0
 10
137.345
 20
103.568
 30
0.0
 11
137.345
 21
89.7184
 31
0.0
  0
LINE
  8
0
 62
     0
 10
137.345
 20
89.7184
 30
0.0
 11
123.494
 21
89.7184
 31
0.0
  0
LINE
  8
0
 62
     0
 10
123.494
 20
89.7184
 30
0.0
 11
123.494
 21
103.568
 31
0.0
  0
LINE
  8
0
 62
     0
 10
141.994
 20
103.568
 30
0.0
 11
155.845
 21
103.568
 31
0.0
  0
LINE
  8
0
 62
     0
 10
155.845
 20
103.568
 30
0.0
 11
155.845
 21
89.7184
 31
0.0
  0
LINE
  8
0
 62
     0
 10
155.845
 20
89.7184
 30
0.0
 11
141.994
 21
89.7184
 31
0.0
  0
LINE
  8
0
 62
     0
 10
141.994
 20
89.7184
 30
0.0
 11
141.994
 21
103.568
 31
0.0
  0
LINE
  8
0
 62
     0
 10
160.494
 20
103.568
 30
0.0
 11
174.345
 21
103.568
 31
0.0
  0
LINE
  8
0
 62
     0
 10
174.345
 20
103.568
 30
0.0
 11
174.345
 21
89.7184
 31
0.0
  0
LINE
  8
0
 62
     0
 10
174.345
 20
89.7184
 30
0.0
 11
160.494
 21
89.7184
 31
0.0
  0
LINE
  8
0
 62
     0
 10
160.494
 20
89.7184
 30
0.0
 11
160.494
 21
103.568
 31
0.0
  0
LINE
  8
0
 62
     0
 10
178.995
 20
103.568
 30
0.0
 11
192.845
 21
103.568
 31
0.0
  0
LINE
  8
0
 62
     0
 10
192.845
 20
103.568
 30
0.0
 11
192.845
 21
89.7184
 31
0.0
  0
LINE
  8
0
 62
     0
 10
192.845
 20
89.7184
 30
0.0
 11
178.995
 21
89.7184
 31
0.0
  0
LINE
  8
0
 62
     0
 10
178.995
 20
89.7184
 30
0.0
 11
178.995
 21
103.568
 31
0.0
  0
LINE
  8
0
 62
     0
 10
197.495
 20
103.568
 30
0.0
 11
211.346
 21
103.568
 31
0.0
  0
LINE
  8
0
 62
     0
 10
211.346
 20
103.568
 30
0.0
 11
211.346
 21
89.7184
 31
0.0
  0
LINE
  8
0
 62
     0
 10
211.346
 20
89.7184
 30
0.0
 11
197.495
 21
89.7184
 31
0.0
  0
LINE
  8
0
 62
     0
 10
197.495
 20
89.7184
 30
0.0
 11
197.495
 21
103.568
 31
0.0
  0
LINE
  8
0
 62
     0
 10
215.995
 20
103.568
 30
0.0
 11
229.846
 21
103.568
 31
0.0
  0
LINE
  8
0
 62
     0
 10
229.846
 20
103.568
 30
0.0
 11
229.846
 21
89.7184
 31
0.0
  0
LINE
  8
0
 62
     0
 10
229.846
 20
89.7184
 30
0.0
 11
215.995
 21
89.7184
 31
0.0
  0
LINE
  8
0
 62
     0
 10
215.995
 20
89.7184
 30
0.0
 11
215.995
 21
103.568
 31
0.0
  0
LINE
  8
0
 62
     0
 10
234.494
 20
103.568
 30
0.0
 11
248.346
 21
103.568
 31
0.0
  0
LINE
  8
0
 62
     0
 10
248.346
 20
103.568
 30
0.0
 11
248.346
 21
89.7184
 31
0.0
  0
LINE
  8
0
 62
     0
 10
248.346
 20
89.7184
 30
0.0
 11
234.494
 21
89.7184
 31
0.0
  0
LINE
  8
0
 62
     0
 10
234.494
 20
89.7184
 30
0.0
 11
234.494
 21
103.568
 31
0.0
  0
LINE
  8
0
 62
     0
 10
262.246
 20
103.568
 30
0.0
 11
276.096
 21
103.568
 31
0.0
  0
LINE
  8
0
 62
     0
 10
276.096
 20
103.568
 30
0.0
 11
276.096
 21
89.7184
 31
0.0
  0
LINE
  8
0
 62
     0
 10
276.096
 20
89.7184
 30
0.0
 11
262.246
 21
89.7184
 31
0.0
  0
LINE
  8
0
 62
     0
 10
262.246
 20
89.7184
 30
0.0
 11
262.246
 21
103.568
 31
0.0
  0
LINE
  8
0
 62
     0
 10
288.761
 20
112.773
 30
0.0
 11
288.502
 21
112.642
 31
0.0
  0
LINE
  8
0
 62
     0
 10
288.502
 20
112.642
 30
0.0
 11
288.298
 21
112.437
 31
0.0
  0
LINE
  8
0
 62
     0
 10
288.298
 20
112.437
 30
0.0
 11
288.167
 21
112.179
 31
0.0
  0
LINE
  8
0
 62
     0
 10
288.167
 20
112.179
 30
0.0
 11
288.12
 21
111.894
 31
0.0
  0
LINE
  8
0
 62
     0
 10
288.12
 20
111.894
 30
0.0
 11
288.167
 21
111.609
 31
0.0
  0
LINE
  8
0
 62
     0
 10
288.167
 20
111.609
 30
0.0
 11
288.298
 21
111.351
 31
0.0
  0
LINE
  8
0
 62
     0
 10
288.298
 20
111.351
 30
0.0
 11
288.502
 21
111.146
 31
0.0
  0
LINE
  8
0
 62
     0
 10
288.502
 20
111.146
 30
0.0
 11
288.761
 21
111.015
 31
0.0
  0
LINE
  8
0
 62
     0
 10
288.761
 20
111.015
 30
0.0
 11
289.045
 21
110.968
 31
0.0
  0
LINE
  8
0
 62
     0
 10
289.045
 20
110.968
 30
0.0
 11
289.331
 21
111.015
 31
0.0
  0
LINE
  8
0
 62
     0
 10
289.331
 20
111.015
 30
0.0
 11
289.589
 21
111.146
 31
0.0
  0
LINE
  8
0
 62
     0
 10
289.589
 20
111.146
 30
0.0
 11
289.795
 21
111.351
 31
0.0
  0
LINE
  8
0
 62
     0
 10
289.795
 20
111.351
 30
0.0
 11
289.925
 21
111.609
 31
0.0
  0
LINE
  8
0
 62
     0
 10
289.925
 20
111.609
 30
0.0
 11
289.971
 21
111.894
 31
0.0
  0
LINE
  8
0
 62
     0
 10
289.971
 20
111.894
 30
0.0
 11
289.925
 21
112.179
 31
0.0
  0
LINE
  8
0
 62
     0
 10
289.925
 20
112.179
 30
0.0
 11
289.795
 21
112.437
 31
0.0
  0
LINE
  8
0
 62
     0
 10
289.795
 20
112.437
 30
0.0
 11
289.589
 21
112.642
 31
0.0
  0
LINE
  8
0
 62
     0
 10
289.589
 20
112.642
 30
0.0
 11
289.331
 21
112.773
 31
0.0
  0
LINE
  8
0
 62
     0
 10
289.331
 20
112.773
 30
0.0
 11
289.045
 21
112.82
 31
0.0
  0
LINE
  8
0
 62
     0
 10
289.045
 20
112.82
 30
0.0
 11
288.761
 21
112.773
 31
0.0
  0
LINE
  8
0
 62
     0
 10
3.88468
 20
112.773
 30
0.0
 11
3.62701
 21
112.642
 31
0.0
  0
LINE
  8
0
 62
     0
 10
3.62701
 20
112.642
 30
0.0
 11
3.42167
 21
112.437
 31
0.0
  0
LINE
  8
0
 62
     0
 10
3.42167
 20
112.437
 30
0.0
 11
3.29076
 21
112.179
 31
0.0
  0
LINE
  8
0
 62
     0
 10
3.29076
 20
112.179
 30
0.0
 11
3.2439
 21
111.894
 31
0.0
  0
LINE
  8
0
 62
     0
 10
3.2439
 20
111.894
 30
0.0
 11
3.29076
 21
111.609
 31
0.0
  0
LINE
  8
0
 62
     0
 10
3.29076
 20
111.609
 30
0.0
 11
3.42167
 21
111.351
 31
0.0
  0
LINE
  8
0
 62
     0
 10
3.42167
 20
111.351
 30
0.0
 11
3.62701
 21
111.146
 31
0.0
  0
LINE
  8
0
 62
     0
 10
3.62701
 20
111.146
 30
0.0
 11
3.88468
 21
111.015
 31
0.0
  0
LINE
  8
0
 62
     0
 10
3.88468
 20
111.015
 30
0.0
 11
4.16994
 21
110.968
 31
0.0
  0
LINE
  8
0
 62
     0
 10
4.16994
 20
110.968
 30
0.0
 11
4.4552
 21
111.015
 31
0.0
  0
LINE
  8
0
 62
     0
 10
4.4552
 20
111.015
 30
0.0
 11
4.7129
 21
111.146
 31
0.0
  0
LINE
  8
0
 62
     0
 10
4.7129
 20
111.146
 30
0.0
 11
4.91822
 21
111.351
 31
0.0
  0
LINE
  8
0
 62
     0
 10
4.91822
 20
111.351
 30
0.0
 11
5.04913
 21
111.609
 31
0.0
  0
LINE
  8
0
 62
     0
 10
5.04913
 20
111.609
 30
0.0
 11
5.0946
 21
111.894
 31
0.0
  0
LINE
  8
0
 62
     0
 10
5.0946
 20
111.894
 30
0.0
 11
5.04913
 21
112.179
 31
0.0
  0
LINE
  8
0
 62
     0
 10
5.04913
 20
112.179
 30
0.0
 11
4.91822
 21
112.437
 31
0.0
  0
LINE
  8
0
 62
     0
 10
4.91822
 20
112.437
 30
0.0
 11
4.7129
 21
112.642
 31
0.0
  0
LINE
  8
0
 62
     0
 10
4.7129
 20
112.642
 30
0.0
 11
4.4552
 21
112.773
 31
0.0
  0
LINE
  8
0
 62
     0
 10
4.4552
 20
112.773
 30
0.0
 11
4.16994
 21
112.819
 31
0.0
  0
LINE
  8
0
 62
     0
 10
4.16994
 20
112.819
 30
0.0
 11
3.88468
 21
112.773
 31
0.0
  0
ENDSEC
  0
EOF
