  0
SECTION
  2
HEADER
  9
$ACADVER
  1
AC1009
  9
$FILLMODE
 70
 0
  9
$SPLFRAME
 70
 1
  9
$EXTMIN
 10
0
 20
0
 30
0.0
  9
$EXTMAX
 10
1058.33
 20
1058.33
 30
0.0
  0
ENDSEC
  0
SECTION
  2
TABLES
  0
TABLE
  2
LAYER
 70
1
  0
LAYER
  2
0
 70
     0
 62
     7
  6
CONTINUOUS
  0
ENDTAB
  0
ENDSEC
  0
SECTION
  2
ENTITIES
  0
LINE
  8
0
 62
     0
 10
291.12
 20
106.796
 30
0.0
 11
291.277
 21
106.79
 31
0.0
  0
LINE
  8
0
 62
     0
 10
291.277
 20
106.79
 30
0.0
 11
291.433
 21
106.772
 31
0.0
  0
LINE
  8
0
 62
     0
 10
291.433
 20
106.772
 30
0.0
 11
291.587
 21
106.741
 31
0.0
  0
LINE
  8
0
 62
     0
 10
291.587
 20
106.741
 30
0.0
 11
291.739
 21
106.699
 31
0.0
  0
LINE
  8
0
 62
     0
 10
291.739
 20
106.699
 30
0.0
 11
291.887
 21
106.644
 31
0.0
  0
LINE
  8
0
 62
     0
 10
291.887
 20
106.644
 30
0.0
 11
292.028
 21
106.579
 31
0.0
  0
LINE
  8
0
 62
     0
 10
292.028
 20
106.579
 30
0.0
 11
292.166
 21
106.502
 31
0.0
  0
LINE
  8
0
 62
     0
 10
292.166
 20
106.502
 30
0.0
 11
292.297
 21
106.415
 31
0.0
  0
LINE
  8
0
 62
     0
 10
292.297
 20
106.415
 30
0.0
 11
292.42
 21
106.317
 31
0.0
  0
LINE
  8
0
 62
     0
 10
292.42
 20
106.317
 30
0.0
 11
292.535
 21
106.211
 31
0.0
  0
LINE
  8
0
 62
     0
 10
292.535
 20
106.211
 30
0.0
 11
292.642
 21
106.095
 31
0.0
  0
LINE
  8
0
 62
     0
 10
292.642
 20
106.095
 30
0.0
 11
292.74
 21
105.973
 31
0.0
  0
LINE
  8
0
 62
     0
 10
292.74
 20
105.973
 30
0.0
 11
292.826
 21
105.841
 31
0.0
  0
LINE
  8
0
 62
     0
 10
292.826
 20
105.841
 30
0.0
 11
292.903
 21
105.704
 31
0.0
  0
LINE
  8
0
 62
     0
 10
292.903
 20
105.704
 30
0.0
 11
292.968
 21
105.562
 31
0.0
  0
LINE
  8
0
 62
     0
 10
292.968
 20
105.562
 30
0.0
 11
293.023
 21
105.416
 31
0.0
  0
LINE
  8
0
 62
     0
 10
293.023
 20
105.416
 30
0.0
 11
293.066
 21
105.263
 31
0.0
  0
LINE
  8
0
 62
     0
 10
293.066
 20
105.263
 30
0.0
 11
293.096
 21
105.11
 31
0.0
  0
LINE
  8
0
 62
     0
 10
293.096
 20
105.11
 30
0.0
 11
293.114
 21
104.953
 31
0.0
  0
LINE
  8
0
 62
     0
 10
293.114
 20
104.953
 30
0.0
 11
293.121
 21
104.796
 31
0.0
  0
LINE
  8
0
 62
     0
 10
293.121
 20
104.796
 30
0.0
 11
293.121
 21
2.39503
 31
0.0
  0
LINE
  8
0
 62
     0
 10
293.121
 20
2.39503
 30
0.0
 11
293.114
 21
2.23931
 31
0.0
  0
LINE
  8
0
 62
     0
 10
293.114
 20
2.23931
 30
0.0
 11
293.096
 21
2.08359
 31
0.0
  0
LINE
  8
0
 62
     0
 10
293.096
 20
2.08359
 30
0.0
 11
293.066
 21
1.92925
 31
0.0
  0
LINE
  8
0
 62
     0
 10
293.066
 20
1.92925
 30
0.0
 11
293.023
 21
1.77767
 31
0.0
  0
LINE
  8
0
 62
     0
 10
293.023
 20
1.77767
 30
0.0
 11
292.968
 21
1.63022
 31
0.0
  0
LINE
  8
0
 62
     0
 10
292.968
 20
1.63022
 30
0.0
 11
292.903
 21
1.48828
 31
0.0
  0
LINE
  8
0
 62
     0
 10
292.903
 20
1.48828
 30
0.0
 11
292.826
 21
1.35186
 31
0.0
  0
LINE
  8
0
 62
     0
 10
292.826
 20
1.35186
 30
0.0
 11
292.74
 21
1.21956
 31
0.0
  0
LINE
  8
0
 62
     0
 10
292.74
 20
1.21956
 30
0.0
 11
292.642
 21
1.09692
 31
0.0
  0
LINE
  8
0
 62
     0
 10
292.642
 20
1.09692
 30
0.0
 11
292.535
 21
0.981163
 31
0.0
  0
LINE
  8
0
 62
     0
 10
292.535
 20
0.981163
 30
0.0
 11
292.42
 21
0.875055
 31
0.0
  0
LINE
  8
0
 62
     0
 10
292.42
 20
0.875055
 30
0.0
 11
292.297
 21
0.777215
 31
0.0
  0
LINE
  8
0
 62
     0
 10
292.297
 20
0.777215
 30
0.0
 11
292.166
 21
0.690397
 31
0.0
  0
LINE
  8
0
 62
     0
 10
292.166
 20
0.690397
 30
0.0
 11
292.028
 21
0.613227
 31
0.0
  0
LINE
  8
0
 62
     0
 10
292.028
 20
0.613227
 30
0.0
 11
291.887
 21
0.54846
 31
0.0
  0
LINE
  8
0
 62
     0
 10
291.887
 20
0.54846
 30
0.0
 11
291.739
 21
0.493339
 31
0.0
  0
LINE
  8
0
 62
     0
 10
291.739
 20
0.493339
 30
0.0
 11
291.587
 21
0.450617
 31
0.0
  0
LINE
  8
0
 62
     0
 10
291.587
 20
0.450617
 30
0.0
 11
291.433
 21
0.420303
 31
0.0
  0
LINE
  8
0
 62
     0
 10
291.433
 20
0.420303
 30
0.0
 11
291.277
 21
0.402389
 31
0.0
  0
LINE
  8
0
 62
     0
 10
291.277
 20
0.402389
 30
0.0
 11
291.12
 21
0.395496
 31
0.0
  0
LINE
  8
0
 62
     0
 10
291.12
 20
0.395496
 30
0.0
 11
2.096
 21
0.395496
 31
0.0
  0
LINE
  8
0
 62
     0
 10
2.096
 20
0.395496
 30
0.0
 11
1.9389
 21
0.402389
 31
0.0
  0
LINE
  8
0
 62
     0
 10
1.9389
 20
0.402389
 30
0.0
 11
1.7818
 21
0.420303
 31
0.0
  0
LINE
  8
0
 62
     0
 10
1.7818
 20
0.420303
 30
0.0
 11
1.62884
 21
0.450617
 31
0.0
  0
LINE
  8
0
 62
     0
 10
1.62884
 20
0.450617
 30
0.0
 11
1.47588
 21
0.493339
 31
0.0
  0
LINE
  8
0
 62
     0
 10
1.47588
 20
0.493339
 30
0.0
 11
1.32981
 21
0.54846
 31
0.0
  0
LINE
  8
0
 62
     0
 10
1.32981
 20
0.54846
 30
0.0
 11
1.18787
 21
0.613227
 31
0.0
  0
LINE
  8
0
 62
     0
 10
1.18787
 20
0.613227
 30
0.0
 11
1.05006
 21
0.690397
 31
0.0
  0
LINE
  8
0
 62
     0
 10
1.05006
 20
0.690397
 30
0.0
 11
0.919152
 21
0.777215
 31
0.0
  0
LINE
  8
0
 62
     0
 10
0.919152
 20
0.777215
 30
0.0
 11
0.796505
 21
0.875055
 31
0.0
  0
LINE
  8
0
 62
     0
 10
0.796505
 20
0.875055
 30
0.0
 11
0.680752
 21
0.981163
 31
0.0
  0
LINE
  8
0
 62
     0
 10
0.680752
 20
0.981163
 30
0.0
 11
0.574643
 21
1.09692
 31
0.0
  0
LINE
  8
0
 62
     0
 10
0.574643
 20
1.09692
 30
0.0
 11
0.4768
 21
1.21956
 31
0.0
  0
LINE
  8
0
 62
     0
 10
0.4768
 20
1.21956
 30
0.0
 11
0.389985
 21
1.35186
 31
0.0
  0
LINE
  8
0
 62
     0
 10
0.389985
 20
1.35186
 30
0.0
 11
0.312815
 21
1.48828
 31
0.0
  0
LINE
  8
0
 62
     0
 10
0.312815
 20
1.48828
 30
0.0
 11
0.248047
 21
1.63022
 31
0.0
  0
LINE
  8
0
 62
     0
 10
0.248047
 20
1.63022
 30
0.0
 11
0.192925
 21
1.77767
 31
0.0
  0
LINE
  8
0
 62
     0
 10
0.192925
 20
1.77767
 30
0.0
 11
0.150206
 21
1.92925
 31
0.0
  0
LINE
  8
0
 62
     0
 10
0.150206
 20
1.92925
 30
0.0
 11
0.119889
 21
2.08359
 31
0.0
  0
LINE
  8
0
 62
     0
 10
0.119889
 20
2.08359
 30
0.0
 11
0.101975
 21
2.23931
 31
0.0
  0
LINE
  8
0
 62
     0
 10
0.101975
 20
2.23931
 30
0.0
 11
0.0950846
 21
2.39503
 31
0.0
  0
LINE
  8
0
 62
     0
 10
0.0950846
 20
2.39503
 30
0.0
 11
0.0950846
 21
104.796
 31
0.0
  0
LINE
  8
0
 62
     0
 10
0.0950846
 20
104.796
 30
0.0
 11
0.101975
 21
104.953
 31
0.0
  0
LINE
  8
0
 62
     0
 10
0.101975
 20
104.953
 30
0.0
 11
0.119889
 21
105.11
 31
0.0
  0
LINE
  8
0
 62
     0
 10
0.119889
 20
105.11
 30
0.0
 11
0.150206
 21
105.263
 31
0.0
  0
LINE
  8
0
 62
     0
 10
0.150206
 20
105.263
 30
0.0
 11
0.192925
 21
105.416
 31
0.0
  0
LINE
  8
0
 62
     0
 10
0.192925
 20
105.416
 30
0.0
 11
0.248047
 21
105.562
 31
0.0
  0
LINE
  8
0
 62
     0
 10
0.248047
 20
105.562
 30
0.0
 11
0.312815
 21
105.704
 31
0.0
  0
LINE
  8
0
 62
     0
 10
0.312815
 20
105.704
 30
0.0
 11
0.389985
 21
105.841
 31
0.0
  0
LINE
  8
0
 62
     0
 10
0.389985
 20
105.841
 30
0.0
 11
0.4768
 21
105.973
 31
0.0
  0
LINE
  8
0
 62
     0
 10
0.4768
 20
105.973
 30
0.0
 11
0.574643
 21
106.095
 31
0.0
  0
LINE
  8
0
 62
     0
 10
0.574643
 20
106.095
 30
0.0
 11
0.680752
 21
106.211
 31
0.0
  0
LINE
  8
0
 62
     0
 10
0.680752
 20
106.211
 30
0.0
 11
0.796505
 21
106.317
 31
0.0
  0
LINE
  8
0
 62
     0
 10
0.796505
 20
106.317
 30
0.0
 11
0.919152
 21
106.415
 31
0.0
  0
LINE
  8
0
 62
     0
 10
0.919152
 20
106.415
 30
0.0
 11
1.05006
 21
106.502
 31
0.0
  0
LINE
  8
0
 62
     0
 10
1.05006
 20
106.502
 30
0.0
 11
1.18787
 21
106.579
 31
0.0
  0
LINE
  8
0
 62
     0
 10
1.18787
 20
106.579
 30
0.0
 11
1.32981
 21
106.644
 31
0.0
  0
LINE
  8
0
 62
     0
 10
1.32981
 20
106.644
 30
0.0
 11
1.47588
 21
106.699
 31
0.0
  0
LINE
  8
0
 62
     0
 10
1.47588
 20
106.699
 30
0.0
 11
1.62884
 21
106.741
 31
0.0
  0
LINE
  8
0
 62
     0
 10
1.62884
 20
106.741
 30
0.0
 11
1.7818
 21
106.772
 31
0.0
  0
LINE
  8
0
 62
     0
 10
1.7818
 20
106.772
 30
0.0
 11
1.9389
 21
106.79
 31
0.0
  0
LINE
  8
0
 62
     0
 10
1.9389
 20
106.79
 30
0.0
 11
2.096
 21
106.796
 31
0.0
  0
LINE
  8
0
 62
     0
 10
2.096
 20
106.796
 30
0.0
 11
291.12
 21
106.796
 31
0.0
  0
LINE
  8
0
 62
     0
 10
12.4961
 20
66.6461
 30
0.0
 11
26.3453
 21
66.6461
 31
0.0
  0
LINE
  8
0
 62
     0
 10
26.3453
 20
66.6461
 30
0.0
 11
26.3453
 21
52.7967
 31
0.0
  0
LINE
  8
0
 62
     0
 10
26.3453
 20
52.7967
 30
0.0
 11
12.4961
 21
52.7967
 31
0.0
  0
LINE
  8
0
 62
     0
 10
12.4961
 20
52.7967
 30
0.0
 11
12.4961
 21
66.6461
 31
0.0
  0
LINE
  8
0
 62
     0
 10
30.9948
 20
66.6461
 30
0.0
 11
44.8455
 21
66.6461
 31
0.0
  0
LINE
  8
0
 62
     0
 10
44.8455
 20
66.6461
 30
0.0
 11
44.8455
 21
52.7967
 31
0.0
  0
LINE
  8
0
 62
     0
 10
44.8455
 20
52.7967
 30
0.0
 11
30.9948
 21
52.7967
 31
0.0
  0
LINE
  8
0
 62
     0
 10
30.9948
 20
52.7967
 30
0.0
 11
30.9948
 21
66.6461
 31
0.0
  0
LINE
  8
0
 62
     0
 10
49.4951
 20
66.6461
 30
0.0
 11
63.3458
 21
66.6461
 31
0.0
  0
LINE
  8
0
 62
     0
 10
63.3458
 20
66.6461
 30
0.0
 11
63.3458
 21
52.7967
 31
0.0
  0
LINE
  8
0
 62
     0
 10
63.3458
 20
52.7967
 30
0.0
 11
49.4951
 21
52.7967
 31
0.0
  0
LINE
  8
0
 62
     0
 10
49.4951
 20
52.7967
 30
0.0
 11
49.4951
 21
66.6461
 31
0.0
  0
LINE
  8
0
 62
     0
 10
72.62
 20
66.6461
 30
0.0
 11
86.4704
 21
66.6461
 31
0.0
  0
LINE
  8
0
 62
     0
 10
86.4704
 20
66.6461
 30
0.0
 11
86.4704
 21
52.7967
 31
0.0
  0
LINE
  8
0
 62
     0
 10
86.4704
 20
52.7967
 30
0.0
 11
72.62
 21
52.7967
 31
0.0
  0
LINE
  8
0
 62
     0
 10
72.62
 20
52.7967
 30
0.0
 11
72.62
 21
66.6461
 31
0.0
  0
LINE
  8
0
 62
     0
 10
91.12
 20
66.6461
 30
0.0
 11
104.971
 21
66.6461
 31
0.0
  0
LINE
  8
0
 62
     0
 10
104.971
 20
66.6461
 30
0.0
 11
104.971
 21
52.7967
 31
0.0
  0
LINE
  8
0
 62
     0
 10
104.971
 20
52.7967
 30
0.0
 11
91.12
 21
52.7967
 31
0.0
  0
LINE
  8
0
 62
     0
 10
91.12
 20
52.7967
 30
0.0
 11
91.12
 21
66.6461
 31
0.0
  0
LINE
  8
0
 62
     0
 10
109.62
 20
66.6461
 30
0.0
 11
123.471
 21
66.6461
 31
0.0
  0
LINE
  8
0
 62
     0
 10
123.471
 20
66.6461
 30
0.0
 11
123.471
 21
52.7967
 31
0.0
  0
LINE
  8
0
 62
     0
 10
123.471
 20
52.7967
 30
0.0
 11
109.62
 21
52.7967
 31
0.0
  0
LINE
  8
0
 62
     0
 10
109.62
 20
52.7967
 30
0.0
 11
109.62
 21
66.6461
 31
0.0
  0
LINE
  8
0
 62
     0
 10
128.119
 20
66.6461
 30
0.0
 11
141.971
 21
66.6461
 31
0.0
  0
LINE
  8
0
 62
     0
 10
141.971
 20
66.6461
 30
0.0
 11
141.971
 21
52.7967
 31
0.0
  0
LINE
  8
0
 62
     0
 10
141.971
 20
52.7967
 30
0.0
 11
128.119
 21
52.7967
 31
0.0
  0
LINE
  8
0
 62
     0
 10
128.119
 20
52.7967
 30
0.0
 11
128.119
 21
66.6461
 31
0.0
  0
LINE
  8
0
 62
     0
 10
151.244
 20
66.6461
 30
0.0
 11
165.096
 21
66.6461
 31
0.0
  0
LINE
  8
0
 62
     0
 10
165.096
 20
66.6461
 30
0.0
 11
165.096
 21
52.7967
 31
0.0
  0
LINE
  8
0
 62
     0
 10
165.096
 20
52.7967
 30
0.0
 11
151.244
 21
52.7967
 31
0.0
  0
LINE
  8
0
 62
     0
 10
151.244
 20
52.7967
 30
0.0
 11
151.244
 21
66.6461
 31
0.0
  0
LINE
  8
0
 62
     0
 10
169.744
 20
66.6461
 30
0.0
 11
183.596
 21
66.6461
 31
0.0
  0
LINE
  8
0
 62
     0
 10
183.596
 20
66.6461
 30
0.0
 11
183.596
 21
52.7967
 31
0.0
  0
LINE
  8
0
 62
     0
 10
183.596
 20
52.7967
 30
0.0
 11
169.744
 21
52.7967
 31
0.0
  0
LINE
  8
0
 62
     0
 10
169.744
 20
52.7967
 30
0.0
 11
169.744
 21
66.6461
 31
0.0
  0
LINE
  8
0
 62
     0
 10
192.869
 20
66.6461
 30
0.0
 11
206.721
 21
66.6461
 31
0.0
  0
LINE
  8
0
 62
     0
 10
206.721
 20
66.6461
 30
0.0
 11
206.721
 21
52.7967
 31
0.0
  0
LINE
  8
0
 62
     0
 10
206.721
 20
52.7967
 30
0.0
 11
192.869
 21
52.7967
 31
0.0
  0
LINE
  8
0
 62
     0
 10
192.869
 20
52.7967
 30
0.0
 11
192.869
 21
66.6461
 31
0.0
  0
LINE
  8
0
 62
     0
 10
211.369
 20
66.6461
 30
0.0
 11
225.221
 21
66.6461
 31
0.0
  0
LINE
  8
0
 62
     0
 10
225.221
 20
66.6461
 30
0.0
 11
225.221
 21
52.7967
 31
0.0
  0
LINE
  8
0
 62
     0
 10
225.221
 20
52.7967
 30
0.0
 11
211.369
 21
52.7967
 31
0.0
  0
LINE
  8
0
 62
     0
 10
211.369
 20
52.7967
 30
0.0
 11
211.369
 21
66.6461
 31
0.0
  0
LINE
  8
0
 62
     0
 10
229.869
 20
66.6461
 30
0.0
 11
243.72
 21
66.6461
 31
0.0
  0
LINE
  8
0
 62
     0
 10
243.72
 20
66.6461
 30
0.0
 11
243.72
 21
52.7967
 31
0.0
  0
LINE
  8
0
 62
     0
 10
243.72
 20
52.7967
 30
0.0
 11
229.869
 21
52.7967
 31
0.0
  0
LINE
  8
0
 62
     0
 10
229.869
 20
52.7967
 30
0.0
 11
229.869
 21
66.6461
 31
0.0
  0
LINE
  8
0
 62
     0
 10
248.369
 20
66.6461
 30
0.0
 11
262.22
 21
66.6461
 31
0.0
  0
LINE
  8
0
 62
     0
 10
262.22
 20
66.6461
 30
0.0
 11
262.22
 21
52.7967
 31
0.0
  0
LINE
  8
0
 62
     0
 10
262.22
 20
52.7967
 30
0.0
 11
248.369
 21
52.7967
 31
0.0
  0
LINE
  8
0
 62
     0
 10
248.369
 20
52.7967
 30
0.0
 11
248.369
 21
66.6461
 31
0.0
  0
LINE
  8
0
 62
     0
 10
266.871
 20
66.6461
 30
0.0
 11
280.72
 21
66.6461
 31
0.0
  0
LINE
  8
0
 62
     0
 10
280.72
 20
66.6461
 30
0.0
 11
280.72
 21
52.7967
 31
0.0
  0
LINE
  8
0
 62
     0
 10
280.72
 20
52.7967
 30
0.0
 11
266.871
 21
52.7967
 31
0.0
  0
LINE
  8
0
 62
     0
 10
266.871
 20
52.7967
 30
0.0
 11
266.871
 21
66.6461
 31
0.0
  0
LINE
  8
0
 62
     0
 10
12.4961
 20
94.3956
 30
0.0
 11
26.3453
 21
94.3956
 31
0.0
  0
LINE
  8
0
 62
     0
 10
26.3453
 20
94.3956
 30
0.0
 11
26.3453
 21
80.5462
 31
0.0
  0
LINE
  8
0
 62
     0
 10
26.3453
 20
80.5462
 30
0.0
 11
12.4961
 21
80.5462
 31
0.0
  0
LINE
  8
0
 62
     0
 10
12.4961
 20
80.5462
 30
0.0
 11
12.4961
 21
94.3956
 31
0.0
  0
LINE
  8
0
 62
     0
 10
30.9948
 20
94.3956
 30
0.0
 11
44.8455
 21
94.3956
 31
0.0
  0
LINE
  8
0
 62
     0
 10
44.8455
 20
94.3956
 30
0.0
 11
44.8455
 21
80.5462
 31
0.0
  0
LINE
  8
0
 62
     0
 10
44.8455
 20
80.5462
 30
0.0
 11
30.9948
 21
80.5462
 31
0.0
  0
LINE
  8
0
 62
     0
 10
30.9948
 20
80.5462
 30
0.0
 11
30.9948
 21
94.3956
 31
0.0
  0
LINE
  8
0
 62
     0
 10
49.4951
 20
94.3956
 30
0.0
 11
63.3458
 21
94.3956
 31
0.0
  0
LINE
  8
0
 62
     0
 10
63.3458
 20
94.3956
 30
0.0
 11
63.3458
 21
80.5462
 31
0.0
  0
LINE
  8
0
 62
     0
 10
63.3458
 20
80.5462
 30
0.0
 11
49.4951
 21
80.5462
 31
0.0
  0
LINE
  8
0
 62
     0
 10
49.4951
 20
80.5462
 30
0.0
 11
49.4951
 21
94.3956
 31
0.0
  0
LINE
  8
0
 62
     0
 10
67.9951
 20
94.3956
 30
0.0
 11
81.8459
 21
94.3956
 31
0.0
  0
LINE
  8
0
 62
     0
 10
81.8459
 20
94.3956
 30
0.0
 11
81.8459
 21
80.5462
 31
0.0
  0
LINE
  8
0
 62
     0
 10
81.8459
 20
80.5462
 30
0.0
 11
67.9951
 21
80.5462
 31
0.0
  0
LINE
  8
0
 62
     0
 10
67.9951
 20
80.5462
 30
0.0
 11
67.9951
 21
94.3956
 31
0.0
  0
LINE
  8
0
 62
     0
 10
86.4955
 20
94.3956
 30
0.0
 11
100.346
 21
94.3956
 31
0.0
  0
LINE
  8
0
 62
     0
 10
100.346
 20
94.3956
 30
0.0
 11
100.346
 21
80.5462
 31
0.0
  0
LINE
  8
0
 62
     0
 10
100.346
 20
80.5462
 30
0.0
 11
86.4955
 21
80.5462
 31
0.0
  0
LINE
  8
0
 62
     0
 10
86.4955
 20
80.5462
 30
0.0
 11
86.4955
 21
94.3956
 31
0.0
  0
LINE
  8
0
 62
     0
 10
104.995
 20
94.3956
 30
0.0
 11
118.846
 21
94.3956
 31
0.0
  0
LINE
  8
0
 62
     0
 10
118.846
 20
94.3956
 30
0.0
 11
118.846
 21
80.5462
 31
0.0
  0
LINE
  8
0
 62
     0
 10
118.846
 20
80.5462
 30
0.0
 11
104.995
 21
80.5462
 31
0.0
  0
LINE
  8
0
 62
     0
 10
104.995
 20
80.5462
 30
0.0
 11
104.995
 21
94.3956
 31
0.0
  0
LINE
  8
0
 62
     0
 10
123.494
 20
94.3956
 30
0.0
 11
137.345
 21
94.3956
 31
0.0
  0
LINE
  8
0
 62
     0
 10
137.345
 20
94.3956
 30
0.0
 11
137.345
 21
80.5462
 31
0.0
  0
LINE
  8
0
 62
     0
 10
137.345
 20
80.5462
 30
0.0
 11
123.494
 21
80.5462
 31
0.0
  0
LINE
  8
0
 62
     0
 10
123.494
 20
80.5462
 30
0.0
 11
123.494
 21
94.3956
 31
0.0
  0
LINE
  8
0
 62
     0
 10
141.994
 20
94.3956
 30
0.0
 11
155.845
 21
94.3956
 31
0.0
  0
LINE
  8
0
 62
     0
 10
155.845
 20
94.3956
 30
0.0
 11
155.845
 21
80.5462
 31
0.0
  0
LINE
  8
0
 62
     0
 10
155.845
 20
80.5462
 30
0.0
 11
141.994
 21
80.5462
 31
0.0
  0
LINE
  8
0
 62
     0
 10
141.994
 20
80.5462
 30
0.0
 11
141.994
 21
94.3956
 31
0.0
  0
LINE
  8
0
 62
     0
 10
160.494
 20
94.3956
 30
0.0
 11
174.345
 21
94.3956
 31
0.0
  0
LINE
  8
0
 62
     0
 10
174.345
 20
94.3956
 30
0.0
 11
174.345
 21
80.5462
 31
0.0
  0
LINE
  8
0
 62
     0
 10
174.345
 20
80.5462
 30
0.0
 11
160.494
 21
80.5462
 31
0.0
  0
LINE
  8
0
 62
     0
 10
160.494
 20
80.5462
 30
0.0
 11
160.494
 21
94.3956
 31
0.0
  0
LINE
  8
0
 62
     0
 10
178.995
 20
94.3956
 30
0.0
 11
192.845
 21
94.3956
 31
0.0
  0
LINE
  8
0
 62
     0
 10
192.845
 20
94.3956
 30
0.0
 11
192.845
 21
80.5462
 31
0.0
  0
LINE
  8
0
 62
     0
 10
192.845
 20
80.5462
 30
0.0
 11
178.995
 21
80.5462
 31
0.0
  0
LINE
  8
0
 62
     0
 10
178.995
 20
80.5462
 30
0.0
 11
178.995
 21
94.3956
 31
0.0
  0
LINE
  8
0
 62
     0
 10
197.495
 20
94.3956
 30
0.0
 11
211.346
 21
94.3956
 31
0.0
  0
LINE
  8
0
 62
     0
 10
211.346
 20
94.3956
 30
0.0
 11
211.346
 21
80.5462
 31
0.0
  0
LINE
  8
0
 62
     0
 10
211.346
 20
80.5462
 30
0.0
 11
197.495
 21
80.5462
 31
0.0
  0
LINE
  8
0
 62
     0
 10
197.495
 20
80.5462
 30
0.0
 11
197.495
 21
94.3956
 31
0.0
  0
LINE
  8
0
 62
     0
 10
215.995
 20
94.3956
 30
0.0
 11
229.846
 21
94.3956
 31
0.0
  0
LINE
  8
0
 62
     0
 10
229.846
 20
94.3956
 30
0.0
 11
229.846
 21
80.5462
 31
0.0
  0
LINE
  8
0
 62
     0
 10
229.846
 20
80.5462
 30
0.0
 11
215.995
 21
80.5462
 31
0.0
  0
LINE
  8
0
 62
     0
 10
215.995
 20
80.5462
 30
0.0
 11
215.995
 21
94.3956
 31
0.0
  0
LINE
  8
0
 62
     0
 10
234.494
 20
94.3956
 30
0.0
 11
248.346
 21
94.3956
 31
0.0
  0
LINE
  8
0
 62
     0
 10
248.346
 20
94.3956
 30
0.0
 11
248.346
 21
80.5462
 31
0.0
  0
LINE
  8
0
 62
     0
 10
248.346
 20
80.5462
 30
0.0
 11
234.494
 21
80.5462
 31
0.0
  0
LINE
  8
0
 62
     0
 10
234.494
 20
80.5462
 30
0.0
 11
234.494
 21
94.3956
 31
0.0
  0
LINE
  8
0
 62
     0
 10
262.246
 20
94.3956
 30
0.0
 11
276.096
 21
94.3956
 31
0.0
  0
LINE
  8
0
 62
     0
 10
276.096
 20
94.3956
 30
0.0
 11
276.096
 21
80.5462
 31
0.0
  0
LINE
  8
0
 62
     0
 10
276.096
 20
80.5462
 30
0.0
 11
262.246
 21
80.5462
 31
0.0
  0
LINE
  8
0
 62
     0
 10
262.246
 20
80.5462
 30
0.0
 11
262.246
 21
94.3956
 31
0.0
  0
ENDSEC
  0
EOF
