  0
SECTION
  2
HEADER
  9
$ACADVER
  1
AC1009
  9
$FILLMODE
 70
 0
  9
$SPLFRAME
 70
 1
  9
$EXTMIN
 10
0
 20
0
 30
0.0
  9
$EXTMAX
 10
1058.33
 20
1058.33
 30
0.0
  0
ENDSEC
  0
SECTION
  2
TABLES
  0
TABLE
  2
LAYER
 70
1
  0
LAYER
  2
0
 70
     0
 62
     7
  6
CONTINUOUS
  0
ENDTAB
  0
ENDSEC
  0
SECTION
  2
ENTITIES
  0
LINE
  8
0
 62
     0
 10
291.12
 20
106.796
 30
0.0
 11
291.277
 21
106.79
 31
0.0
  0
LINE
  8
0
 62
     0
 10
291.277
 20
106.79
 30
0.0
 11
291.433
 21
106.772
 31
0.0
  0
LINE
  8
0
 62
     0
 10
291.433
 20
106.772
 30
0.0
 11
291.587
 21
106.741
 31
0.0
  0
LINE
  8
0
 62
     0
 10
291.587
 20
106.741
 30
0.0
 11
291.739
 21
106.699
 31
0.0
  0
LINE
  8
0
 62
     0
 10
291.739
 20
106.699
 30
0.0
 11
291.887
 21
106.644
 31
0.0
  0
LINE
  8
0
 62
     0
 10
291.887
 20
106.644
 30
0.0
 11
292.028
 21
106.579
 31
0.0
  0
LINE
  8
0
 62
     0
 10
292.028
 20
106.579
 30
0.0
 11
292.166
 21
106.502
 31
0.0
  0
LINE
  8
0
 62
     0
 10
292.166
 20
106.502
 30
0.0
 11
292.297
 21
106.415
 31
0.0
  0
LINE
  8
0
 62
     0
 10
292.297
 20
106.415
 30
0.0
 11
292.42
 21
106.317
 31
0.0
  0
LINE
  8
0
 62
     0
 10
292.42
 20
106.317
 30
0.0
 11
292.535
 21
106.211
 31
0.0
  0
LINE
  8
0
 62
     0
 10
292.535
 20
106.211
 30
0.0
 11
292.642
 21
106.095
 31
0.0
  0
LINE
  8
0
 62
     0
 10
292.642
 20
106.095
 30
0.0
 11
292.74
 21
105.973
 31
0.0
  0
LINE
  8
0
 62
     0
 10
292.74
 20
105.973
 30
0.0
 11
292.826
 21
105.841
 31
0.0
  0
LINE
  8
0
 62
     0
 10
292.826
 20
105.841
 30
0.0
 11
292.903
 21
105.704
 31
0.0
  0
LINE
  8
0
 62
     0
 10
292.903
 20
105.704
 30
0.0
 11
292.968
 21
105.562
 31
0.0
  0
LINE
  8
0
 62
     0
 10
292.968
 20
105.562
 30
0.0
 11
293.023
 21
105.416
 31
0.0
  0
LINE
  8
0
 62
     0
 10
293.023
 20
105.416
 30
0.0
 11
293.066
 21
105.263
 31
0.0
  0
LINE
  8
0
 62
     0
 10
293.066
 20
105.263
 30
0.0
 11
293.096
 21
105.11
 31
0.0
  0
LINE
  8
0
 62
     0
 10
293.096
 20
105.11
 30
0.0
 11
293.114
 21
104.953
 31
0.0
  0
LINE
  8
0
 62
     0
 10
293.114
 20
104.953
 30
0.0
 11
293.121
 21
104.796
 31
0.0
  0
LINE
  8
0
 62
     0
 10
293.121
 20
104.796
 30
0.0
 11
293.121
 21
2.39503
 31
0.0
  0
LINE
  8
0
 62
     0
 10
293.121
 20
2.39503
 30
0.0
 11
293.114
 21
2.23931
 31
0.0
  0
LINE
  8
0
 62
     0
 10
293.114
 20
2.23931
 30
0.0
 11
293.096
 21
2.08359
 31
0.0
  0
LINE
  8
0
 62
     0
 10
293.096
 20
2.08359
 30
0.0
 11
293.066
 21
1.92925
 31
0.0
  0
LINE
  8
0
 62
     0
 10
293.066
 20
1.92925
 30
0.0
 11
293.023
 21
1.77767
 31
0.0
  0
LINE
  8
0
 62
     0
 10
293.023
 20
1.77767
 30
0.0
 11
292.968
 21
1.63022
 31
0.0
  0
LINE
  8
0
 62
     0
 10
292.968
 20
1.63022
 30
0.0
 11
292.903
 21
1.48828
 31
0.0
  0
LINE
  8
0
 62
     0
 10
292.903
 20
1.48828
 30
0.0
 11
292.826
 21
1.35186
 31
0.0
  0
LINE
  8
0
 62
     0
 10
292.826
 20
1.35186
 30
0.0
 11
292.74
 21
1.21956
 31
0.0
  0
LINE
  8
0
 62
     0
 10
292.74
 20
1.21956
 30
0.0
 11
292.642
 21
1.09692
 31
0.0
  0
LINE
  8
0
 62
     0
 10
292.642
 20
1.09692
 30
0.0
 11
292.535
 21
0.981163
 31
0.0
  0
LINE
  8
0
 62
     0
 10
292.535
 20
0.981163
 30
0.0
 11
292.42
 21
0.875055
 31
0.0
  0
LINE
  8
0
 62
     0
 10
292.42
 20
0.875055
 30
0.0
 11
292.297
 21
0.777215
 31
0.0
  0
LINE
  8
0
 62
     0
 10
292.297
 20
0.777215
 30
0.0
 11
292.166
 21
0.690397
 31
0.0
  0
LINE
  8
0
 62
     0
 10
292.166
 20
0.690397
 30
0.0
 11
292.028
 21
0.613227
 31
0.0
  0
LINE
  8
0
 62
     0
 10
292.028
 20
0.613227
 30
0.0
 11
291.887
 21
0.54846
 31
0.0
  0
LINE
  8
0
 62
     0
 10
291.887
 20
0.54846
 30
0.0
 11
291.739
 21
0.493339
 31
0.0
  0
LINE
  8
0
 62
     0
 10
291.739
 20
0.493339
 30
0.0
 11
291.587
 21
0.450617
 31
0.0
  0
LINE
  8
0
 62
     0
 10
291.587
 20
0.450617
 30
0.0
 11
291.433
 21
0.420303
 31
0.0
  0
LINE
  8
0
 62
     0
 10
291.433
 20
0.420303
 30
0.0
 11
291.277
 21
0.402389
 31
0.0
  0
LINE
  8
0
 62
     0
 10
291.277
 20
0.402389
 30
0.0
 11
291.12
 21
0.395496
 31
0.0
  0
LINE
  8
0
 62
     0
 10
291.12
 20
0.395496
 30
0.0
 11
2.096
 21
0.395496
 31
0.0
  0
LINE
  8
0
 62
     0
 10
2.096
 20
0.395496
 30
0.0
 11
1.9389
 21
0.402389
 31
0.0
  0
LINE
  8
0
 62
     0
 10
1.9389
 20
0.402389
 30
0.0
 11
1.7818
 21
0.420303
 31
0.0
  0
LINE
  8
0
 62
     0
 10
1.7818
 20
0.420303
 30
0.0
 11
1.62884
 21
0.450617
 31
0.0
  0
LINE
  8
0
 62
     0
 10
1.62884
 20
0.450617
 30
0.0
 11
1.47588
 21
0.493339
 31
0.0
  0
LINE
  8
0
 62
     0
 10
1.47588
 20
0.493339
 30
0.0
 11
1.32981
 21
0.54846
 31
0.0
  0
LINE
  8
0
 62
     0
 10
1.32981
 20
0.54846
 30
0.0
 11
1.18787
 21
0.613227
 31
0.0
  0
LINE
  8
0
 62
     0
 10
1.18787
 20
0.613227
 30
0.0
 11
1.05006
 21
0.690397
 31
0.0
  0
LINE
  8
0
 62
     0
 10
1.05006
 20
0.690397
 30
0.0
 11
0.919152
 21
0.777215
 31
0.0
  0
LINE
  8
0
 62
     0
 10
0.919152
 20
0.777215
 30
0.0
 11
0.796505
 21
0.875055
 31
0.0
  0
LINE
  8
0
 62
     0
 10
0.796505
 20
0.875055
 30
0.0
 11
0.680752
 21
0.981163
 31
0.0
  0
LINE
  8
0
 62
     0
 10
0.680752
 20
0.981163
 30
0.0
 11
0.574643
 21
1.09692
 31
0.0
  0
LINE
  8
0
 62
     0
 10
0.574643
 20
1.09692
 30
0.0
 11
0.4768
 21
1.21956
 31
0.0
  0
LINE
  8
0
 62
     0
 10
0.4768
 20
1.21956
 30
0.0
 11
0.389985
 21
1.35186
 31
0.0
  0
LINE
  8
0
 62
     0
 10
0.389985
 20
1.35186
 30
0.0
 11
0.312815
 21
1.48828
 31
0.0
  0
LINE
  8
0
 62
     0
 10
0.312815
 20
1.48828
 30
0.0
 11
0.248047
 21
1.63022
 31
0.0
  0
LINE
  8
0
 62
     0
 10
0.248047
 20
1.63022
 30
0.0
 11
0.192925
 21
1.77767
 31
0.0
  0
LINE
  8
0
 62
     0
 10
0.192925
 20
1.77767
 30
0.0
 11
0.150206
 21
1.92925
 31
0.0
  0
LINE
  8
0
 62
     0
 10
0.150206
 20
1.92925
 30
0.0
 11
0.119889
 21
2.08359
 31
0.0
  0
LINE
  8
0
 62
     0
 10
0.119889
 20
2.08359
 30
0.0
 11
0.101975
 21
2.23931
 31
0.0
  0
LINE
  8
0
 62
     0
 10
0.101975
 20
2.23931
 30
0.0
 11
0.0950846
 21
2.39503
 31
0.0
  0
LINE
  8
0
 62
     0
 10
0.0950846
 20
2.39503
 30
0.0
 11
0.0950846
 21
104.796
 31
0.0
  0
LINE
  8
0
 62
     0
 10
0.0950846
 20
104.796
 30
0.0
 11
0.101975
 21
104.953
 31
0.0
  0
LINE
  8
0
 62
     0
 10
0.101975
 20
104.953
 30
0.0
 11
0.119889
 21
105.11
 31
0.0
  0
LINE
  8
0
 62
     0
 10
0.119889
 20
105.11
 30
0.0
 11
0.150206
 21
105.263
 31
0.0
  0
LINE
  8
0
 62
     0
 10
0.150206
 20
105.263
 30
0.0
 11
0.192925
 21
105.416
 31
0.0
  0
LINE
  8
0
 62
     0
 10
0.192925
 20
105.416
 30
0.0
 11
0.248047
 21
105.562
 31
0.0
  0
LINE
  8
0
 62
     0
 10
0.248047
 20
105.562
 30
0.0
 11
0.312815
 21
105.704
 31
0.0
  0
LINE
  8
0
 62
     0
 10
0.312815
 20
105.704
 30
0.0
 11
0.389985
 21
105.841
 31
0.0
  0
LINE
  8
0
 62
     0
 10
0.389985
 20
105.841
 30
0.0
 11
0.4768
 21
105.973
 31
0.0
  0
LINE
  8
0
 62
     0
 10
0.4768
 20
105.973
 30
0.0
 11
0.574643
 21
106.095
 31
0.0
  0
LINE
  8
0
 62
     0
 10
0.574643
 20
106.095
 30
0.0
 11
0.680752
 21
106.211
 31
0.0
  0
LINE
  8
0
 62
     0
 10
0.680752
 20
106.211
 30
0.0
 11
0.796505
 21
106.317
 31
0.0
  0
LINE
  8
0
 62
     0
 10
0.796505
 20
106.317
 30
0.0
 11
0.919152
 21
106.415
 31
0.0
  0
LINE
  8
0
 62
     0
 10
0.919152
 20
106.415
 30
0.0
 11
1.05006
 21
106.502
 31
0.0
  0
LINE
  8
0
 62
     0
 10
1.05006
 20
106.502
 30
0.0
 11
1.18787
 21
106.579
 31
0.0
  0
LINE
  8
0
 62
     0
 10
1.18787
 20
106.579
 30
0.0
 11
1.32981
 21
106.644
 31
0.0
  0
LINE
  8
0
 62
     0
 10
1.32981
 20
106.644
 30
0.0
 11
1.47588
 21
106.699
 31
0.0
  0
LINE
  8
0
 62
     0
 10
1.47588
 20
106.699
 30
0.0
 11
1.62884
 21
106.741
 31
0.0
  0
LINE
  8
0
 62
     0
 10
1.62884
 20
106.741
 30
0.0
 11
1.7818
 21
106.772
 31
0.0
  0
LINE
  8
0
 62
     0
 10
1.7818
 20
106.772
 30
0.0
 11
1.9389
 21
106.79
 31
0.0
  0
LINE
  8
0
 62
     0
 10
1.9389
 20
106.79
 30
0.0
 11
2.096
 21
106.796
 31
0.0
  0
LINE
  8
0
 62
     0
 10
2.096
 20
106.796
 30
0.0
 11
291.12
 21
106.796
 31
0.0
  0
LINE
  8
0
 62
     0
 10
10.1699
 20
68.9723
 30
0.0
 11
65.6717
 21
68.9723
 31
0.0
  0
LINE
  8
0
 62
     0
 10
65.6717
 20
68.9723
 30
0.0
 11
65.6717
 21
50.4705
 31
0.0
  0
LINE
  8
0
 62
     0
 10
65.6717
 20
50.4705
 30
0.0
 11
10.1699
 21
50.4705
 31
0.0
  0
LINE
  8
0
 62
     0
 10
10.1699
 20
50.4705
 30
0.0
 11
10.1699
 21
68.9723
 31
0.0
  0
LINE
  8
0
 62
     0
 10
70.2952
 20
68.9723
 30
0.0
 11
144.297
 21
68.9723
 31
0.0
  0
LINE
  8
0
 62
     0
 10
144.297
 20
68.9723
 30
0.0
 11
144.297
 21
50.4705
 31
0.0
  0
LINE
  8
0
 62
     0
 10
144.297
 20
50.4705
 30
0.0
 11
70.2952
 21
50.4705
 31
0.0
  0
LINE
  8
0
 62
     0
 10
70.2952
 20
50.4705
 30
0.0
 11
70.2952
 21
68.9723
 31
0.0
  0
LINE
  8
0
 62
     0
 10
148.919
 20
68.9723
 30
0.0
 11
185.922
 21
68.9723
 31
0.0
  0
LINE
  8
0
 62
     0
 10
185.922
 20
68.9723
 30
0.0
 11
185.922
 21
50.4705
 31
0.0
  0
LINE
  8
0
 62
     0
 10
185.922
 20
50.4705
 30
0.0
 11
148.919
 21
50.4705
 31
0.0
  0
LINE
  8
0
 62
     0
 10
148.919
 20
50.4705
 30
0.0
 11
148.919
 21
68.9723
 31
0.0
  0
LINE
  8
0
 62
     0
 10
190.544
 20
68.9723
 30
0.0
 11
283.045
 21
68.9723
 31
0.0
  0
LINE
  8
0
 62
     0
 10
283.045
 20
68.9723
 30
0.0
 11
283.045
 21
50.4705
 31
0.0
  0
LINE
  8
0
 62
     0
 10
283.045
 20
50.4705
 30
0.0
 11
190.544
 21
50.4705
 31
0.0
  0
LINE
  8
0
 62
     0
 10
190.544
 20
50.4705
 30
0.0
 11
190.544
 21
68.9723
 31
0.0
  0
LINE
  8
0
 62
     0
 10
10.1699
 20
96.7218
 30
0.0
 11
250.672
 21
96.7218
 31
0.0
  0
LINE
  8
0
 62
     0
 10
250.672
 20
96.7218
 30
0.0
 11
250.672
 21
78.2204
 31
0.0
  0
LINE
  8
0
 62
     0
 10
250.672
 20
78.2204
 30
0.0
 11
10.1699
 21
78.2204
 31
0.0
  0
LINE
  8
0
 62
     0
 10
10.1699
 20
78.2204
 30
0.0
 11
10.1699
 21
96.7218
 31
0.0
  0
LINE
  8
0
 62
     0
 10
255.294
 20
96.7218
 30
0.0
 11
283.045
 21
96.7218
 31
0.0
  0
LINE
  8
0
 62
     0
 10
283.045
 20
96.7218
 30
0.0
 11
283.045
 21
78.2204
 31
0.0
  0
LINE
  8
0
 62
     0
 10
283.045
 20
78.2204
 30
0.0
 11
255.294
 21
78.2204
 31
0.0
  0
LINE
  8
0
 62
     0
 10
255.294
 20
78.2204
 30
0.0
 11
255.294
 21
96.7218
 31
0.0
  0
ENDSEC
  0
EOF
